  0
SECTION
  2
HEADER
  9
$ACADVER
  1
AC1024
  9
$ACADMAINTVER
 70
6
  9
$DWGCODEPAGE
  3
ANSI_1252
  9
$LASTSAVEDBY
  1
unknown
  9
$INSBASE
 10
0.0
 20
0.0
 30
0.0
  9
$EXTMIN
 10
1e+20
 20
1e+20
 30
1e+20
  9
$EXTMAX
 10
-1e+20
 20
-1e+20
 30
-1e+20
  9
$LIMMIN
 10
0.0
 20
0.0
  9
$LIMMAX
 10
12.0
 20
9.0
  9
$ORTHOMODE
 70
0
  9
$REGENMODE
 70
1
  9
$FILLMODE
 70
1
  9
$QTEXTMODE
 70
0
  9
$MIRRTEXT
 70
0
  9
$LTSCALE
 40
1.0
  9
$ATTMODE
 70
1
  9
$TEXTSIZE
 40
0.2
  9
$TRACEWID
 40
0.05
  9
$TEXTSTYLE
  7
Notes
  9
$CLAYER
  8
0
  9
$CELTYPE
  6
ByLayer
  9
$CECOLOR
 62
256
  9
$CELTSCALE
 40
1.0
  9
$DISPSILH
 70
0
  9
$DIMSCALE
 40
1.0
  9
$DIMASZ
 40
3.0
  9
$DIMEXO
 40
1.5
  9
$DIMDLI
 40
6.0
  9
$DIMRND
 40
0.0
  9
$DIMDLE
 40
0.0
  9
$DIMEXE
 40
3.0
  9
$DIMTP
 40
0.0
  9
$DIMTM
 40
0.0
  9
$DIMTXT
 40
3.0
  9
$DIMCEN
 40
3.0
  9
$DIMTSZ
 40
0.0
  9
$DIMTOL
 70
0
  9
$DIMLIM
 70
0
  9
$DIMTIH
 70
0
  9
$DIMTOH
 70
0
  9
$DIMSE1
 70
0
  9
$DIMSE2
 70
0
  9
$DIMTAD
 70
1
  9
$DIMZIN
 70
3
  9
$DIMBLK
  1

  9
$DIMASO
 70
1
  9
$DIMSHO
 70
1
  9
$DIMPOST
  1

  9
$DIMAPOST
  1

  9
$DIMALT
 70
0
  9
$DIMALTD
 70
2
  9
$DIMALTF
 40
25.4
  9
$DIMLFAC
 40
1.0
  9
$DIMTOFL
 70
0
  9
$DIMTVP
 40
0.0
  9
$DIMTIX
 70
0
  9
$DIMSOXD
 70
0
  9
$DIMSAH
 70
0
  9
$DIMBLK1
  1

  9
$DIMBLK2
  1

  9
$DIMSTYLE
  2
Civil-Metric
  9
$DIMCLRD
 70
0
  9
$DIMCLRE
 70
0
  9
$DIMCLRT
 70
0
  9
$DIMTFAC
 40
1.0
  9
$DIMGAP
 40
2.0
  9
$DIMJUST
 70
0
  9
$DIMSD1
 70
0
  9
$DIMSD2
 70
0
  9
$DIMTOLJ
 70
1
  9
$DIMTZIN
 70
0
  9
$DIMALTZ
 70
0
  9
$DIMALTTZ
 70
0
  9
$DIMUPT
 70
0
  9
$DIMDEC
 70
2
  9
$DIMTDEC
 70
2
  9
$DIMALTU
 70
2
  9
$DIMALTTD
 70
2
  9
$DIMTXSTY
  7
Standard
  9
$DIMAUNIT
 70
0
  9
$DIMADEC
 70
2
  9
$DIMALTRND
 40
0.0
  9
$DIMAZIN
 70
2
  9
$DIMDSEP
 70
46
  9
$DIMATFIT
 70
3
  9
$DIMFRAC
 70
1
  9
$DIMLDRBLK
  1

  9
$DIMLUNIT
 70
2
  9
$DIMLWD
 70
-2
  9
$DIMLWE
 70
-2
  9
$DIMTMOVE
 70
0
  9
$DIMFXL
 40
1.0
  9
$DIMFXLON
 70
0
  9
$DIMJOGANG
 40
0.7853981633974483
  9
$DIMTFILL
 70
0
  9
$DIMTFILLCLR
 70
0
  9
$DIMARCSYM
 70
0
  9
$DIMLTYPE
  6

  9
$DIMLTEX1
  6

  9
$DIMLTEX2
  6

  9
$DIMTXTDIRECTION
 70
0
  9
$LUNITS
 70
2
  9
$LUPREC
 70
4
  9
$SKETCHINC
 40
0.1
  9
$FILLETRAD
 40
0.0
  9
$AUNITS
 70
4
  9
$AUPREC
 70
5
  9
$MENU
  1
.
  9
$ELEVATION
 40
0.0
  9
$PELEVATION
 40
0.0
  9
$THICKNESS
 40
0.0
  9
$LIMCHECK
 70
0
  9
$CHAMFERA
 40
0.0
  9
$CHAMFERB
 40
0.0
  9
$CHAMFERC
 40
0.0
  9
$CHAMFERD
 40
0.0
  9
$SKPOLY
 70
0
  9
$TDCREATE
 40
2458464.8871296295
  9
$TDUPDATE
 40
2458464.8871296295
  9
$TDINDWG
 40
0.0
  9
$TDUSRTIMER
 40
0.0
  9
$USRTIMER
 70
1
  9
$ANGBASE
 50
0.0
  9
$ANGDIR
 70
0
  9
$PDMODE
 70
0
  9
$PDSIZE
 40
0.0
  9
$PLINEWID
 40
0.0
  9
$SPLFRAME
 70
0
  9
$SPLINETYPE
 70
6
  9
$SPLINESEGS
 70
8
  9
$HANDSEED
  5
976
  9
$SURFTAB1
 70
6
  9
$SURFTAB2
 70
6
  9
$SURFTYPE
 70
6
  9
$SURFU
 70
6
  9
$SURFV
 70
6
  9
$UCSBASE
  2

  9
$UCSNAME
  2

  9
$UCSORG
 10
0.0
 20
0.0
 30
0.0
  9
$UCSXDIR
 10
1.0
 20
0.0
 30
0.0
  9
$UCSYDIR
 10
0.0
 20
1.0
 30
0.0
  9
$UCSORTHOREF
  2

  9
$UCSORTHOVIEW
 70
0
  9
$UCSORGTOP
 10
0.0
 20
0.0
 30
0.0
  9
$UCSORGBOTTOM
 10
0.0
 20
0.0
 30
0.0
  9
$UCSORGLEFT
 10
0.0
 20
0.0
 30
0.0
  9
$UCSORGRIGHT
 10
0.0
 20
0.0
 30
0.0
  9
$UCSORGFRONT
 10
0.0
 20
0.0
 30
0.0
  9
$UCSORGBACK
 10
0.0
 20
0.0
 30
0.0
  9
$PUCSBASE
  2

  9
$PUCSNAME
  2

  9
$PUCSORG
 10
0.0
 20
0.0
 30
0.0
  9
$PUCSXDIR
 10
1.0
 20
0.0
 30
0.0
  9
$PUCSYDIR
 10
0.0
 20
1.0
 30
0.0
  9
$PUCSORTHOREF
  2

  9
$PUCSORTHOVIEW
 70
0
  9
$PUCSORGTOP
 10
0.0
 20
0.0
 30
0.0
  9
$PUCSORGBOTTOM
 10
0.0
 20
0.0
 30
0.0
  9
$PUCSORGLEFT
 10
0.0
 20
0.0
 30
0.0
  9
$PUCSORGRIGHT
 10
0.0
 20
0.0
 30
0.0
  9
$PUCSORGFRONT
 10
0.0
 20
0.0
 30
0.0
  9
$PUCSORGBACK
 10
0.0
 20
0.0
 30
0.0
  9
$USERI1
 70
0
  9
$USERI2
 70
0
  9
$USERI3
 70
0
  9
$USERI4
 70
0
  9
$USERI5
 70
0
  9
$USERR1
 40
0.0
  9
$USERR2
 40
0.0
  9
$USERR3
 40
0.0
  9
$USERR4
 40
0.0
  9
$USERR5
 40
0.0
  9
$WORLDVIEW
 70
1
  9
$SHADEDGE
 70
3
  9
$SHADEDIF
 70
70
  9
$TILEMODE
 70
1
  9
$MAXACTVP
 70
64
  9
$PINSBASE
 10
0.0
 20
0.0
 30
0.0
  9
$PLIMCHECK
 70
0
  9
$PEXTMIN
 10
0.62886676639706
 20
0.7999999523162842
 30
0.0
  9
$PEXTMAX
 10
9.028866384927335
 20
7.199999570846558
 30
0.0
  9
$PLIMMIN
 10
-0.7005418191744587
 20
-0.2281003861915408
  9
$PLIMMAX
 10
10.29945794052965
 20
8.27189937351257
  9
$UNITMODE
 70
0
  9
$VISRETAIN
 70
1
  9
$PLINEGEN
 70
0
  9
$PSLTSCALE
 70
1
  9
$TREEDEPTH
 70
3020
  9
$CMLSTYLE
  2
Standard
  9
$CMLJUST
 70
0
  9
$CMLSCALE
 40
1.0
  9
$PROXYGRAPHICS
 70
1
  9
$MEASUREMENT
 70
1
  9
$CELWEIGHT
370
-1
  9
$ENDCAPS
280
0
  9
$JOINSTYLE
280
0
  9
$LWDISPLAY
290
0
  9
$INSUNITS
 70
4
  9
$HYPERLINKBASE
  1

  9
$STYLESHEET
  1

  9
$XEDIT
290
1
  9
$CEPSNTYPE
380
0
  9
$PSTYLEMODE
290
1
  9
$FINGERPRINTGUID
  2
{39DB1BDD-BC6C-46D3-A333-DFCC0DC4782D}
  9
$VERSIONGUID
  2
{69EEBB2D-7039-498F-9366-3F994E4A07E7}
  9
$EXTNAMES
290
1
  9
$PSVPSCALE
 40
0.0
  9
$OLESTARTUP
290
0
  9
$SORTENTS
280
127
  9
$INDEXCTL
280
0
  9
$HIDETEXT
280
1
  9
$XCLIPFRAME
280
0
  9
$HALOGAP
280
0
  9
$OBSCOLOR
 70
257
  9
$OBSLTYPE
280
0
  9
$INTERSECTIONDISPLAY
280
0
  9
$INTERSECTIONCOLOR
 70
257
  9
$DIMASSOC
280
2
  9
$PROJECTNAME
  1

  9
$CAMERADISPLAY
290
0
  9
$LENSLENGTH
 40
50.0
  9
$CAMERAHEIGHT
 40
0.0
  9
$STEPSPERSEC
 40
2.0
  9
$STEPSIZE
 40
6.0
  9
$3DDWFPREC
 40
2.0
  9
$PSOLWIDTH
 40
0.25
  9
$PSOLHEIGHT
 40
4.0
  9
$LOFTANG1
 40
1.570796326794896
  9
$LOFTANG2
 40
1.570796326794896
  9
$LOFTMAG1
 40
0.0
  9
$LOFTMAG2
 40
0.0
  9
$LOFTPARAM
 70
7
  9
$LOFTNORMALS
280
1
  9
$LATITUDE
 40
37.795
  9
$LONGITUDE
 40
-122.394
  9
$NORTHDIRECTION
 40
0.0
  9
$TIMEZONE
 70
-8000
  9
$LIGHTGLYPHDISPLAY
280
1
  9
$TILEMODELIGHTSYNCH
280
1
  9
$CMATERIAL
347
96
  9
$SOLIDHIST
280
1
  9
$SHOWHIST
280
1
  9
$DWFFRAME
280
2
  9
$DGNFRAME
280
0
  9
$REALWORLDSCALE
290
1
  9
$INTERFERECOLOR
 62
1
  9
$INTERFEREOBJVS
345
A3
  9
$INTERFEREVPVS
346
A0
  9
$CSHADOW
280
0
  9
$SHADOWPLANELOCATION
 40
0.0
  0
ENDSEC
  0
SECTION
  2
CLASSES
  0
CLASS
  1
ACDBDICTIONARYWDFLT
  2
AcDbDictionaryWithDefault
  3
ObjectDBX Classes
 90
0
 91
0
280
0
281
0
  0
CLASS
  1
DICTIONARYVAR
  2
AcDbDictionaryVar
  3
ObjectDBX Classes
 90
0
 91
0
280
0
281
0
  0
CLASS
  1
TABLESTYLE
  2
AcDbTableStyle
  3
ObjectDBX Classes
 90
4095
 91
0
280
0
281
0
  0
CLASS
  1
MATERIAL
  2
AcDbMaterial
  3
ObjectDBX Classes
 90
1153
 91
0
280
0
281
0
  0
CLASS
  1
VISUALSTYLE
  2
AcDbVisualStyle
  3
ObjectDBX Classes
 90
4095
 91
0
280
0
281
0
  0
CLASS
  1
SCALE
  2
AcDbScale
  3
ObjectDBX Classes
 90
1153
 91
0
280
0
281
0
  0
CLASS
  1
MLEADERSTYLE
  2
AcDbMLeaderStyle
  3
ACDB_MLEADERSTYLE_CLASS
 90
4095
 91
0
280
0
281
0
  0
CLASS
  1
CELLSTYLEMAP
  2
AcDbCellStyleMap
  3
ObjectDBX Classes
 90
1152
 91
0
280
0
281
0
  0
CLASS
  1
EXACXREFPANELOBJECT
  2
ExAcXREFPanelObject
  3
EXAC_ESW
 90
1025
 91
0
280
0
281
0
  0
CLASS
  1
NPOCOLLECTION
  2
AcDbImpNonPersistentObjectsCollection
  3
ObjectDBX Classes
 90
1153
 91
0
280
0
281
0
  0
CLASS
  1
LAYER_INDEX
  2
AcDbLayerIndex
  3
ObjectDBX Classes
 90
0
 91
0
280
0
281
0
  0
CLASS
  1
SPATIAL_INDEX
  2
AcDbSpatialIndex
  3
ObjectDBX Classes
 90
0
 91
0
280
0
281
0
  0
CLASS
  1
IDBUFFER
  2
AcDbIdBuffer
  3
ObjectDBX Classes
 90
0
 91
0
280
0
281
0
  0
CLASS
  1
DIMASSOC
  2
AcDbDimAssoc
  3
"AcDbDimAssoc|Product Desc:     AcDim ARX App For Dimension|Company:          Autodesk, Inc.|WEB Address:      www.autodesk.com"
 90
0
 91
0
280
0
281
0
  0
CLASS
  1
IMAGEDEF
  2
AcDbRasterImageDef
  3
ISM
 90
0
 91
0
280
0
281
0
  0
CLASS
  1
RASTERVARIABLES
  2
AcDbRasterVariables
  3
ISM
 90
0
 91
0
280
0
281
0
  0
CLASS
  1
IMAGEDEF_REACTOR
  2
AcDbRasterImageDefReactor
  3
ISM
 90
1
 91
0
280
0
281
0
  0
CLASS
  1
IMAGE
  2
AcDbRasterImage
  3
ISM
 90
2175
 91
0
280
0
281
1
  0
CLASS
  1
PDFDEFINITION
  2
AcDbPdfDefinition
  3
ObjectDBX Classes
 90
1153
 91
0
280
0
281
0
  0
CLASS
  1
PDFUNDERLAY
  2
AcDbPdfReference
  3
ObjectDBX Classes
 90
4095
 91
0
280
0
281
1
  0
CLASS
  1
DWFDEFINITION
  2
AcDbDwfDefinition
  3
ObjectDBX Classes
 90
1153
 91
0
280
0
281
0
  0
CLASS
  1
DWFUNDERLAY
  2
AcDbDwfReference
  3
ObjectDBX Classes
 90
1153
 91
0
280
0
281
1
  0
CLASS
  1
DGNDEFINITION
  2
AcDbDgnDefinition
  3
ObjectDBX Classes
 90
1153
 91
0
280
0
281
0
  0
CLASS
  1
DGNUNDERLAY
  2
AcDbDgnReference
  3
ObjectDBX Classes
 90
1153
 91
0
280
0
281
1
  0
ENDSEC
  0
SECTION
  2
TABLES
  0
TABLE
  2
VPORT
  5
8
330
0
100
AcDbSymbolTable
 70
0
  0
ENDTAB
  0
TABLE
  2
LTYPE
  5
5F
330
0
100
AcDbSymbolTable
 70
7
  0
LTYPE
  5
14
330
5F
100
AcDbSymbolTableRecord
100
AcDbLinetypeTableRecord
  2
ByBlock
 70
0
  3

 72
65
 73
0
 40
0.0
  0
LTYPE
  5
15
330
5F
100
AcDbSymbolTableRecord
100
AcDbLinetypeTableRecord
  2
ByLayer
 70
0
  3

 72
65
 73
0
 40
0.0
  0
LTYPE
  5
16
330
5F
100
AcDbSymbolTableRecord
100
AcDbLinetypeTableRecord
  2
Continuous
 70
0
  3
Solid line
 72
65
 73
0
 40
0.0
  0
LTYPE
  5
1B1
330
5F
100
AcDbSymbolTableRecord
100
AcDbLinetypeTableRecord
  2
CENTER
 70
0
  3
Center ____ _ ____ _ ____ _ ____ _ ____ _ ____
 72
65
 73
4
 40
2.0
 49
1.25
 74
0
 49
-0.25
 74
0
 49
0.25
 74
0
 49
-0.25
 74
0
  0
LTYPE
  5
1B2
330
5F
100
AcDbSymbolTableRecord
100
AcDbLinetypeTableRecord
  2
DASHED
 70
0
  3
Dashed __ __ __ __ __ __ __ __ __ __ __ __ __ _
 72
65
 73
2
 40
0.75
 49
0.5
 74
0
 49
-0.25
 74
0
  0
LTYPE
  5
1B3
330
5F
100
AcDbSymbolTableRecord
100
AcDbLinetypeTableRecord
  2
PHANTOM
 70
0
  3
Phantom ______  __  __  ______  __  __  ______
 72
65
 73
6
 40
2.5
 49
1.25
 74
0
 49
-0.25
 74
0
 49
0.25
 74
0
 49
-0.25
 74
0
 49
0.25
 74
0
 49
-0.25
 74
0
  0
LTYPE
  5
39E
330
5F
100
AcDbSymbolTableRecord
100
AcDbLinetypeTableRecord
  2
HIDDEN
 70
0
  3
Hidden __ __ __ __ __ __ __ __ __ __ __ __ __ __
 72
65
 73
2
 40
9.525
 49
6.35
 74
0
 49
-3.175
 74
0
  0
ENDTAB
  0
TABLE
  2
LAYER
  5
2
330
0
100
AcDbSymbolTable
 70
3
  0
LAYER
  5
10
330
2
100
AcDbSymbolTableRecord
100
AcDbLayerTableRecord
  2
0
 70
0
 62
7
  6
Continuous
370
-3
390
4E8
  0
LAYER
  5
1B4
330
2
100
AcDbSymbolTableRecord
100
AcDbLayerTableRecord
  2
View Port
 70
0
 62
7
  6
Continuous
290
0
370
-3
390
4E8
  0
LAYER
  5
21D
330
2
100
AcDbSymbolTableRecord
100
AcDbLayerTableRecord
  2
Defpoints
 70
0
 62
7
  6
Continuous
290
0
370
-3
390
4E8
  0
ENDTAB
  0
TABLE
  2
STYLE
  5
3
330
0
100
AcDbSymbolTable
 70
3
  0
STYLE
  5
11
330
3
100
AcDbSymbolTableRecord
100
AcDbTextStyleTableRecord
  2
Standard
 70
0
 40
0.0
 41
1.0
 50
0.0
 71
0
 42
0.2
  3
arial.ttf
  4

  0
STYLE
  5
DC
330
3
100
AcDbSymbolTableRecord
100
AcDbTextStyleTableRecord
  2
Annotative
 70
0
 40
0.0
 41
1.0
 50
0.0
 71
0
 42
0.2
  3
arial.ttf
  4

  0
STYLE
  5
178
330
3
100
AcDbSymbolTableRecord
100
AcDbTextStyleTableRecord
  2
Notes
 70
0
 40
3.0
 41
1.0
 50
0.0
 71
0
 42
0.2
  3
arial.ttf
  4

  0
ENDTAB
  0
TABLE
  2
VIEW
  5
6
330
0
100
AcDbSymbolTable
 70
0
  0
ENDTAB
  0
TABLE
  2
UCS
  5
7
330
0
100
AcDbSymbolTable
 70
0
  0
ENDTAB
  0
TABLE
  2
APPID
  5
9
330
0
100
AcDbSymbolTable
 70
11
  0
APPID
  5
12
330
9
100
AcDbSymbolTableRecord
100
AcDbRegAppTableRecord
  2
ACAD
 70
0
  0
APPID
  5
DD
330
9
100
AcDbSymbolTableRecord
100
AcDbRegAppTableRecord
  2
AcadAnnoPO
 70
0
  0
APPID
  5
DE
330
9
100
AcDbSymbolTableRecord
100
AcDbRegAppTableRecord
  2
AcadAnnotative
 70
0
  0
APPID
  5
DF
330
9
100
AcDbSymbolTableRecord
100
AcDbRegAppTableRecord
  2
ACAD_DSTYLE_DIMJAG
 70
0
  0
APPID
  5
E0
330
9
100
AcDbSymbolTableRecord
100
AcDbRegAppTableRecord
  2
ACAD_DSTYLE_DIMTALN
 70
0
  0
APPID
  5
107
330
9
100
AcDbSymbolTableRecord
100
AcDbRegAppTableRecord
  2
ACAD_MLEADERVER
 70
0
  0
APPID
  5
1B5
330
9
100
AcDbSymbolTableRecord
100
AcDbRegAppTableRecord
  2
AcAecLayerStandard
 70
0
  0
APPID
  5
1BA
330
9
100
AcDbSymbolTableRecord
100
AcDbRegAppTableRecord
  2
ACAD_EXEMPT_FROM_CAD_STANDARDS
 70
0
  0
APPID
  5
237
330
9
100
AcDbSymbolTableRecord
100
AcDbRegAppTableRecord
  2
ACAD_DSTYLE_DIMBREAK
 70
0
  0
APPID
  5
28E
330
9
100
AcDbSymbolTableRecord
100
AcDbRegAppTableRecord
  2
ACAD_PSEXT
 70
0
  0
APPID
  5
4C4
330
9
100
AcDbSymbolTableRecord
100
AcDbRegAppTableRecord
  2
HATCHBACKGROUNDCOLOR
 70
0
  0
ENDTAB
  0
TABLE
  2
DIMSTYLE
  5
A
330
0
100
AcDbSymbolTable
 70
3
100
AcDbDimStyleTable
 71
3
340
242
340
27
340
E1
  0
DIMSTYLE
105
27
330
A
100
AcDbSymbolTableRecord
100
AcDbDimStyleTableRecord
  2
Standard
 70
0
 41
3.0
 42
2.0
 43
9.0
 44
5.0
140
3.0
141
2.0
147
2.0
340
11
1001
ACAD_DSTYLE_DIMJAG
1070
388
1040
38.0
1001
ACAD_DSTYLE_DIMBREAK
1070
391
1040
90.0
1001
ACAD_DSTYLE_DIMTALN
1070
392
1070
0
  0
DIMSTYLE
105
E1
330
A
100
AcDbSymbolTableRecord
100
AcDbDimStyleTableRecord
  2
Annotative
 70
0
 40
0.0
 41
3.0
 42
2.5
 43
10.0
 44
5.0
140
3.0
141
2.0
147
2.0
340
11
1001
AcadAnnotative
1000
AnnotativeData
1002
{
1070
1
1070
1
1002
}
1001
ACAD_DSTYLE_DIMJAG
1070
388
1040
38.0
1001
ACAD_DSTYLE_DIMBREAK
1070
391
1040
90.0
1001
ACAD_DSTYLE_DIMTALN
1070
392
1070
0
  0
DIMSTYLE
105
242
330
A
100
AcDbSymbolTableRecord
100
AcDbDimStyleTableRecord
  2
Civil-Metric
 70
0
 41
3.0
 42
1.5
 43
6.0
 44
3.0
 73
0
 74
0
 77
1
 78
3
 79
2
140
3.0
141
3.0
147
2.0
179
2
271
2
272
2
276
1
340
11
1001
ACAD_DSTYLE_DIMBREAK
1070
391
1040
3.0
1001
ACAD_DSTYLE_DIMJAG
1070
388
1040
38.0
1001
ACAD_DSTYLE_DIMTALN
1070
392
1070
0
  0
ENDTAB
  0
TABLE
  2
BLOCK_RECORD
  5
1
330
0
100
AcDbSymbolTable
 70
4
  0
BLOCK_RECORD
  5
1F
330
1
100
AcDbSymbolTableRecord
100
AcDbBlockTableRecord
  2
*Model_Space
340
4ED
 70
0
280
1
281
0
  0
BLOCK_RECORD
  5
58
330
1
100
AcDbSymbolTableRecord
100
AcDbBlockTableRecord
  2
*Paper_Space
340
4EE
 70
0
280
1
281
0
  0
BLOCK_RECORD
  5
238
330
1
100
AcDbSymbolTableRecord
100
AcDbBlockTableRecord
  2
_ArchTick
340
0
 70
0
280
1
281
0
  0
BLOCK_RECORD
  5
23C
330
1
100
AcDbSymbolTableRecord
100
AcDbBlockTableRecord
  2
_Open30
340
0
 70
0
280
1
281
0
  0
ENDTAB
  0
ENDSEC
  0
SECTION
  2
BLOCKS
  0
BLOCK
  5
5A
330
58
100
AcDbEntity
 67
1
  8
0
100
AcDbBlockBegin
  2
*Paper_Space
 70
0
 10
0.0
 20
0.0
 30
0.0
  3
*Paper_Space
  1

  0
ENDBLK
  5
5B
330
58
100
AcDbEntity
 67
1
  8
0
100
AcDbBlockEnd
  0
BLOCK
  5
20
330
1F
100
AcDbEntity
  8
0
100
AcDbBlockBegin
  2
*Model_Space
 70
0
 10
0.0
 20
0.0
 30
0.0
  3
*Model_Space
  1

  0
ENDBLK
  5
21
330
1F
100
AcDbEntity
  8
0
100
AcDbBlockEnd
  0
BLOCK
  5
23A
330
238
100
AcDbEntity
  8
0
100
AcDbBlockBegin
  2
_ArchTick
 70
0
 10
0.0
 20
0.0
 30
0.0
  3
_ArchTick
  1

  0
LWPOLYLINE
  5
239
330
238
100
AcDbEntity
  8
0
  6
ByBlock
 62
0
100
AcDbPolyline
 90
2
 70
0
 43
0.15
 10
-0.5
 20
-0.5
 10
0.5
 20
0.5
  0
ENDBLK
  5
23B
330
238
100
AcDbEntity
  8
0
100
AcDbBlockEnd
  0
BLOCK
  5
240
330
23C
100
AcDbEntity
  8
0
100
AcDbBlockBegin
  2
_Open30
 70
0
 10
0.0
 20
0.0
 30
0.0
  3
_Open30
  1

  0
LINE
  5
23D
330
23C
100
AcDbEntity
  8
0
  6
ByBlock
 62
0
370
-2
100
AcDbLine
 10
-1.0
 20
0.26794919
 30
0.0
 11
0.0
 21
0.0
 31
0.0
  0
LINE
  5
23E
330
23C
100
AcDbEntity
  8
0
  6
ByBlock
 62
0
370
-2
100
AcDbLine
 10
0.0
 20
0.0
 30
0.0
 11
-1.0
 21
-0.26794919
 31
0.0
  0
LINE
  5
23F
330
23C
100
AcDbEntity
  8
0
  6
ByBlock
 62
0
370
-2
100
AcDbLine
 10
0.0
 20
0.0
 30
0.0
 11
-1.0
 21
0.0
 31
0.0
  0
ENDBLK
  5
241
330
23C
100
AcDbEntity
  8
0
100
AcDbBlockEnd
  0
ENDSEC
  0
SECTION
  2
ENTITIES
  0
LINE
  5
56B
330
1F
100
AcDbEntity
  8
0
 67
0
100
AcDbLine
 10
98.7232421875
 20
299.0453125
 11
98.7294609375
 21
299.11190625
  0
LINE
  5
56C
330
1F
100
AcDbEntity
  8
0
 67
0
100
AcDbLine
 10
98.7294609375
 20
299.11190625
 11
98.7393671875
 21
299.17575
  0
LINE
  5
56D
330
1F
100
AcDbEntity
  8
0
 67
0
100
AcDbLine
 10
98.7393671875
 20
299.17575
 11
98.7529609375
 21
299.23684375
  0
LINE
  5
56E
330
1F
100
AcDbEntity
  8
0
 67
0
100
AcDbLine
 10
98.7529609375
 20
299.23684375
 11
98.7702421875
 21
299.2951875
  0
LINE
  5
56F
330
1F
100
AcDbEntity
  8
0
 67
0
100
AcDbLine
 10
98.7702421875
 20
299.2951875
 11
98.7912109375
 21
299.35078125
  0
LINE
  5
570
330
1F
100
AcDbEntity
  8
0
 67
0
100
AcDbLine
 10
98.7912109375
 20
299.35078125
 11
98.8158671875
 21
299.403625
  0
LINE
  5
571
330
1F
100
AcDbEntity
  8
0
 67
0
100
AcDbLine
 10
98.8158671875
 20
299.403625
 11
98.84421093750001
 21
299.45371875
  0
LINE
  5
572
330
1F
100
AcDbEntity
  8
0
 67
0
100
AcDbLine
 10
98.84421093750001
 20
299.45371875
 11
98.8762421875
 21
299.5010625
  0
LINE
  5
573
330
1F
100
AcDbEntity
  8
0
 67
0
100
AcDbLine
 10
98.8762421875
 20
299.5010625
 11
98.9119609375
 21
299.54565625
  0
LINE
  5
574
330
1F
100
AcDbEntity
  8
0
 67
0
100
AcDbLine
 10
98.9119609375
 20
299.54565625
 11
98.9513671875
 21
299.5875
  0
LINE
  5
575
330
1F
100
AcDbEntity
  8
0
 67
0
100
AcDbLine
 10
98.9513671875
 20
299.5875
 11
98.9935859375
 21
299.6259453125
  0
LINE
  5
576
330
1F
100
AcDbEntity
  8
0
 67
0
100
AcDbLine
 10
98.9935859375
 20
299.6259453125
 11
99.0377421875
 21
299.66034375
  0
LINE
  5
577
330
1F
100
AcDbEntity
  8
0
 67
0
100
AcDbLine
 10
99.0377421875
 20
299.66034375
 11
99.0838359375
 21
299.6906953125
  0
LINE
  5
578
330
1F
100
AcDbEntity
  8
0
 67
0
100
AcDbLine
 10
99.0838359375
 20
299.6906953125
 11
99.1318671875
 21
299.717
  0
LINE
  5
579
330
1F
100
AcDbEntity
  8
0
 67
0
100
AcDbLine
 10
99.1318671875
 20
299.717
 11
99.1818359375
 21
299.7392578125
  0
LINE
  5
57A
330
1F
100
AcDbEntity
  8
0
 67
0
100
AcDbLine
 10
99.1818359375
 20
299.7392578125
 11
99.2337421875
 21
299.75746875
  0
LINE
  5
57B
330
1F
100
AcDbEntity
  8
0
 67
0
100
AcDbLine
 10
99.2337421875
 20
299.75746875
 11
99.2875859375
 21
299.7716328125
  0
LINE
  5
57C
330
1F
100
AcDbEntity
  8
0
 67
0
100
AcDbLine
 10
99.2875859375
 20
299.7716328125
 11
99.34336718750001
 21
299.78175
  0
LINE
  5
57D
330
1F
100
AcDbEntity
  8
0
 67
0
100
AcDbLine
 10
99.34336718750001
 20
299.78175
 11
99.4010859375
 21
299.7878203125
  0
LINE
  5
57E
330
1F
100
AcDbEntity
  8
0
 67
0
100
AcDbLine
 10
99.4010859375
 20
299.7878203125
 11
99.4607421875
 21
299.78984375
  0
LINE
  5
57F
330
1F
100
AcDbEntity
  8
0
 67
0
100
AcDbLine
 10
99.4607421875
 20
299.78984375
 11
99.526375
 21
299.7873046875
  0
LINE
  5
580
330
1F
100
AcDbEntity
  8
0
 67
0
100
AcDbLine
 10
99.526375
 20
299.7873046875
 11
99.5895234375
 21
299.7796875
  0
LINE
  5
581
330
1F
100
AcDbEntity
  8
0
 67
0
100
AcDbLine
 10
99.5895234375
 20
299.7796875
 11
99.6501875
 21
299.7669921875
  0
LINE
  5
582
330
1F
100
AcDbEntity
  8
0
 67
0
100
AcDbLine
 10
99.6501875
 20
299.7669921875
 11
99.7083671875
 21
299.74921875
  0
LINE
  5
583
330
1F
100
AcDbEntity
  8
0
 67
0
100
AcDbLine
 10
99.7083671875
 20
299.74921875
 11
99.7640625
 21
299.7263671875
  0
LINE
  5
584
330
1F
100
AcDbEntity
  8
0
 67
0
100
AcDbLine
 10
99.7640625
 20
299.7263671875
 11
99.8172734375
 21
299.6984375
  0
LINE
  5
585
330
1F
100
AcDbEntity
  8
0
 67
0
100
AcDbLine
 10
99.8172734375
 20
299.6984375
 11
99.868
 21
299.6654296875
  0
LINE
  5
586
330
1F
100
AcDbEntity
  8
0
 67
0
100
AcDbLine
 10
99.868
 20
299.6654296875
 11
99.9162421875
 21
299.62734375
  0
LINE
  5
587
330
1F
100
AcDbEntity
  8
0
 67
0
100
AcDbLine
 10
99.9162421875
 20
299.62734375
 11
99.962
 21
299.5841796875
  0
LINE
  5
588
330
1F
100
AcDbEntity
  8
0
 67
0
100
AcDbLine
 10
99.962
 20
299.5841796875
 11
100.0052734375
 21
299.5359375
  0
LINE
  5
589
330
1F
100
AcDbEntity
  8
0
 67
0
100
AcDbLine
 10
100.0052734375
 20
299.5359375
 11
100.0315390625
 21
299.501640625
  0
LINE
  5
58A
330
1F
100
AcDbEntity
  8
0
 67
0
100
AcDbLine
 10
100.0315390625
 20
299.501640625
 11
100.0556484375
 21
299.4640625
  0
LINE
  5
58B
330
1F
100
AcDbEntity
  8
0
 67
0
100
AcDbLine
 10
100.0556484375
 20
299.4640625
 11
100.0776015625
 21
299.423203125
  0
LINE
  5
58C
330
1F
100
AcDbEntity
  8
0
 67
0
100
AcDbLine
 10
100.0776015625
 20
299.423203125
 11
100.0973984375
 21
299.3790625
  0
LINE
  5
58D
330
1F
100
AcDbEntity
  8
0
 67
0
100
AcDbLine
 10
100.0973984375
 20
299.3790625
 11
100.1150390625
 21
299.331640625
  0
LINE
  5
58E
330
1F
100
AcDbEntity
  8
0
 67
0
100
AcDbLine
 10
100.1150390625
 20
299.331640625
 11
100.1305234375
 21
299.2809375
  0
LINE
  5
58F
330
1F
100
AcDbEntity
  8
0
 67
0
100
AcDbLine
 10
100.1305234375
 20
299.2809375
 11
100.1438515625
 21
299.226953125
  0
LINE
  5
590
330
1F
100
AcDbEntity
  8
0
 67
0
100
AcDbLine
 10
100.1438515625
 20
299.226953125
 11
100.1550234375
 21
299.1696875
  0
LINE
  5
591
330
1F
100
AcDbEntity
  8
0
 67
0
100
AcDbLine
 10
100.1550234375
 20
299.1696875
 11
100.1640390625
 21
299.109140625
  0
LINE
  5
592
330
1F
100
AcDbEntity
  8
0
 67
0
100
AcDbLine
 10
100.1640390625
 20
299.109140625
 11
100.1708984375
 21
299.0453125
  0
LINE
  5
593
330
1F
100
AcDbEntity
  8
0
 67
0
100
AcDbLine
 10
100.1708984375
 20
299.0453125
 11
98.7232421875
 21
299.0453125
  0
LINE
  5
594
330
1F
100
AcDbEntity
  8
0
 67
0
100
AcDbLine
 10
98.7232421875
 20
299.0453125
 11
98.7232421875
 21
299.0453125
  0
LINE
  5
595
330
1F
100
AcDbEntity
  8
0
 67
0
100
AcDbLine
 10
94.76591796875
 20
298.8015625
 11
94.76591796875
 21
298.63984375
  0
LINE
  5
596
330
1F
100
AcDbEntity
  8
0
 67
0
100
AcDbLine
 10
94.76591796875
 20
298.63984375
 11
94.76520703125
 21
298.58328125
  0
LINE
  5
597
330
1F
100
AcDbEntity
  8
0
 67
0
100
AcDbLine
 10
94.76520703125
 20
298.58328125
 11
94.76307421875
 21
298.52953125
  0
LINE
  5
598
330
1F
100
AcDbEntity
  8
0
 67
0
100
AcDbLine
 10
94.76307421875
 20
298.52953125
 11
94.75951953124999
 21
298.47859375
  0
LINE
  5
599
330
1F
100
AcDbEntity
  8
0
 67
0
100
AcDbLine
 10
94.75951953124999
 20
298.47859375
 11
94.75454296875
 21
298.43046875
  0
LINE
  5
59A
330
1F
100
AcDbEntity
  8
0
 67
0
100
AcDbLine
 10
94.75454296875
 20
298.43046875
 11
94.74814453125
 21
298.38515625
  0
LINE
  5
59B
330
1F
100
AcDbEntity
  8
0
 67
0
100
AcDbLine
 10
94.74814453125
 20
298.38515625
 11
94.74032421875
 21
298.34265625
  0
LINE
  5
59C
330
1F
100
AcDbEntity
  8
0
 67
0
100
AcDbLine
 10
94.74032421875
 20
298.34265625
 11
94.73108203125
 21
298.30296875
  0
LINE
  5
59D
330
1F
100
AcDbEntity
  8
0
 67
0
100
AcDbLine
 10
94.73108203125
 20
298.30296875
 11
94.72041796875
 21
298.26609375
  0
LINE
  5
59E
330
1F
100
AcDbEntity
  8
0
 67
0
100
AcDbLine
 10
94.72041796875
 20
298.26609375
 11
94.70833203125
 21
298.23203125
  0
LINE
  5
59F
330
1F
100
AcDbEntity
  8
0
 67
0
100
AcDbLine
 10
94.70833203125
 20
298.23203125
 11
94.69482421875
 21
298.20078125
  0
LINE
  5
5A0
330
1F
100
AcDbEntity
  8
0
 67
0
100
AcDbLine
 10
94.69482421875
 20
298.20078125
 11
94.67518359375
 21
298.1630078125
  0
LINE
  5
5A1
330
1F
100
AcDbEntity
  8
0
 67
0
100
AcDbLine
 10
94.67518359375
 20
298.1630078125
 11
94.65344921875
 21
298.126875
  0
LINE
  5
5A2
330
1F
100
AcDbEntity
  8
0
 67
0
100
AcDbLine
 10
94.65344921875
 20
298.126875
 11
94.62962109375
 21
298.0923828125
  0
LINE
  5
5A3
330
1F
100
AcDbEntity
  8
0
 67
0
100
AcDbLine
 10
94.62962109375
 20
298.0923828125
 11
94.60369921875
 21
298.05953125
  0
LINE
  5
5A4
330
1F
100
AcDbEntity
  8
0
 67
0
100
AcDbLine
 10
94.60369921875
 20
298.05953125
 11
94.57568359375
 21
298.0283203125
  0
LINE
  5
5A5
330
1F
100
AcDbEntity
  8
0
 67
0
100
AcDbLine
 10
94.57568359375
 20
298.0283203125
 11
94.54557421875
 21
297.99875
  0
LINE
  5
5A6
330
1F
100
AcDbEntity
  8
0
 67
0
100
AcDbLine
 10
94.54557421875
 20
297.99875
 11
94.51337109375
 21
297.9708203125
  0
LINE
  5
5A7
330
1F
100
AcDbEntity
  8
0
 67
0
100
AcDbLine
 10
94.51337109375
 20
297.9708203125
 11
94.47907421875
 21
297.94453125
  0
LINE
  5
5A8
330
1F
100
AcDbEntity
  8
0
 67
0
100
AcDbLine
 10
94.47907421875
 20
297.94453125
 11
94.44268359375
 21
297.9198828125
  0
LINE
  5
5A9
330
1F
100
AcDbEntity
  8
0
 67
0
100
AcDbLine
 10
94.44268359375
 20
297.9198828125
 11
94.40419921875
 21
297.896875
  0
LINE
  5
5AA
330
1F
100
AcDbEntity
  8
0
 67
0
100
AcDbLine
 10
94.40419921875
 20
297.896875
 11
94.36410546875
 21
297.875796875
  0
LINE
  5
5AB
330
1F
100
AcDbEntity
  8
0
 67
0
100
AcDbLine
 10
94.36410546875
 20
297.875796875
 11
94.32288671875
 21
297.8569375
  0
LINE
  5
5AC
330
1F
100
AcDbEntity
  8
0
 67
0
100
AcDbLine
 10
94.32288671875
 20
297.8569375
 11
94.28054296875
 21
297.840296875
  0
LINE
  5
5AD
330
1F
100
AcDbEntity
  8
0
 67
0
100
AcDbLine
 10
94.28054296875
 20
297.840296875
 11
94.23707421875
 21
297.825875
  0
LINE
  5
5AE
330
1F
100
AcDbEntity
  8
0
 67
0
100
AcDbLine
 10
94.23707421875
 20
297.825875
 11
94.19248046875
 21
297.813671875
  0
LINE
  5
5AF
330
1F
100
AcDbEntity
  8
0
 67
0
100
AcDbLine
 10
94.19248046875
 20
297.813671875
 11
94.14676171875
 21
297.8036875
  0
LINE
  5
5B0
330
1F
100
AcDbEntity
  8
0
 67
0
100
AcDbLine
 10
94.14676171875
 20
297.8036875
 11
94.09991796875
 21
297.795921875
  0
LINE
  5
5B1
330
1F
100
AcDbEntity
  8
0
 67
0
100
AcDbLine
 10
94.09991796875
 20
297.795921875
 11
94.05194921875
 21
297.790375
  0
LINE
  5
5B2
330
1F
100
AcDbEntity
  8
0
 67
0
100
AcDbLine
 10
94.05194921875
 20
297.790375
 11
94.00285546875
 21
297.787046875
  0
LINE
  5
5B3
330
1F
100
AcDbEntity
  8
0
 67
0
100
AcDbLine
 10
94.00285546875
 20
297.787046875
 11
93.95263671875
 21
297.7859375
  0
LINE
  5
5B4
330
1F
100
AcDbEntity
  8
0
 67
0
100
AcDbLine
 10
93.95263671875
 20
297.7859375
 11
93.90261328125
 21
297.787109375
  0
LINE
  5
5B5
330
1F
100
AcDbEntity
  8
0
 67
0
100
AcDbLine
 10
93.90261328125
 20
297.787109375
 11
93.85504296875
 21
297.790625
  0
LINE
  5
5B6
330
1F
100
AcDbEntity
  8
0
 67
0
100
AcDbLine
 10
93.85504296875
 20
297.790625
 11
93.80992578125
 21
297.796484375
  0
LINE
  5
5B7
330
1F
100
AcDbEntity
  8
0
 67
0
100
AcDbLine
 10
93.80992578125
 20
297.796484375
 11
93.76726171875
 21
297.8046875
  0
LINE
  5
5B8
330
1F
100
AcDbEntity
  8
0
 67
0
100
AcDbLine
 10
93.76726171875
 20
297.8046875
 11
93.72705078125
 21
297.815234375
  0
LINE
  5
5B9
330
1F
100
AcDbEntity
  8
0
 67
0
100
AcDbLine
 10
93.72705078125
 20
297.815234375
 11
93.68929296875
 21
297.828125
  0
LINE
  5
5BA
330
1F
100
AcDbEntity
  8
0
 67
0
100
AcDbLine
 10
93.68929296875
 20
297.828125
 11
93.65398828125
 21
297.843359375
  0
LINE
  5
5BB
330
1F
100
AcDbEntity
  8
0
 67
0
100
AcDbLine
 10
93.65398828125
 20
297.843359375
 11
93.62113671875
 21
297.8609375
  0
LINE
  5
5BC
330
1F
100
AcDbEntity
  8
0
 67
0
100
AcDbLine
 10
93.62113671875
 20
297.8609375
 11
93.59073828125
 21
297.880859375
  0
LINE
  5
5BD
330
1F
100
AcDbEntity
  8
0
 67
0
100
AcDbLine
 10
93.59073828125
 20
297.880859375
 11
93.56279296875
 21
297.903125
  0
LINE
  5
5BE
330
1F
100
AcDbEntity
  8
0
 67
0
100
AcDbLine
 10
93.56279296875
 20
297.903125
 11
93.53755859375
 21
297.9271484375
  0
LINE
  5
5BF
330
1F
100
AcDbEntity
  8
0
 67
0
100
AcDbLine
 10
93.53755859375
 20
297.9271484375
 11
93.51498046875
 21
297.95234375
  0
LINE
  5
5C0
330
1F
100
AcDbEntity
  8
0
 67
0
100
AcDbLine
 10
93.51498046875
 20
297.95234375
 11
93.49505859375
 21
297.9787109375
  0
LINE
  5
5C1
330
1F
100
AcDbEntity
  8
0
 67
0
100
AcDbLine
 10
93.49505859375
 20
297.9787109375
 11
93.47779296875
 21
298.00625
  0
LINE
  5
5C2
330
1F
100
AcDbEntity
  8
0
 67
0
100
AcDbLine
 10
93.47779296875
 20
298.00625
 11
93.46318359375
 21
298.0349609375
  0
LINE
  5
5C3
330
1F
100
AcDbEntity
  8
0
 67
0
100
AcDbLine
 10
93.46318359375
 20
298.0349609375
 11
93.45123046875
 21
298.06484375
  0
LINE
  5
5C4
330
1F
100
AcDbEntity
  8
0
 67
0
100
AcDbLine
 10
93.45123046875
 20
298.06484375
 11
93.44193359375
 21
298.0958984375
  0
LINE
  5
5C5
330
1F
100
AcDbEntity
  8
0
 67
0
100
AcDbLine
 10
93.44193359375
 20
298.0958984375
 11
93.43529296875
 21
298.128125
  0
LINE
  5
5C6
330
1F
100
AcDbEntity
  8
0
 67
0
100
AcDbLine
 10
93.43529296875
 20
298.128125
 11
93.43130859375
 21
298.1615234375
  0
LINE
  5
5C7
330
1F
100
AcDbEntity
  8
0
 67
0
100
AcDbLine
 10
93.43130859375
 20
298.1615234375
 11
93.42998046875
 21
298.19609375
  0
LINE
  5
5C8
330
1F
100
AcDbEntity
  8
0
 67
0
100
AcDbLine
 10
93.42998046875
 20
298.19609375
 11
93.43058984375
 21
298.2188515625
  0
LINE
  5
5C9
330
1F
100
AcDbEntity
  8
0
 67
0
100
AcDbLine
 10
93.43058984375
 20
298.2188515625
 11
93.43241796875
 21
298.2411875
  0
LINE
  5
5CA
330
1F
100
AcDbEntity
  8
0
 67
0
100
AcDbLine
 10
93.43241796875
 20
298.2411875
 11
93.43546484375
 21
298.2631015625
  0
LINE
  5
5CB
330
1F
100
AcDbEntity
  8
0
 67
0
100
AcDbLine
 10
93.43546484375
 20
298.2631015625
 11
93.43973046875
 21
298.28459375
  0
LINE
  5
5CC
330
1F
100
AcDbEntity
  8
0
 67
0
100
AcDbLine
 10
93.43973046875
 20
298.28459375
 11
93.44521484375
 21
298.3056640625
  0
LINE
  5
5CD
330
1F
100
AcDbEntity
  8
0
 67
0
100
AcDbLine
 10
93.44521484375
 20
298.3056640625
 11
93.45191796875
 21
298.3263125
  0
LINE
  5
5CE
330
1F
100
AcDbEntity
  8
0
 67
0
100
AcDbLine
 10
93.45191796875
 20
298.3263125
 11
93.45983984375
 21
298.3465390625
  0
LINE
  5
5CF
330
1F
100
AcDbEntity
  8
0
 67
0
100
AcDbLine
 10
93.45983984375
 20
298.3465390625
 11
93.46898046875
 21
298.36634375
  0
LINE
  5
5D0
330
1F
100
AcDbEntity
  8
0
 67
0
100
AcDbLine
 10
93.46898046875
 20
298.36634375
 11
93.47933984375
 21
298.3857265625
  0
LINE
  5
5D1
330
1F
100
AcDbEntity
  8
0
 67
0
100
AcDbLine
 10
93.47933984375
 20
298.3857265625
 11
93.49091796875
 21
298.4046875
  0
LINE
  5
5D2
330
1F
100
AcDbEntity
  8
0
 67
0
100
AcDbLine
 10
93.49091796875
 20
298.4046875
 11
93.50376171875
 21
298.422984375
  0
LINE
  5
5D3
330
1F
100
AcDbEntity
  8
0
 67
0
100
AcDbLine
 10
93.50376171875
 20
298.422984375
 11
93.51760546875
 21
298.440375
  0
LINE
  5
5D4
330
1F
100
AcDbEntity
  8
0
 67
0
100
AcDbLine
 10
93.51760546875
 20
298.440375
 11
93.53244921875
 21
298.456859375
  0
LINE
  5
5D5
330
1F
100
AcDbEntity
  8
0
 67
0
100
AcDbLine
 10
93.53244921875
 20
298.456859375
 11
93.54829296875
 21
298.4724375
  0
LINE
  5
5D6
330
1F
100
AcDbEntity
  8
0
 67
0
100
AcDbLine
 10
93.54829296875
 20
298.4724375
 11
93.56513671875
 21
298.487109375
  0
LINE
  5
5D7
330
1F
100
AcDbEntity
  8
0
 67
0
100
AcDbLine
 10
93.56513671875
 20
298.487109375
 11
93.58298046875
 21
298.500875
  0
LINE
  5
5D8
330
1F
100
AcDbEntity
  8
0
 67
0
100
AcDbLine
 10
93.58298046875
 20
298.500875
 11
93.60182421875
 21
298.513734375
  0
LINE
  5
5D9
330
1F
100
AcDbEntity
  8
0
 67
0
100
AcDbLine
 10
93.60182421875
 20
298.513734375
 11
93.62166796875
 21
298.5256875
  0
LINE
  5
5DA
330
1F
100
AcDbEntity
  8
0
 67
0
100
AcDbLine
 10
93.62166796875
 20
298.5256875
 11
93.64251171875
 21
298.536734375
  0
LINE
  5
5DB
330
1F
100
AcDbEntity
  8
0
 67
0
100
AcDbLine
 10
93.64251171875
 20
298.536734375
 11
93.66435546875
 21
298.546875
  0
LINE
  5
5DC
330
1F
100
AcDbEntity
  8
0
 67
0
100
AcDbLine
 10
93.66435546875
 20
298.546875
 11
93.68844140625
 21
298.5566171875
  0
LINE
  5
5DD
330
1F
100
AcDbEntity
  8
0
 67
0
100
AcDbLine
 10
93.68844140625
 20
298.5566171875
 11
93.71569921875
 21
298.56615625
  0
LINE
  5
5DE
330
1F
100
AcDbEntity
  8
0
 67
0
100
AcDbLine
 10
93.71569921875
 20
298.56615625
 11
93.74612890625
 21
298.5754921875
  0
LINE
  5
5DF
330
1F
100
AcDbEntity
  8
0
 67
0
100
AcDbLine
 10
93.74612890625
 20
298.5754921875
 11
93.77973046875
 21
298.584625
  0
LINE
  5
5E0
330
1F
100
AcDbEntity
  8
0
 67
0
100
AcDbLine
 10
93.77973046875
 20
298.584625
 11
93.81650390625
 21
298.5935546875
  0
LINE
  5
5E1
330
1F
100
AcDbEntity
  8
0
 67
0
100
AcDbLine
 10
93.81650390625
 20
298.5935546875
 11
93.85644921875
 21
298.60228125
  0
LINE
  5
5E2
330
1F
100
AcDbEntity
  8
0
 67
0
100
AcDbLine
 10
93.85644921875
 20
298.60228125
 11
93.89956640625
 21
298.6108046875
  0
LINE
  5
5E3
330
1F
100
AcDbEntity
  8
0
 67
0
100
AcDbLine
 10
93.89956640625
 20
298.6108046875
 11
93.94585546875
 21
298.619125
  0
LINE
  5
5E4
330
1F
100
AcDbEntity
  8
0
 67
0
100
AcDbLine
 10
93.94585546875
 20
298.619125
 11
93.99531640625
 21
298.6272421875
  0
LINE
  5
5E5
330
1F
100
AcDbEntity
  8
0
 67
0
100
AcDbLine
 10
93.99531640625
 20
298.6272421875
 11
94.04794921875
 21
298.63515625
  0
LINE
  5
5E6
330
1F
100
AcDbEntity
  8
0
 67
0
100
AcDbLine
 10
94.04794921875
 20
298.63515625
 11
94.14119140625
 21
298.6491953125
  0
LINE
  5
5E7
330
1F
100
AcDbEntity
  8
0
 67
0
100
AcDbLine
 10
94.14119140625
 20
298.6491953125
 11
94.22966796875
 21
298.6638125
  0
LINE
  5
5E8
330
1F
100
AcDbEntity
  8
0
 67
0
100
AcDbLine
 10
94.22966796875
 20
298.6638125
 11
94.31337890625
 21
298.6790078125
  0
LINE
  5
5E9
330
1F
100
AcDbEntity
  8
0
 67
0
100
AcDbLine
 10
94.31337890625
 20
298.6790078125
 11
94.39232421875
 21
298.69478125
  0
LINE
  5
5EA
330
1F
100
AcDbEntity
  8
0
 67
0
100
AcDbLine
 10
94.39232421875
 20
298.69478125
 11
94.46650390625
 21
298.7111328125
  0
LINE
  5
5EB
330
1F
100
AcDbEntity
  8
0
 67
0
100
AcDbLine
 10
94.46650390625
 20
298.7111328125
 11
94.53591796875
 21
298.7280625
  0
LINE
  5
5EC
330
1F
100
AcDbEntity
  8
0
 67
0
100
AcDbLine
 10
94.53591796875
 20
298.7280625
 11
94.60056640625
 21
298.7455703125
  0
LINE
  5
5ED
330
1F
100
AcDbEntity
  8
0
 67
0
100
AcDbLine
 10
94.60056640625
 20
298.7455703125
 11
94.66044921875
 21
298.76365625
  0
LINE
  5
5EE
330
1F
100
AcDbEntity
  8
0
 67
0
100
AcDbLine
 10
94.66044921875
 20
298.76365625
 11
94.71556640625
 21
298.7823203125
  0
LINE
  5
5EF
330
1F
100
AcDbEntity
  8
0
 67
0
100
AcDbLine
 10
94.71556640625
 20
298.7823203125
 11
94.76591796875
 21
298.8015625
  0
LINE
  5
5F0
330
1F
100
AcDbEntity
  8
0
 67
0
100
AcDbLine
 10
94.76591796875
 20
298.8015625
 11
94.76591796875
 21
298.8015625
  0
LINE
  5
5F1
330
1F
100
AcDbEntity
  8
0
 67
0
100
AcDbLine
 10
252.45184726672198
 20
287.548152733278
 11
67.54815273327802
 21
287.548152733278
  0
LINE
  5
5F2
330
1F
100
AcDbEntity
  8
0
 67
0
100
AcDbLine
 10
67.54815273327802
 20
287.548152733278
 11
67.54815273327802
 21
712.451847266722
  0
LINE
  5
5F3
330
1F
100
AcDbEntity
  8
0
 67
0
100
AcDbLine
 10
67.54815273327802
 20
712.451847266722
 11
252.45184726672198
 21
712.451847266722
  0
LINE
  5
5F4
330
1F
100
AcDbEntity
  8
0
 67
0
100
AcDbLine
 10
252.45184726672198
 20
712.451847266722
 11
252.45184726672198
 21
287.548152733278
  0
LINE
  5
5F5
330
1F
100
AcDbEntity
  8
0
 67
0
100
AcDbLine
 10
252.45184726672198
 20
287.548152733278
 11
252.45184726672198
 21
287.548152733278
  0
LINE
  5
5F6
330
1F
100
AcDbEntity
  8
0
 67
0
100
AcDbLine
 10
242.5
 20
300.0
 11
242.45196320100808
 21
300.4877258050403
  0
LINE
  5
5F7
330
1F
100
AcDbEntity
  8
0
 67
0
100
AcDbLine
 10
242.45196320100808
 20
300.4877258050403
 11
242.3096988312782
 21
300.95670858091273
  0
LINE
  5
5F8
330
1F
100
AcDbEntity
  8
0
 67
0
100
AcDbLine
 10
242.3096988312782
 20
300.95670858091273
 11
242.07867403075636
 21
301.388925582549
  0
LINE
  5
5F9
330
1F
100
AcDbEntity
  8
0
 67
0
100
AcDbLine
 10
242.07867403075636
 20
301.388925582549
 11
241.76776695296635
 21
301.7677669529664
  0
LINE
  5
5FA
330
1F
100
AcDbEntity
  8
0
 67
0
100
AcDbLine
 10
241.76776695296635
 20
301.7677669529664
 11
241.388925582549
 21
302.07867403075636
  0
LINE
  5
5FB
330
1F
100
AcDbEntity
  8
0
 67
0
100
AcDbLine
 10
241.388925582549
 20
302.07867403075636
 11
240.9567085809127
 21
302.30969883127824
  0
LINE
  5
5FC
330
1F
100
AcDbEntity
  8
0
 67
0
100
AcDbLine
 10
240.9567085809127
 20
302.30969883127824
 11
240.4877258050403
 21
302.4519632010081
  0
LINE
  5
5FD
330
1F
100
AcDbEntity
  8
0
 67
0
100
AcDbLine
 10
240.4877258050403
 20
302.4519632010081
 11
240.0
 21
302.5
  0
LINE
  5
5FE
330
1F
100
AcDbEntity
  8
0
 67
0
100
AcDbLine
 10
240.0
 20
302.5
 11
239.51227419495967
 21
302.4519632010081
  0
LINE
  5
5FF
330
1F
100
AcDbEntity
  8
0
 67
0
100
AcDbLine
 10
239.51227419495967
 20
302.4519632010081
 11
239.04329141908727
 21
302.30969883127824
  0
LINE
  5
600
330
1F
100
AcDbEntity
  8
0
 67
0
100
AcDbLine
 10
239.04329141908727
 20
302.30969883127824
 11
238.611074417451
 21
302.07867403075636
  0
LINE
  5
601
330
1F
100
AcDbEntity
  8
0
 67
0
100
AcDbLine
 10
238.611074417451
 20
302.07867403075636
 11
238.23223304703362
 21
301.7677669529664
  0
LINE
  5
602
330
1F
100
AcDbEntity
  8
0
 67
0
100
AcDbLine
 10
238.23223304703362
 20
301.7677669529664
 11
237.92132596924364
 21
301.388925582549
  0
LINE
  5
603
330
1F
100
AcDbEntity
  8
0
 67
0
100
AcDbLine
 10
237.92132596924364
 20
301.388925582549
 11
237.6903011687218
 21
300.95670858091273
  0
LINE
  5
604
330
1F
100
AcDbEntity
  8
0
 67
0
100
AcDbLine
 10
237.6903011687218
 20
300.95670858091273
 11
237.54803679899192
 21
300.4877258050403
  0
LINE
  5
605
330
1F
100
AcDbEntity
  8
0
 67
0
100
AcDbLine
 10
237.54803679899192
 20
300.4877258050403
 11
237.5
 21
300.0
  0
LINE
  5
606
330
1F
100
AcDbEntity
  8
0
 67
0
100
AcDbLine
 10
237.5
 20
300.0
 11
237.54803679899192
 21
299.5122741949597
  0
LINE
  5
607
330
1F
100
AcDbEntity
  8
0
 67
0
100
AcDbLine
 10
237.54803679899192
 20
299.5122741949597
 11
237.6903011687218
 21
299.04329141908727
  0
LINE
  5
608
330
1F
100
AcDbEntity
  8
0
 67
0
100
AcDbLine
 10
237.6903011687218
 20
299.04329141908727
 11
237.92132596924364
 21
298.611074417451
  0
LINE
  5
609
330
1F
100
AcDbEntity
  8
0
 67
0
100
AcDbLine
 10
237.92132596924364
 20
298.611074417451
 11
238.23223304703365
 21
298.2322330470336
  0
LINE
  5
60A
330
1F
100
AcDbEntity
  8
0
 67
0
100
AcDbLine
 10
238.23223304703365
 20
298.2322330470336
 11
238.611074417451
 21
297.92132596924364
  0
LINE
  5
60B
330
1F
100
AcDbEntity
  8
0
 67
0
100
AcDbLine
 10
238.611074417451
 20
297.92132596924364
 11
239.04329141908727
 21
297.69030116872176
  0
LINE
  5
60C
330
1F
100
AcDbEntity
  8
0
 67
0
100
AcDbLine
 10
239.04329141908727
 20
297.69030116872176
 11
239.51227419495967
 21
297.5480367989919
  0
LINE
  5
60D
330
1F
100
AcDbEntity
  8
0
 67
0
100
AcDbLine
 10
239.51227419495967
 20
297.5480367989919
 11
240.0
 21
297.5
  0
LINE
  5
60E
330
1F
100
AcDbEntity
  8
0
 67
0
100
AcDbLine
 10
240.0
 20
297.5
 11
240.48772580504033
 21
297.5480367989919
  0
LINE
  5
60F
330
1F
100
AcDbEntity
  8
0
 67
0
100
AcDbLine
 10
240.48772580504033
 20
297.5480367989919
 11
240.95670858091273
 21
297.69030116872176
  0
LINE
  5
610
330
1F
100
AcDbEntity
  8
0
 67
0
100
AcDbLine
 10
240.95670858091273
 20
297.69030116872176
 11
241.388925582549
 21
297.92132596924364
  0
LINE
  5
611
330
1F
100
AcDbEntity
  8
0
 67
0
100
AcDbLine
 10
241.388925582549
 20
297.92132596924364
 11
241.76776695296638
 21
298.2322330470336
  0
LINE
  5
612
330
1F
100
AcDbEntity
  8
0
 67
0
100
AcDbLine
 10
241.76776695296638
 20
298.2322330470336
 11
242.07867403075636
 21
298.611074417451
  0
LINE
  5
613
330
1F
100
AcDbEntity
  8
0
 67
0
100
AcDbLine
 10
242.07867403075636
 20
298.611074417451
 11
242.3096988312782
 21
299.04329141908727
  0
LINE
  5
614
330
1F
100
AcDbEntity
  8
0
 67
0
100
AcDbLine
 10
242.3096988312782
 20
299.04329141908727
 11
242.45196320100808
 21
299.5122741949597
  0
LINE
  5
615
330
1F
100
AcDbEntity
  8
0
 67
0
100
AcDbLine
 10
242.45196320100808
 20
299.5122741949597
 11
242.5
 21
300.0
  0
LINE
  5
616
330
1F
100
AcDbEntity
  8
0
 67
0
100
AcDbLine
 10
242.5
 20
300.0
 11
242.5
 21
300.0
  0
LINE
  5
617
330
1F
100
AcDbEntity
  8
0
 67
0
100
AcDbLine
 10
82.5
 20
300.0
 11
82.45196320100807
 21
300.4877258050403
  0
LINE
  5
618
330
1F
100
AcDbEntity
  8
0
 67
0
100
AcDbLine
 10
82.45196320100807
 20
300.4877258050403
 11
82.30969883127821
 21
300.95670858091273
  0
LINE
  5
619
330
1F
100
AcDbEntity
  8
0
 67
0
100
AcDbLine
 10
82.30969883127821
 20
300.95670858091273
 11
82.07867403075636
 21
301.388925582549
  0
LINE
  5
61A
330
1F
100
AcDbEntity
  8
0
 67
0
100
AcDbLine
 10
82.07867403075636
 20
301.388925582549
 11
81.76776695296637
 21
301.7677669529664
  0
LINE
  5
61B
330
1F
100
AcDbEntity
  8
0
 67
0
100
AcDbLine
 10
81.76776695296637
 20
301.7677669529664
 11
81.38892558254899
 21
302.07867403075636
  0
LINE
  5
61C
330
1F
100
AcDbEntity
  8
0
 67
0
100
AcDbLine
 10
81.38892558254899
 20
302.07867403075636
 11
80.95670858091272
 21
302.30969883127824
  0
LINE
  5
61D
330
1F
100
AcDbEntity
  8
0
 67
0
100
AcDbLine
 10
80.95670858091272
 20
302.30969883127824
 11
80.48772580504031
 21
302.4519632010081
  0
LINE
  5
61E
330
1F
100
AcDbEntity
  8
0
 67
0
100
AcDbLine
 10
80.48772580504031
 20
302.4519632010081
 11
79.99999999999999
 21
302.5
  0
LINE
  5
61F
330
1F
100
AcDbEntity
  8
0
 67
0
100
AcDbLine
 10
79.99999999999999
 20
302.5
 11
79.51227419495967
 21
302.4519632010081
  0
LINE
  5
620
330
1F
100
AcDbEntity
  8
0
 67
0
100
AcDbLine
 10
79.51227419495967
 20
302.4519632010081
 11
79.04329141908727
 21
302.30969883127824
  0
LINE
  5
621
330
1F
100
AcDbEntity
  8
0
 67
0
100
AcDbLine
 10
79.04329141908727
 20
302.30969883127824
 11
78.61107441745098
 21
302.07867403075636
  0
LINE
  5
622
330
1F
100
AcDbEntity
  8
0
 67
0
100
AcDbLine
 10
78.61107441745098
 20
302.07867403075636
 11
78.23223304703362
 21
301.7677669529664
  0
LINE
  5
623
330
1F
100
AcDbEntity
  8
0
 67
0
100
AcDbLine
 10
78.23223304703362
 20
301.7677669529664
 11
77.92132596924363
 21
301.388925582549
  0
LINE
  5
624
330
1F
100
AcDbEntity
  8
0
 67
0
100
AcDbLine
 10
77.92132596924363
 20
301.388925582549
 11
77.69030116872177
 21
300.95670858091273
  0
LINE
  5
625
330
1F
100
AcDbEntity
  8
0
 67
0
100
AcDbLine
 10
77.69030116872177
 20
300.95670858091273
 11
77.54803679899192
 21
300.4877258050403
  0
LINE
  5
626
330
1F
100
AcDbEntity
  8
0
 67
0
100
AcDbLine
 10
77.54803679899192
 20
300.4877258050403
 11
77.5
 21
300.0
  0
LINE
  5
627
330
1F
100
AcDbEntity
  8
0
 67
0
100
AcDbLine
 10
77.5
 20
300.0
 11
77.54803679899193
 21
299.5122741949597
  0
LINE
  5
628
330
1F
100
AcDbEntity
  8
0
 67
0
100
AcDbLine
 10
77.54803679899193
 20
299.5122741949597
 11
77.69030116872179
 21
299.04329141908727
  0
LINE
  5
629
330
1F
100
AcDbEntity
  8
0
 67
0
100
AcDbLine
 10
77.69030116872179
 20
299.04329141908727
 11
77.92132596924364
 21
298.611074417451
  0
LINE
  5
62A
330
1F
100
AcDbEntity
  8
0
 67
0
100
AcDbLine
 10
77.92132596924364
 20
298.611074417451
 11
78.23223304703363
 21
298.2322330470336
  0
LINE
  5
62B
330
1F
100
AcDbEntity
  8
0
 67
0
100
AcDbLine
 10
78.23223304703363
 20
298.2322330470336
 11
78.611074417451
 21
297.92132596924364
  0
LINE
  5
62C
330
1F
100
AcDbEntity
  8
0
 67
0
100
AcDbLine
 10
78.611074417451
 20
297.92132596924364
 11
79.04329141908728
 21
297.69030116872176
  0
LINE
  5
62D
330
1F
100
AcDbEntity
  8
0
 67
0
100
AcDbLine
 10
79.04329141908728
 20
297.69030116872176
 11
79.51227419495969
 21
297.5480367989919
  0
LINE
  5
62E
330
1F
100
AcDbEntity
  8
0
 67
0
100
AcDbLine
 10
79.51227419495969
 20
297.5480367989919
 11
80.0
 21
297.5
  0
LINE
  5
62F
330
1F
100
AcDbEntity
  8
0
 67
0
100
AcDbLine
 10
80.0
 20
297.5
 11
80.48772580504033
 21
297.5480367989919
  0
LINE
  5
630
330
1F
100
AcDbEntity
  8
0
 67
0
100
AcDbLine
 10
80.48772580504033
 20
297.5480367989919
 11
80.95670858091273
 21
297.69030116872176
  0
LINE
  5
631
330
1F
100
AcDbEntity
  8
0
 67
0
100
AcDbLine
 10
80.95670858091273
 20
297.69030116872176
 11
81.388925582549
 21
297.92132596924364
  0
LINE
  5
632
330
1F
100
AcDbEntity
  8
0
 67
0
100
AcDbLine
 10
81.388925582549
 20
297.92132596924364
 11
81.76776695296637
 21
298.2322330470336
  0
LINE
  5
633
330
1F
100
AcDbEntity
  8
0
 67
0
100
AcDbLine
 10
81.76776695296637
 20
298.2322330470336
 11
82.07867403075636
 21
298.611074417451
  0
LINE
  5
634
330
1F
100
AcDbEntity
  8
0
 67
0
100
AcDbLine
 10
82.07867403075636
 20
298.611074417451
 11
82.30969883127821
 21
299.04329141908727
  0
LINE
  5
635
330
1F
100
AcDbEntity
  8
0
 67
0
100
AcDbLine
 10
82.30969883127821
 20
299.04329141908727
 11
82.45196320100807
 21
299.5122741949597
  0
LINE
  5
636
330
1F
100
AcDbEntity
  8
0
 67
0
100
AcDbLine
 10
82.45196320100807
 20
299.5122741949597
 11
82.5
 21
300.0
  0
LINE
  5
637
330
1F
100
AcDbEntity
  8
0
 67
0
100
AcDbLine
 10
82.5
 20
300.0
 11
82.5
 21
300.0
  0
LINE
  5
638
330
1F
100
AcDbEntity
  8
0
 67
0
100
AcDbLine
 10
242.5
 20
700.0
 11
242.45196320100808
 21
700.4877258050403
  0
LINE
  5
639
330
1F
100
AcDbEntity
  8
0
 67
0
100
AcDbLine
 10
242.45196320100808
 20
700.4877258050403
 11
242.3096988312782
 21
700.9567085809127
  0
LINE
  5
63A
330
1F
100
AcDbEntity
  8
0
 67
0
100
AcDbLine
 10
242.3096988312782
 20
700.9567085809127
 11
242.07867403075636
 21
701.3889255825491
  0
LINE
  5
63B
330
1F
100
AcDbEntity
  8
0
 67
0
100
AcDbLine
 10
242.07867403075636
 20
701.3889255825491
 11
241.76776695296635
 21
701.7677669529663
  0
LINE
  5
63C
330
1F
100
AcDbEntity
  8
0
 67
0
100
AcDbLine
 10
241.76776695296635
 20
701.7677669529663
 11
241.388925582549
 21
702.0786740307564
  0
LINE
  5
63D
330
1F
100
AcDbEntity
  8
0
 67
0
100
AcDbLine
 10
241.388925582549
 20
702.0786740307564
 11
240.9567085809127
 21
702.3096988312782
  0
LINE
  5
63E
330
1F
100
AcDbEntity
  8
0
 67
0
100
AcDbLine
 10
240.9567085809127
 20
702.3096988312782
 11
240.4877258050403
 21
702.4519632010081
  0
LINE
  5
63F
330
1F
100
AcDbEntity
  8
0
 67
0
100
AcDbLine
 10
240.4877258050403
 20
702.4519632010081
 11
240.0
 21
702.5
  0
LINE
  5
640
330
1F
100
AcDbEntity
  8
0
 67
0
100
AcDbLine
 10
240.0
 20
702.5
 11
239.51227419495967
 21
702.4519632010081
  0
LINE
  5
641
330
1F
100
AcDbEntity
  8
0
 67
0
100
AcDbLine
 10
239.51227419495967
 20
702.4519632010081
 11
239.04329141908727
 21
702.3096988312782
  0
LINE
  5
642
330
1F
100
AcDbEntity
  8
0
 67
0
100
AcDbLine
 10
239.04329141908727
 20
702.3096988312782
 11
238.611074417451
 21
702.0786740307564
  0
LINE
  5
643
330
1F
100
AcDbEntity
  8
0
 67
0
100
AcDbLine
 10
238.611074417451
 20
702.0786740307564
 11
238.23223304703362
 21
701.7677669529663
  0
LINE
  5
644
330
1F
100
AcDbEntity
  8
0
 67
0
100
AcDbLine
 10
238.23223304703362
 20
701.7677669529663
 11
237.92132596924364
 21
701.388925582549
  0
LINE
  5
645
330
1F
100
AcDbEntity
  8
0
 67
0
100
AcDbLine
 10
237.92132596924364
 20
701.388925582549
 11
237.6903011687218
 21
700.9567085809127
  0
LINE
  5
646
330
1F
100
AcDbEntity
  8
0
 67
0
100
AcDbLine
 10
237.6903011687218
 20
700.9567085809127
 11
237.54803679899192
 21
700.4877258050403
  0
LINE
  5
647
330
1F
100
AcDbEntity
  8
0
 67
0
100
AcDbLine
 10
237.54803679899192
 20
700.4877258050403
 11
237.5
 21
700.0
  0
LINE
  5
648
330
1F
100
AcDbEntity
  8
0
 67
0
100
AcDbLine
 10
237.5
 20
700.0
 11
237.54803679899192
 21
699.5122741949597
  0
LINE
  5
649
330
1F
100
AcDbEntity
  8
0
 67
0
100
AcDbLine
 10
237.54803679899192
 20
699.5122741949597
 11
237.6903011687218
 21
699.0432914190873
  0
LINE
  5
64A
330
1F
100
AcDbEntity
  8
0
 67
0
100
AcDbLine
 10
237.6903011687218
 20
699.0432914190873
 11
237.92132596924364
 21
698.6110744174509
  0
LINE
  5
64B
330
1F
100
AcDbEntity
  8
0
 67
0
100
AcDbLine
 10
237.92132596924364
 20
698.6110744174509
 11
238.23223304703365
 21
698.2322330470337
  0
LINE
  5
64C
330
1F
100
AcDbEntity
  8
0
 67
0
100
AcDbLine
 10
238.23223304703365
 20
698.2322330470337
 11
238.611074417451
 21
697.9213259692436
  0
LINE
  5
64D
330
1F
100
AcDbEntity
  8
0
 67
0
100
AcDbLine
 10
238.611074417451
 20
697.9213259692436
 11
239.04329141908727
 21
697.6903011687218
  0
LINE
  5
64E
330
1F
100
AcDbEntity
  8
0
 67
0
100
AcDbLine
 10
239.04329141908727
 20
697.6903011687218
 11
239.51227419495967
 21
697.5480367989919
  0
LINE
  5
64F
330
1F
100
AcDbEntity
  8
0
 67
0
100
AcDbLine
 10
239.51227419495967
 20
697.5480367989919
 11
240.0
 21
697.5
  0
LINE
  5
650
330
1F
100
AcDbEntity
  8
0
 67
0
100
AcDbLine
 10
240.0
 20
697.5
 11
240.48772580504033
 21
697.5480367989919
  0
LINE
  5
651
330
1F
100
AcDbEntity
  8
0
 67
0
100
AcDbLine
 10
240.48772580504033
 20
697.5480367989919
 11
240.95670858091273
 21
697.6903011687218
  0
LINE
  5
652
330
1F
100
AcDbEntity
  8
0
 67
0
100
AcDbLine
 10
240.95670858091273
 20
697.6903011687218
 11
241.388925582549
 21
697.9213259692436
  0
LINE
  5
653
330
1F
100
AcDbEntity
  8
0
 67
0
100
AcDbLine
 10
241.388925582549
 20
697.9213259692436
 11
241.76776695296638
 21
698.2322330470337
  0
LINE
  5
654
330
1F
100
AcDbEntity
  8
0
 67
0
100
AcDbLine
 10
241.76776695296638
 20
698.2322330470337
 11
242.07867403075636
 21
698.611074417451
  0
LINE
  5
655
330
1F
100
AcDbEntity
  8
0
 67
0
100
AcDbLine
 10
242.07867403075636
 20
698.611074417451
 11
242.3096988312782
 21
699.0432914190873
  0
LINE
  5
656
330
1F
100
AcDbEntity
  8
0
 67
0
100
AcDbLine
 10
242.3096988312782
 20
699.0432914190873
 11
242.45196320100808
 21
699.5122741949597
  0
LINE
  5
657
330
1F
100
AcDbEntity
  8
0
 67
0
100
AcDbLine
 10
242.45196320100808
 20
699.5122741949597
 11
242.5
 21
700.0
  0
LINE
  5
658
330
1F
100
AcDbEntity
  8
0
 67
0
100
AcDbLine
 10
242.5
 20
700.0
 11
242.5
 21
700.0
  0
LINE
  5
659
330
1F
100
AcDbEntity
  8
0
 67
0
100
AcDbLine
 10
82.5
 20
700.0
 11
82.45196320100807
 21
700.4877258050403
  0
LINE
  5
65A
330
1F
100
AcDbEntity
  8
0
 67
0
100
AcDbLine
 10
82.45196320100807
 20
700.4877258050403
 11
82.30969883127821
 21
700.9567085809127
  0
LINE
  5
65B
330
1F
100
AcDbEntity
  8
0
 67
0
100
AcDbLine
 10
82.30969883127821
 20
700.9567085809127
 11
82.07867403075636
 21
701.3889255825491
  0
LINE
  5
65C
330
1F
100
AcDbEntity
  8
0
 67
0
100
AcDbLine
 10
82.07867403075636
 20
701.3889255825491
 11
81.76776695296637
 21
701.7677669529663
  0
LINE
  5
65D
330
1F
100
AcDbEntity
  8
0
 67
0
100
AcDbLine
 10
81.76776695296637
 20
701.7677669529663
 11
81.38892558254899
 21
702.0786740307564
  0
LINE
  5
65E
330
1F
100
AcDbEntity
  8
0
 67
0
100
AcDbLine
 10
81.38892558254899
 20
702.0786740307564
 11
80.95670858091272
 21
702.3096988312782
  0
LINE
  5
65F
330
1F
100
AcDbEntity
  8
0
 67
0
100
AcDbLine
 10
80.95670858091272
 20
702.3096988312782
 11
80.48772580504031
 21
702.4519632010081
  0
LINE
  5
660
330
1F
100
AcDbEntity
  8
0
 67
0
100
AcDbLine
 10
80.48772580504031
 20
702.4519632010081
 11
79.99999999999999
 21
702.5
  0
LINE
  5
661
330
1F
100
AcDbEntity
  8
0
 67
0
100
AcDbLine
 10
79.99999999999999
 20
702.5
 11
79.51227419495967
 21
702.4519632010081
  0
LINE
  5
662
330
1F
100
AcDbEntity
  8
0
 67
0
100
AcDbLine
 10
79.51227419495967
 20
702.4519632010081
 11
79.04329141908727
 21
702.3096988312782
  0
LINE
  5
663
330
1F
100
AcDbEntity
  8
0
 67
0
100
AcDbLine
 10
79.04329141908727
 20
702.3096988312782
 11
78.61107441745098
 21
702.0786740307564
  0
LINE
  5
664
330
1F
100
AcDbEntity
  8
0
 67
0
100
AcDbLine
 10
78.61107441745098
 20
702.0786740307564
 11
78.23223304703362
 21
701.7677669529663
  0
LINE
  5
665
330
1F
100
AcDbEntity
  8
0
 67
0
100
AcDbLine
 10
78.23223304703362
 20
701.7677669529663
 11
77.92132596924363
 21
701.388925582549
  0
LINE
  5
666
330
1F
100
AcDbEntity
  8
0
 67
0
100
AcDbLine
 10
77.92132596924363
 20
701.388925582549
 11
77.69030116872177
 21
700.9567085809127
  0
LINE
  5
667
330
1F
100
AcDbEntity
  8
0
 67
0
100
AcDbLine
 10
77.69030116872177
 20
700.9567085809127
 11
77.54803679899192
 21
700.4877258050403
  0
LINE
  5
668
330
1F
100
AcDbEntity
  8
0
 67
0
100
AcDbLine
 10
77.54803679899192
 20
700.4877258050403
 11
77.5
 21
700.0
  0
LINE
  5
669
330
1F
100
AcDbEntity
  8
0
 67
0
100
AcDbLine
 10
77.5
 20
700.0
 11
77.54803679899193
 21
699.5122741949597
  0
LINE
  5
66A
330
1F
100
AcDbEntity
  8
0
 67
0
100
AcDbLine
 10
77.54803679899193
 20
699.5122741949597
 11
77.69030116872179
 21
699.0432914190873
  0
LINE
  5
66B
330
1F
100
AcDbEntity
  8
0
 67
0
100
AcDbLine
 10
77.69030116872179
 20
699.0432914190873
 11
77.92132596924364
 21
698.6110744174509
  0
LINE
  5
66C
330
1F
100
AcDbEntity
  8
0
 67
0
100
AcDbLine
 10
77.92132596924364
 20
698.6110744174509
 11
78.23223304703363
 21
698.2322330470337
  0
LINE
  5
66D
330
1F
100
AcDbEntity
  8
0
 67
0
100
AcDbLine
 10
78.23223304703363
 20
698.2322330470337
 11
78.611074417451
 21
697.9213259692436
  0
LINE
  5
66E
330
1F
100
AcDbEntity
  8
0
 67
0
100
AcDbLine
 10
78.611074417451
 20
697.9213259692436
 11
79.04329141908728
 21
697.6903011687218
  0
LINE
  5
66F
330
1F
100
AcDbEntity
  8
0
 67
0
100
AcDbLine
 10
79.04329141908728
 20
697.6903011687218
 11
79.51227419495969
 21
697.5480367989919
  0
LINE
  5
670
330
1F
100
AcDbEntity
  8
0
 67
0
100
AcDbLine
 10
79.51227419495969
 20
697.5480367989919
 11
80.0
 21
697.5
  0
LINE
  5
671
330
1F
100
AcDbEntity
  8
0
 67
0
100
AcDbLine
 10
80.0
 20
697.5
 11
80.48772580504033
 21
697.5480367989919
  0
LINE
  5
672
330
1F
100
AcDbEntity
  8
0
 67
0
100
AcDbLine
 10
80.48772580504033
 20
697.5480367989919
 11
80.95670858091273
 21
697.6903011687218
  0
LINE
  5
673
330
1F
100
AcDbEntity
  8
0
 67
0
100
AcDbLine
 10
80.95670858091273
 20
697.6903011687218
 11
81.388925582549
 21
697.9213259692436
  0
LINE
  5
674
330
1F
100
AcDbEntity
  8
0
 67
0
100
AcDbLine
 10
81.388925582549
 20
697.9213259692436
 11
81.76776695296637
 21
698.2322330470337
  0
LINE
  5
675
330
1F
100
AcDbEntity
  8
0
 67
0
100
AcDbLine
 10
81.76776695296637
 20
698.2322330470337
 11
82.07867403075636
 21
698.611074417451
  0
LINE
  5
676
330
1F
100
AcDbEntity
  8
0
 67
0
100
AcDbLine
 10
82.07867403075636
 20
698.611074417451
 11
82.30969883127821
 21
699.0432914190873
  0
LINE
  5
677
330
1F
100
AcDbEntity
  8
0
 67
0
100
AcDbLine
 10
82.30969883127821
 20
699.0432914190873
 11
82.45196320100807
 21
699.5122741949597
  0
LINE
  5
678
330
1F
100
AcDbEntity
  8
0
 67
0
100
AcDbLine
 10
82.45196320100807
 20
699.5122741949597
 11
82.5
 21
700.0
  0
LINE
  5
679
330
1F
100
AcDbEntity
  8
0
 67
0
100
AcDbLine
 10
82.5
 20
700.0
 11
82.5
 21
700.0
  0
LINE
  5
67A
330
1F
100
AcDbEntity
  8
0
 67
0
100
AcDbLine
 10
90.36640625
 20
297.5
 11
92.60234375
 21
297.5
  0
LINE
  5
67B
330
1F
100
AcDbEntity
  8
0
 67
0
100
AcDbLine
 10
92.60234375
 20
297.5
 11
92.60234375
 21
297.92265625
  0
LINE
  5
67C
330
1F
100
AcDbEntity
  8
0
 67
0
100
AcDbLine
 10
92.60234375
 20
297.92265625
 11
90.83984375
 21
297.92265625
  0
LINE
  5
67D
330
1F
100
AcDbEntity
  8
0
 67
0
100
AcDbLine
 10
90.83984375
 20
297.92265625
 11
90.83984375
 21
301.07890625
  0
LINE
  5
67E
330
1F
100
AcDbEntity
  8
0
 67
0
100
AcDbLine
 10
90.83984375
 20
301.07890625
 11
90.36640625
 21
301.07890625
  0
LINE
  5
67F
330
1F
100
AcDbEntity
  8
0
 67
0
100
AcDbLine
 10
90.36640625
 20
301.07890625
 11
90.36640625
 21
297.5
  0
LINE
  5
680
330
1F
100
AcDbEntity
  8
0
 67
0
100
AcDbLine
 10
90.36640625
 20
297.5
 11
90.36640625
 21
297.5
  0
LINE
  5
681
330
1F
100
AcDbEntity
  8
0
 67
0
100
AcDbLine
 10
106.413671875
 20
297.92265625
 11
104.658203125
 21
297.92265625
  0
LINE
  5
682
330
1F
100
AcDbEntity
  8
0
 67
0
100
AcDbLine
 10
104.658203125
 20
297.92265625
 11
104.6732734375
 21
297.946546875
  0
LINE
  5
683
330
1F
100
AcDbEntity
  8
0
 67
0
100
AcDbLine
 10
104.6732734375
 20
297.946546875
 11
104.689109375
 21
297.97040625
  0
LINE
  5
684
330
1F
100
AcDbEntity
  8
0
 67
0
100
AcDbLine
 10
104.689109375
 20
297.97040625
 11
104.7057109375
 21
297.994234375
  0
LINE
  5
685
330
1F
100
AcDbEntity
  8
0
 67
0
100
AcDbLine
 10
104.7057109375
 20
297.994234375
 11
104.723078125
 21
298.01803125
  0
LINE
  5
686
330
1F
100
AcDbEntity
  8
0
 67
0
100
AcDbLine
 10
104.723078125
 20
298.01803125
 11
104.7412109375
 21
298.041796875
  0
LINE
  5
687
330
1F
100
AcDbEntity
  8
0
 67
0
100
AcDbLine
 10
104.7412109375
 20
298.041796875
 11
104.760109375
 21
298.06553125
  0
LINE
  5
688
330
1F
100
AcDbEntity
  8
0
 67
0
100
AcDbLine
 10
104.760109375
 20
298.06553125
 11
104.7797734375
 21
298.089234375
  0
LINE
  5
689
330
1F
100
AcDbEntity
  8
0
 67
0
100
AcDbLine
 10
104.7797734375
 20
298.089234375
 11
104.800203125
 21
298.11290625
  0
LINE
  5
68A
330
1F
100
AcDbEntity
  8
0
 67
0
100
AcDbLine
 10
104.800203125
 20
298.11290625
 11
104.82139843750001
 21
298.136546875
  0
LINE
  5
68B
330
1F
100
AcDbEntity
  8
0
 67
0
100
AcDbLine
 10
104.82139843750001
 20
298.136546875
 11
104.843359375
 21
298.16015625
  0
LINE
  5
68C
330
1F
100
AcDbEntity
  8
0
 67
0
100
AcDbLine
 10
104.843359375
 20
298.16015625
 11
104.8686953125
 21
298.1860390625
  0
LINE
  5
68D
330
1F
100
AcDbEntity
  8
0
 67
0
100
AcDbLine
 10
104.8686953125
 20
298.1860390625
 11
104.899703125
 21
298.2161875
  0
LINE
  5
68E
330
1F
100
AcDbEntity
  8
0
 67
0
100
AcDbLine
 10
104.899703125
 20
298.2161875
 11
104.9363828125
 21
298.2506015625
  0
LINE
  5
68F
330
1F
100
AcDbEntity
  8
0
 67
0
100
AcDbLine
 10
104.9363828125
 20
298.2506015625
 11
104.978734375
 21
298.28928125
  0
LINE
  5
690
330
1F
100
AcDbEntity
  8
0
 67
0
100
AcDbLine
 10
104.978734375
 20
298.28928125
 11
105.0267578125
 21
298.3322265625
  0
LINE
  5
691
330
1F
100
AcDbEntity
  8
0
 67
0
100
AcDbLine
 10
105.0267578125
 20
298.3322265625
 11
105.080453125
 21
298.3794375
  0
LINE
  5
692
330
1F
100
AcDbEntity
  8
0
 67
0
100
AcDbLine
 10
105.080453125
 20
298.3794375
 11
105.1398203125
 21
298.4309140625
  0
LINE
  5
693
330
1F
100
AcDbEntity
  8
0
 67
0
100
AcDbLine
 10
105.1398203125
 20
298.4309140625
 11
105.204859375
 21
298.48665625
  0
LINE
  5
694
330
1F
100
AcDbEntity
  8
0
 67
0
100
AcDbLine
 10
105.204859375
 20
298.48665625
 11
105.27557031250001
 21
298.5466640625
  0
LINE
  5
695
330
1F
100
AcDbEntity
  8
0
 67
0
100
AcDbLine
 10
105.27557031250001
 20
298.5466640625
 11
105.351953125
 21
298.6109375
  0
LINE
  5
696
330
1F
100
AcDbEntity
  8
0
 67
0
100
AcDbLine
 10
105.351953125
 20
298.6109375
 11
105.4439453125
 21
298.689234375
  0
LINE
  5
697
330
1F
100
AcDbEntity
  8
0
 67
0
100
AcDbLine
 10
105.4439453125
 20
298.689234375
 11
105.530546875
 21
298.764125
  0
LINE
  5
698
330
1F
100
AcDbEntity
  8
0
 67
0
100
AcDbLine
 10
105.530546875
 20
298.764125
 11
105.6117578125
 21
298.835609375
  0
LINE
  5
699
330
1F
100
AcDbEntity
  8
0
 67
0
100
AcDbLine
 10
105.6117578125
 20
298.835609375
 11
105.687578125
 21
298.9036875
  0
LINE
  5
69A
330
1F
100
AcDbEntity
  8
0
 67
0
100
AcDbLine
 10
105.687578125
 20
298.9036875
 11
105.7580078125
 21
298.968359375
  0
LINE
  5
69B
330
1F
100
AcDbEntity
  8
0
 67
0
100
AcDbLine
 10
105.7580078125
 20
298.968359375
 11
105.823046875
 21
299.029625
  0
LINE
  5
69C
330
1F
100
AcDbEntity
  8
0
 67
0
100
AcDbLine
 10
105.823046875
 20
299.029625
 11
105.8826953125
 21
299.087484375
  0
LINE
  5
69D
330
1F
100
AcDbEntity
  8
0
 67
0
100
AcDbLine
 10
105.8826953125
 20
299.087484375
 11
105.936953125
 21
299.1419375
  0
LINE
  5
69E
330
1F
100
AcDbEntity
  8
0
 67
0
100
AcDbLine
 10
105.936953125
 20
299.1419375
 11
105.9858203125
 21
299.192984375
  0
LINE
  5
69F
330
1F
100
AcDbEntity
  8
0
 67
0
100
AcDbLine
 10
105.9858203125
 20
299.192984375
 11
106.029296875
 21
299.240625
  0
LINE
  5
6A0
330
1F
100
AcDbEntity
  8
0
 67
0
100
AcDbLine
 10
106.029296875
 20
299.240625
 11
106.0689140625
 21
299.2863359375
  0
LINE
  5
6A1
330
1F
100
AcDbEntity
  8
0
 67
0
100
AcDbLine
 10
106.0689140625
 20
299.2863359375
 11
106.10620312500001
 21
299.33159375
  0
LINE
  5
6A2
330
1F
100
AcDbEntity
  8
0
 67
0
100
AcDbLine
 10
106.10620312500001
 20
299.33159375
 11
106.1411640625
 21
299.3763984375
  0
LINE
  5
6A3
330
1F
100
AcDbEntity
  8
0
 67
0
100
AcDbLine
 10
106.1411640625
 20
299.3763984375
 11
106.173796875
 21
299.42075
  0
LINE
  5
6A4
330
1F
100
AcDbEntity
  8
0
 67
0
100
AcDbLine
 10
106.173796875
 20
299.42075
 11
106.2041015625
 21
299.4646484375
  0
LINE
  5
6A5
330
1F
100
AcDbEntity
  8
0
 67
0
100
AcDbLine
 10
106.2041015625
 20
299.4646484375
 11
106.232078125
 21
299.50809375
  0
LINE
  5
6A6
330
1F
100
AcDbEntity
  8
0
 67
0
100
AcDbLine
 10
106.232078125
 20
299.50809375
 11
106.2577265625
 21
299.5510859375
  0
LINE
  5
6A7
330
1F
100
AcDbEntity
  8
0
 67
0
100
AcDbLine
 10
106.2577265625
 20
299.5510859375
 11
106.281046875
 21
299.593625
  0
LINE
  5
6A8
330
1F
100
AcDbEntity
  8
0
 67
0
100
AcDbLine
 10
106.281046875
 20
299.593625
 11
106.3020390625
 21
299.6357109375
  0
LINE
  5
6A9
330
1F
100
AcDbEntity
  8
0
 67
0
100
AcDbLine
 10
106.3020390625
 20
299.6357109375
 11
106.320703125
 21
299.67734375
  0
LINE
  5
6AA
330
1F
100
AcDbEntity
  8
0
 67
0
100
AcDbLine
 10
106.320703125
 20
299.67734375
 11
106.3374765625
 21
299.7189765625
  0
LINE
  5
6AB
330
1F
100
AcDbEntity
  8
0
 67
0
100
AcDbLine
 10
106.3374765625
 20
299.7189765625
 11
106.352484375
 21
299.76075
  0
LINE
  5
6AC
330
1F
100
AcDbEntity
  8
0
 67
0
100
AcDbLine
 10
106.352484375
 20
299.76075
 11
106.3657265625
 21
299.8026640625
  0
LINE
  5
6AD
330
1F
100
AcDbEntity
  8
0
 67
0
100
AcDbLine
 10
106.3657265625
 20
299.8026640625
 11
106.377203125
 21
299.84471875
  0
LINE
  5
6AE
330
1F
100
AcDbEntity
  8
0
 67
0
100
AcDbLine
 10
106.377203125
 20
299.84471875
 11
106.3869140625
 21
299.8869140625
  0
LINE
  5
6AF
330
1F
100
AcDbEntity
  8
0
 67
0
100
AcDbLine
 10
106.3869140625
 20
299.8869140625
 11
106.394859375
 21
299.92925
  0
LINE
  5
6B0
330
1F
100
AcDbEntity
  8
0
 67
0
100
AcDbLine
 10
106.394859375
 20
299.92925
 11
106.4010390625
 21
299.9717265625
  0
LINE
  5
6B1
330
1F
100
AcDbEntity
  8
0
 67
0
100
AcDbLine
 10
106.4010390625
 20
299.9717265625
 11
106.40545312500001
 21
300.01434375
  0
LINE
  5
6B2
330
1F
100
AcDbEntity
  8
0
 67
0
100
AcDbLine
 10
106.40545312500001
 20
300.01434375
 11
106.40810156250001
 21
300.0571015625
  0
LINE
  5
6B3
330
1F
100
AcDbEntity
  8
0
 67
0
100
AcDbLine
 10
106.40810156250001
 20
300.0571015625
 11
106.408984375
 21
300.1
  0
LINE
  5
6B4
330
1F
100
AcDbEntity
  8
0
 67
0
100
AcDbLine
 10
106.408984375
 20
300.1
 11
106.4059765625
 21
300.18315625
  0
LINE
  5
6B5
330
1F
100
AcDbEntity
  8
0
 67
0
100
AcDbLine
 10
106.4059765625
 20
300.18315625
 11
106.396953125
 21
300.2635625
  0
LINE
  5
6B6
330
1F
100
AcDbEntity
  8
0
 67
0
100
AcDbLine
 10
106.396953125
 20
300.2635625
 11
106.3819140625
 21
300.34121875
  0
LINE
  5
6B7
330
1F
100
AcDbEntity
  8
0
 67
0
100
AcDbLine
 10
106.3819140625
 20
300.34121875
 11
106.36085937499999
 21
300.416125
  0
LINE
  5
6B8
330
1F
100
AcDbEntity
  8
0
 67
0
100
AcDbLine
 10
106.36085937499999
 20
300.416125
 11
106.3337890625
 21
300.48828125
  0
LINE
  5
6B9
330
1F
100
AcDbEntity
  8
0
 67
0
100
AcDbLine
 10
106.3337890625
 20
300.48828125
 11
106.300703125
 21
300.5576875
  0
LINE
  5
6BA
330
1F
100
AcDbEntity
  8
0
 67
0
100
AcDbLine
 10
106.300703125
 20
300.5576875
 11
106.2616015625
 21
300.62434375
  0
LINE
  5
6BB
330
1F
100
AcDbEntity
  8
0
 67
0
100
AcDbLine
 10
106.2616015625
 20
300.62434375
 11
106.21648437500001
 21
300.68825
  0
LINE
  5
6BC
330
1F
100
AcDbEntity
  8
0
 67
0
100
AcDbLine
 10
106.21648437500001
 20
300.68825
 11
106.1653515625
 21
300.74940625
  0
LINE
  5
6BD
330
1F
100
AcDbEntity
  8
0
 67
0
100
AcDbLine
 10
106.1653515625
 20
300.74940625
 11
106.108203125
 21
300.8078125
  0
LINE
  5
6BE
330
1F
100
AcDbEntity
  8
0
 67
0
100
AcDbLine
 10
106.108203125
 20
300.8078125
 11
106.0460546875
 21
300.862140625
  0
LINE
  5
6BF
330
1F
100
AcDbEntity
  8
0
 67
0
100
AcDbLine
 10
106.0460546875
 20
300.862140625
 11
105.979609375
 21
300.91075
  0
LINE
  5
6C0
330
1F
100
AcDbEntity
  8
0
 67
0
100
AcDbLine
 10
105.979609375
 20
300.91075
 11
105.9088671875
 21
300.953640625
  0
LINE
  5
6C1
330
1F
100
AcDbEntity
  8
0
 67
0
100
AcDbLine
 10
105.9088671875
 20
300.953640625
 11
105.833828125
 21
300.9908125
  0
LINE
  5
6C2
330
1F
100
AcDbEntity
  8
0
 67
0
100
AcDbLine
 10
105.833828125
 20
300.9908125
 11
105.7544921875
 21
301.022265625
  0
LINE
  5
6C3
330
1F
100
AcDbEntity
  8
0
 67
0
100
AcDbLine
 10
105.7544921875
 20
301.022265625
 11
105.670859375
 21
301.048
  0
LINE
  5
6C4
330
1F
100
AcDbEntity
  8
0
 67
0
100
AcDbLine
 10
105.670859375
 20
301.048
 11
105.5829296875
 21
301.068015625
  0
LINE
  5
6C5
330
1F
100
AcDbEntity
  8
0
 67
0
100
AcDbLine
 10
105.5829296875
 20
301.068015625
 11
105.49070312500001
 21
301.0823125
  0
LINE
  5
6C6
330
1F
100
AcDbEntity
  8
0
 67
0
100
AcDbLine
 10
105.49070312500001
 20
301.0823125
 11
105.3941796875
 21
301.090890625
  0
LINE
  5
6C7
330
1F
100
AcDbEntity
  8
0
 67
0
100
AcDbLine
 10
105.3941796875
 20
301.090890625
 11
105.293359375
 21
301.09375
  0
LINE
  5
6C8
330
1F
100
AcDbEntity
  8
0
 67
0
100
AcDbLine
 10
105.293359375
 20
301.09375
 11
105.19325
 21
301.0911015625
  0
LINE
  5
6C9
330
1F
100
AcDbEntity
  8
0
 67
0
100
AcDbLine
 10
105.19325
 20
301.0911015625
 11
105.097296875
 21
301.08315625
  0
LINE
  5
6CA
330
1F
100
AcDbEntity
  8
0
 67
0
100
AcDbLine
 10
105.097296875
 20
301.08315625
 11
105.0055
 21
301.0699140625
  0
LINE
  5
6CB
330
1F
100
AcDbEntity
  8
0
 67
0
100
AcDbLine
 10
105.0055
 20
301.0699140625
 11
104.917859375
 21
301.051375
  0
LINE
  5
6CC
330
1F
100
AcDbEntity
  8
0
 67
0
100
AcDbLine
 10
104.917859375
 20
301.051375
 11
104.834375
 21
301.0275390625
  0
LINE
  5
6CD
330
1F
100
AcDbEntity
  8
0
 67
0
100
AcDbLine
 10
104.834375
 20
301.0275390625
 11
104.755046875
 21
300.99840625
  0
LINE
  5
6CE
330
1F
100
AcDbEntity
  8
0
 67
0
100
AcDbLine
 10
104.755046875
 20
300.99840625
 11
104.67987500000001
 21
300.9639765625
  0
LINE
  5
6CF
330
1F
100
AcDbEntity
  8
0
 67
0
100
AcDbLine
 10
104.67987500000001
 20
300.9639765625
 11
104.60885937500001
 21
300.92425000000003
  0
LINE
  5
6D0
330
1F
100
AcDbEntity
  8
0
 67
0
100
AcDbLine
 10
104.60885937500001
 20
300.92425000000003
 11
104.542
 21
300.8792265625
  0
LINE
  5
6D1
330
1F
100
AcDbEntity
  8
0
 67
0
100
AcDbLine
 10
104.542
 20
300.8792265625
 11
104.479296875
 21
300.82890625
  0
LINE
  5
6D2
330
1F
100
AcDbEntity
  8
0
 67
0
100
AcDbLine
 10
104.479296875
 20
300.82890625
 11
104.421390625
 21
300.77353125
  0
LINE
  5
6D3
330
1F
100
AcDbEntity
  8
0
 67
0
100
AcDbLine
 10
104.421390625
 20
300.77353125
 11
104.368609375
 21
300.71334375
  0
LINE
  5
6D4
330
1F
100
AcDbEntity
  8
0
 67
0
100
AcDbLine
 10
104.368609375
 20
300.71334375
 11
104.320953125
 21
300.64834375
  0
LINE
  5
6D5
330
1F
100
AcDbEntity
  8
0
 67
0
100
AcDbLine
 10
104.320953125
 20
300.64834375
 11
104.27842187499999
 21
300.57853125
  0
LINE
  5
6D6
330
1F
100
AcDbEntity
  8
0
 67
0
100
AcDbLine
 10
104.27842187499999
 20
300.57853125
 11
104.241015625
 21
300.50390625
  0
LINE
  5
6D7
330
1F
100
AcDbEntity
  8
0
 67
0
100
AcDbLine
 10
104.241015625
 20
300.50390625
 11
104.208734375
 21
300.42446875
  0
LINE
  5
6D8
330
1F
100
AcDbEntity
  8
0
 67
0
100
AcDbLine
 10
104.208734375
 20
300.42446875
 11
104.181578125
 21
300.34021875
  0
LINE
  5
6D9
330
1F
100
AcDbEntity
  8
0
 67
0
100
AcDbLine
 10
104.181578125
 20
300.34021875
 11
104.159546875
 21
300.25115625
  0
LINE
  5
6DA
330
1F
100
AcDbEntity
  8
0
 67
0
100
AcDbLine
 10
104.159546875
 20
300.25115625
 11
104.142640625
 21
300.15728125
  0
LINE
  5
6DB
330
1F
100
AcDbEntity
  8
0
 67
0
100
AcDbLine
 10
104.142640625
 20
300.15728125
 11
104.130859375
 21
300.05859375
  0
LINE
  5
6DC
330
1F
100
AcDbEntity
  8
0
 67
0
100
AcDbLine
 10
104.130859375
 20
300.05859375
 11
104.582421875
 21
300.0125
  0
LINE
  5
6DD
330
1F
100
AcDbEntity
  8
0
 67
0
100
AcDbLine
 10
104.582421875
 20
300.0125
 11
104.5847734375
 21
300.078375
  0
LINE
  5
6DE
330
1F
100
AcDbEntity
  8
0
 67
0
100
AcDbLine
 10
104.5847734375
 20
300.078375
 11
104.590890625
 21
300.1413125
  0
LINE
  5
6DF
330
1F
100
AcDbEntity
  8
0
 67
0
100
AcDbLine
 10
104.590890625
 20
300.1413125
 11
104.6007734375
 21
300.2013125
  0
LINE
  5
6E0
330
1F
100
AcDbEntity
  8
0
 67
0
100
AcDbLine
 10
104.6007734375
 20
300.2013125
 11
104.614421875
 21
300.258375
  0
LINE
  5
6E1
330
1F
100
AcDbEntity
  8
0
 67
0
100
AcDbLine
 10
104.614421875
 20
300.258375
 11
104.6318359375
 21
300.3125
  0
LINE
  5
6E2
330
1F
100
AcDbEntity
  8
0
 67
0
100
AcDbLine
 10
104.6318359375
 20
300.3125
 11
104.653015625
 21
300.3636875
  0
LINE
  5
6E3
330
1F
100
AcDbEntity
  8
0
 67
0
100
AcDbLine
 10
104.653015625
 20
300.3636875
 11
104.6779609375
 21
300.4119375
  0
LINE
  5
6E4
330
1F
100
AcDbEntity
  8
0
 67
0
100
AcDbLine
 10
104.6779609375
 20
300.4119375
 11
104.706671875
 21
300.45725
  0
LINE
  5
6E5
330
1F
100
AcDbEntity
  8
0
 67
0
100
AcDbLine
 10
104.706671875
 20
300.45725
 11
104.7391484375
 21
300.499625
  0
LINE
  5
6E6
330
1F
100
AcDbEntity
  8
0
 67
0
100
AcDbLine
 10
104.7391484375
 20
300.499625
 11
104.775390625
 21
300.5390625
  0
LINE
  5
6E7
330
1F
100
AcDbEntity
  8
0
 67
0
100
AcDbLine
 10
104.775390625
 20
300.5390625
 11
104.81478125
 21
300.57528125
  0
LINE
  5
6E8
330
1F
100
AcDbEntity
  8
0
 67
0
100
AcDbLine
 10
104.81478125
 20
300.57528125
 11
104.856703125
 21
300.6076875
  0
LINE
  5
6E9
330
1F
100
AcDbEntity
  8
0
 67
0
100
AcDbLine
 10
104.856703125
 20
300.6076875
 11
104.90115625
 21
300.63628125
  0
LINE
  5
6EA
330
1F
100
AcDbEntity
  8
0
 67
0
100
AcDbLine
 10
104.90115625
 20
300.63628125
 11
104.94814062500001
 21
300.6610625
  0
LINE
  5
6EB
330
1F
100
AcDbEntity
  8
0
 67
0
100
AcDbLine
 10
104.94814062500001
 20
300.6610625
 11
104.99765625
 21
300.68203125
  0
LINE
  5
6EC
330
1F
100
AcDbEntity
  8
0
 67
0
100
AcDbLine
 10
104.99765625
 20
300.68203125
 11
105.04970312500001
 21
300.6991875
  0
LINE
  5
6ED
330
1F
100
AcDbEntity
  8
0
 67
0
100
AcDbLine
 10
105.04970312500001
 20
300.6991875
 11
105.10428125
 21
300.71253125
  0
LINE
  5
6EE
330
1F
100
AcDbEntity
  8
0
 67
0
100
AcDbLine
 10
105.10428125
 20
300.71253125
 11
105.161390625
 21
300.7220625
  0
LINE
  5
6EF
330
1F
100
AcDbEntity
  8
0
 67
0
100
AcDbLine
 10
105.161390625
 20
300.7220625
 11
105.22103125
 21
300.72778125
  0
LINE
  5
6F0
330
1F
100
AcDbEntity
  8
0
 67
0
100
AcDbLine
 10
105.22103125
 20
300.72778125
 11
105.283203125
 21
300.7296875
  0
LINE
  5
6F1
330
1F
100
AcDbEntity
  8
0
 67
0
100
AcDbLine
 10
105.283203125
 20
300.7296875
 11
105.3420703125
 21
300.727890625
  0
LINE
  5
6F2
330
1F
100
AcDbEntity
  8
0
 67
0
100
AcDbLine
 10
105.3420703125
 20
300.727890625
 11
105.398671875
 21
300.7225
  0
LINE
  5
6F3
330
1F
100
AcDbEntity
  8
0
 67
0
100
AcDbLine
 10
105.398671875
 20
300.7225
 11
105.4530078125
 21
300.713515625
  0
LINE
  5
6F4
330
1F
100
AcDbEntity
  8
0
 67
0
100
AcDbLine
 10
105.4530078125
 20
300.713515625
 11
105.505078125
 21
300.7009375
  0
LINE
  5
6F5
330
1F
100
AcDbEntity
  8
0
 67
0
100
AcDbLine
 10
105.505078125
 20
300.7009375
 11
105.5548828125
 21
300.684765625
  0
LINE
  5
6F6
330
1F
100
AcDbEntity
  8
0
 67
0
100
AcDbLine
 10
105.5548828125
 20
300.684765625
 11
105.602421875
 21
300.665
  0
LINE
  5
6F7
330
1F
100
AcDbEntity
  8
0
 67
0
100
AcDbLine
 10
105.602421875
 20
300.665
 11
105.6476953125
 21
300.641640625
  0
LINE
  5
6F8
330
1F
100
AcDbEntity
  8
0
 67
0
100
AcDbLine
 10
105.6476953125
 20
300.641640625
 11
105.690703125
 21
300.6146875
  0
LINE
  5
6F9
330
1F
100
AcDbEntity
  8
0
 67
0
100
AcDbLine
 10
105.690703125
 20
300.6146875
 11
105.7314453125
 21
300.584140625
  0
LINE
  5
6FA
330
1F
100
AcDbEntity
  8
0
 67
0
100
AcDbLine
 10
105.7314453125
 20
300.584140625
 11
105.769921875
 21
300.55
  0
LINE
  5
6FB
330
1F
100
AcDbEntity
  8
0
 67
0
100
AcDbLine
 10
105.769921875
 20
300.55
 11
105.805546875
 21
300.5133984375
  0
LINE
  5
6FC
330
1F
100
AcDbEntity
  8
0
 67
0
100
AcDbLine
 10
105.805546875
 20
300.5133984375
 11
105.837421875
 21
300.47515625
  0
LINE
  5
6FD
330
1F
100
AcDbEntity
  8
0
 67
0
100
AcDbLine
 10
105.837421875
 20
300.47515625
 11
105.865546875
 21
300.4352734375
  0
LINE
  5
6FE
330
1F
100
AcDbEntity
  8
0
 67
0
100
AcDbLine
 10
105.865546875
 20
300.4352734375
 11
105.889921875
 21
300.39375
  0
LINE
  5
6FF
330
1F
100
AcDbEntity
  8
0
 67
0
100
AcDbLine
 10
105.889921875
 20
300.39375
 11
105.910546875
 21
300.3505859375
  0
LINE
  5
700
330
1F
100
AcDbEntity
  8
0
 67
0
100
AcDbLine
 10
105.910546875
 20
300.3505859375
 11
105.92742187500001
 21
300.30578125
  0
LINE
  5
701
330
1F
100
AcDbEntity
  8
0
 67
0
100
AcDbLine
 10
105.92742187500001
 20
300.30578125
 11
105.940546875
 21
300.2593359375
  0
LINE
  5
702
330
1F
100
AcDbEntity
  8
0
 67
0
100
AcDbLine
 10
105.940546875
 20
300.2593359375
 11
105.949921875
 21
300.21125
  0
LINE
  5
703
330
1F
100
AcDbEntity
  8
0
 67
0
100
AcDbLine
 10
105.949921875
 20
300.21125
 11
105.95554687500001
 21
300.1615234375
  0
LINE
  5
704
330
1F
100
AcDbEntity
  8
0
 67
0
100
AcDbLine
 10
105.95554687500001
 20
300.1615234375
 11
105.957421875
 21
300.11015625
  0
LINE
  5
705
330
1F
100
AcDbEntity
  8
0
 67
0
100
AcDbLine
 10
105.957421875
 20
300.11015625
 11
105.9553671875
 21
300.0600078125
  0
LINE
  5
706
330
1F
100
AcDbEntity
  8
0
 67
0
100
AcDbLine
 10
105.9553671875
 20
300.0600078125
 11
105.949203125
 21
300.00925
  0
LINE
  5
707
330
1F
100
AcDbEntity
  8
0
 67
0
100
AcDbLine
 10
105.949203125
 20
300.00925
 11
105.9389296875
 21
299.9578828125
  0
LINE
  5
708
330
1F
100
AcDbEntity
  8
0
 67
0
100
AcDbLine
 10
105.9389296875
 20
299.9578828125
 11
105.924546875
 21
299.90590625
  0
LINE
  5
709
330
1F
100
AcDbEntity
  8
0
 67
0
100
AcDbLine
 10
105.924546875
 20
299.90590625
 11
105.9060546875
 21
299.8533203125
  0
LINE
  5
70A
330
1F
100
AcDbEntity
  8
0
 67
0
100
AcDbLine
 10
105.9060546875
 20
299.8533203125
 11
105.883453125
 21
299.800125
  0
LINE
  5
70B
330
1F
100
AcDbEntity
  8
0
 67
0
100
AcDbLine
 10
105.883453125
 20
299.800125
 11
105.8567421875
 21
299.7463203125
  0
LINE
  5
70C
330
1F
100
AcDbEntity
  8
0
 67
0
100
AcDbLine
 10
105.8567421875
 20
299.7463203125
 11
105.825921875
 21
299.69190625
  0
LINE
  5
70D
330
1F
100
AcDbEntity
  8
0
 67
0
100
AcDbLine
 10
105.825921875
 20
299.69190625
 11
105.7909921875
 21
299.6368828125
  0
LINE
  5
70E
330
1F
100
AcDbEntity
  8
0
 67
0
100
AcDbLine
 10
105.7909921875
 20
299.6368828125
 11
105.751953125
 21
299.58125
  0
LINE
  5
70F
330
1F
100
AcDbEntity
  8
0
 67
0
100
AcDbLine
 10
105.751953125
 20
299.58125
 11
105.7072265625
 21
299.523328125
  0
LINE
  5
710
330
1F
100
AcDbEntity
  8
0
 67
0
100
AcDbLine
 10
105.7072265625
 20
299.523328125
 11
105.654921875
 21
299.4614375
  0
LINE
  5
711
330
1F
100
AcDbEntity
  8
0
 67
0
100
AcDbLine
 10
105.654921875
 20
299.4614375
 11
105.5950390625
 21
299.395578125
  0
LINE
  5
712
330
1F
100
AcDbEntity
  8
0
 67
0
100
AcDbLine
 10
105.5950390625
 20
299.395578125
 11
105.527578125
 21
299.32575
  0
LINE
  5
713
330
1F
100
AcDbEntity
  8
0
 67
0
100
AcDbLine
 10
105.527578125
 20
299.32575
 11
105.4525390625
 21
299.251953125
  0
LINE
  5
714
330
1F
100
AcDbEntity
  8
0
 67
0
100
AcDbLine
 10
105.4525390625
 20
299.251953125
 11
105.369921875
 21
299.1741875
  0
LINE
  5
715
330
1F
100
AcDbEntity
  8
0
 67
0
100
AcDbLine
 10
105.369921875
 20
299.1741875
 11
105.2797265625
 21
299.092453125
  0
LINE
  5
716
330
1F
100
AcDbEntity
  8
0
 67
0
100
AcDbLine
 10
105.2797265625
 20
299.092453125
 11
105.181953125
 21
299.00675
  0
LINE
  5
717
330
1F
100
AcDbEntity
  8
0
 67
0
100
AcDbLine
 10
105.181953125
 20
299.00675
 11
105.0766015625
 21
298.917078125
  0
LINE
  5
718
330
1F
100
AcDbEntity
  8
0
 67
0
100
AcDbLine
 10
105.0766015625
 20
298.917078125
 11
104.963671875
 21
298.8234375
  0
LINE
  5
719
330
1F
100
AcDbEntity
  8
0
 67
0
100
AcDbLine
 10
104.963671875
 20
298.8234375
 11
104.8901328125
 21
298.762609375
  0
LINE
  5
71A
330
1F
100
AcDbEntity
  8
0
 67
0
100
AcDbLine
 10
104.8901328125
 20
298.762609375
 11
104.820140625
 21
298.70325
  0
LINE
  5
71B
330
1F
100
AcDbEntity
  8
0
 67
0
100
AcDbLine
 10
104.820140625
 20
298.70325
 11
104.7536953125
 21
298.645359375
  0
LINE
  5
71C
330
1F
100
AcDbEntity
  8
0
 67
0
100
AcDbLine
 10
104.7536953125
 20
298.645359375
 11
104.690796875
 21
298.5889375
  0
LINE
  5
71D
330
1F
100
AcDbEntity
  8
0
 67
0
100
AcDbLine
 10
104.690796875
 20
298.5889375
 11
104.6314453125
 21
298.533984375
  0
LINE
  5
71E
330
1F
100
AcDbEntity
  8
0
 67
0
100
AcDbLine
 10
104.6314453125
 20
298.533984375
 11
104.575640625
 21
298.4805
  0
LINE
  5
71F
330
1F
100
AcDbEntity
  8
0
 67
0
100
AcDbLine
 10
104.575640625
 20
298.4805
 11
104.5233828125
 21
298.428484375
  0
LINE
  5
720
330
1F
100
AcDbEntity
  8
0
 67
0
100
AcDbLine
 10
104.5233828125
 20
298.428484375
 11
104.474671875
 21
298.3779375
  0
LINE
  5
721
330
1F
100
AcDbEntity
  8
0
 67
0
100
AcDbLine
 10
104.474671875
 20
298.3779375
 11
104.4295078125
 21
298.328859375
  0
LINE
  5
722
330
1F
100
AcDbEntity
  8
0
 67
0
100
AcDbLine
 10
104.4295078125
 20
298.328859375
 11
104.387890625
 21
298.28125
  0
LINE
  5
723
330
1F
100
AcDbEntity
  8
0
 67
0
100
AcDbLine
 10
104.387890625
 20
298.28125
 11
104.34928125
 21
298.2343046875
  0
LINE
  5
724
330
1F
100
AcDbEntity
  8
0
 67
0
100
AcDbLine
 10
104.34928125
 20
298.2343046875
 11
104.312828125
 21
298.18721875
  0
LINE
  5
725
330
1F
100
AcDbEntity
  8
0
 67
0
100
AcDbLine
 10
104.312828125
 20
298.18721875
 11
104.27853125
 21
298.1399921875
  0
LINE
  5
726
330
1F
100
AcDbEntity
  8
0
 67
0
100
AcDbLine
 10
104.27853125
 20
298.1399921875
 11
104.246390625
 21
298.092625
  0
LINE
  5
727
330
1F
100
AcDbEntity
  8
0
 67
0
100
AcDbLine
 10
104.246390625
 20
298.092625
 11
104.21640625
 21
298.0451171875
  0
LINE
  5
728
330
1F
100
AcDbEntity
  8
0
 67
0
100
AcDbLine
 10
104.21640625
 20
298.0451171875
 11
104.18857812499999
 21
297.99746875
  0
LINE
  5
729
330
1F
100
AcDbEntity
  8
0
 67
0
100
AcDbLine
 10
104.18857812499999
 20
297.99746875
 11
104.16290625
 21
297.9496796875
  0
LINE
  5
72A
330
1F
100
AcDbEntity
  8
0
 67
0
100
AcDbLine
 10
104.16290625
 20
297.9496796875
 11
104.139390625
 21
297.90175
  0
LINE
  5
72B
330
1F
100
AcDbEntity
  8
0
 67
0
100
AcDbLine
 10
104.139390625
 20
297.90175
 11
104.11803125
 21
297.8536796875
  0
LINE
  5
72C
330
1F
100
AcDbEntity
  8
0
 67
0
100
AcDbLine
 10
104.11803125
 20
297.8536796875
 11
104.098828125
 21
297.80546875
  0
LINE
  5
72D
330
1F
100
AcDbEntity
  8
0
 67
0
100
AcDbLine
 10
104.098828125
 20
297.80546875
 11
104.0883359375
 21
297.7759765625
  0
LINE
  5
72E
330
1F
100
AcDbEntity
  8
0
 67
0
100
AcDbLine
 10
104.0883359375
 20
297.7759765625
 11
104.079046875
 21
297.74625
  0
LINE
  5
72F
330
1F
100
AcDbEntity
  8
0
 67
0
100
AcDbLine
 10
104.079046875
 20
297.74625
 11
104.0709609375
 21
297.7162890625
  0
LINE
  5
730
330
1F
100
AcDbEntity
  8
0
 67
0
100
AcDbLine
 10
104.0709609375
 20
297.7162890625
 11
104.06407812500001
 21
297.68609375
  0
LINE
  5
731
330
1F
100
AcDbEntity
  8
0
 67
0
100
AcDbLine
 10
104.06407812500001
 20
297.68609375
 11
104.0583984375
 21
297.6556640625
  0
LINE
  5
732
330
1F
100
AcDbEntity
  8
0
 67
0
100
AcDbLine
 10
104.0583984375
 20
297.6556640625
 11
104.053921875
 21
297.625
  0
LINE
  5
733
330
1F
100
AcDbEntity
  8
0
 67
0
100
AcDbLine
 10
104.053921875
 20
297.625
 11
104.0506484375
 21
297.5941015625
  0
LINE
  5
734
330
1F
100
AcDbEntity
  8
0
 67
0
100
AcDbLine
 10
104.0506484375
 20
297.5941015625
 11
104.048578125
 21
297.56296875
  0
LINE
  5
735
330
1F
100
AcDbEntity
  8
0
 67
0
100
AcDbLine
 10
104.048578125
 20
297.56296875
 11
104.0477109375
 21
297.5316015625
  0
LINE
  5
736
330
1F
100
AcDbEntity
  8
0
 67
0
100
AcDbLine
 10
104.0477109375
 20
297.5316015625
 11
104.048046875
 21
297.5
  0
LINE
  5
737
330
1F
100
AcDbEntity
  8
0
 67
0
100
AcDbLine
 10
104.048046875
 20
297.5
 11
106.413671875
 21
297.5
  0
LINE
  5
738
330
1F
100
AcDbEntity
  8
0
 67
0
100
AcDbLine
 10
106.413671875
 20
297.5
 11
106.413671875
 21
297.92265625
  0
LINE
  5
739
330
1F
100
AcDbEntity
  8
0
 67
0
100
AcDbLine
 10
106.413671875
 20
297.92265625
 11
106.413671875
 21
297.92265625
  0
LINE
  5
73A
330
1F
100
AcDbEntity
  8
0
 67
0
100
AcDbLine
 10
101.16728515625
 20
297.5
 11
101.60634765625
 21
297.5
  0
LINE
  5
73B
330
1F
100
AcDbEntity
  8
0
 67
0
100
AcDbLine
 10
101.60634765625
 20
297.5
 11
101.60634765625
 21
298.8578125
  0
LINE
  5
73C
330
1F
100
AcDbEntity
  8
0
 67
0
100
AcDbLine
 10
101.60634765625
 20
298.8578125
 11
101.60708203125
 21
298.913
  0
LINE
  5
73D
330
1F
100
AcDbEntity
  8
0
 67
0
100
AcDbLine
 10
101.60708203125
 20
298.913
 11
101.60928515625
 21
298.9673125
  0
LINE
  5
73E
330
1F
100
AcDbEntity
  8
0
 67
0
100
AcDbLine
 10
101.60928515625
 20
298.9673125
 11
101.61295703125
 21
299.02075
  0
LINE
  5
73F
330
1F
100
AcDbEntity
  8
0
 67
0
100
AcDbLine
 10
101.61295703125
 20
299.02075
 11
101.61809765625
 21
299.0733125
  0
LINE
  5
740
330
1F
100
AcDbEntity
  8
0
 67
0
100
AcDbLine
 10
101.61809765625
 20
299.0733125
 11
101.62470703125
 21
299.125
  0
LINE
  5
741
330
1F
100
AcDbEntity
  8
0
 67
0
100
AcDbLine
 10
101.62470703125
 20
299.125
 11
101.63278515625001
 21
299.1758125
  0
LINE
  5
742
330
1F
100
AcDbEntity
  8
0
 67
0
100
AcDbLine
 10
101.63278515625001
 20
299.1758125
 11
101.64233203124999
 21
299.22575
  0
LINE
  5
743
330
1F
100
AcDbEntity
  8
0
 67
0
100
AcDbLine
 10
101.64233203124999
 20
299.22575
 11
101.65334765625
 21
299.2748125
  0
LINE
  5
744
330
1F
100
AcDbEntity
  8
0
 67
0
100
AcDbLine
 10
101.65334765625
 20
299.2748125
 11
101.66583203125
 21
299.323
  0
LINE
  5
745
330
1F
100
AcDbEntity
  8
0
 67
0
100
AcDbLine
 10
101.66583203125
 20
299.323
 11
101.67978515625
 21
299.3703125
  0
LINE
  5
746
330
1F
100
AcDbEntity
  8
0
 67
0
100
AcDbLine
 10
101.67978515625
 20
299.3703125
 11
101.69013671875
 21
299.400421875
  0
LINE
  5
747
330
1F
100
AcDbEntity
  8
0
 67
0
100
AcDbLine
 10
101.69013671875
 20
299.400421875
 11
101.70181640625
 21
299.4291875
  0
LINE
  5
748
330
1F
100
AcDbEntity
  8
0
 67
0
100
AcDbLine
 10
101.70181640625
 20
299.4291875
 11
101.71482421875
 21
299.456609375
  0
LINE
  5
749
330
1F
100
AcDbEntity
  8
0
 67
0
100
AcDbLine
 10
101.71482421875
 20
299.456609375
 11
101.72916015625
 21
299.4826875
  0
LINE
  5
74A
330
1F
100
AcDbEntity
  8
0
 67
0
100
AcDbLine
 10
101.72916015625
 20
299.4826875
 11
101.74482421875
 21
299.507421875
  0
LINE
  5
74B
330
1F
100
AcDbEntity
  8
0
 67
0
100
AcDbLine
 10
101.74482421875
 20
299.507421875
 11
101.76181640625
 21
299.5308125
  0
LINE
  5
74C
330
1F
100
AcDbEntity
  8
0
 67
0
100
AcDbLine
 10
101.76181640625
 20
299.5308125
 11
101.78013671875
 21
299.552859375
  0
LINE
  5
74D
330
1F
100
AcDbEntity
  8
0
 67
0
100
AcDbLine
 10
101.78013671875
 20
299.552859375
 11
101.79978515625001
 21
299.5735625
  0
LINE
  5
74E
330
1F
100
AcDbEntity
  8
0
 67
0
100
AcDbLine
 10
101.79978515625001
 20
299.5735625
 11
101.82076171875
 21
299.592921875
  0
LINE
  5
74F
330
1F
100
AcDbEntity
  8
0
 67
0
100
AcDbLine
 10
101.82076171875
 20
299.592921875
 11
101.84306640625
 21
299.6109375
  0
LINE
  5
750
330
1F
100
AcDbEntity
  8
0
 67
0
100
AcDbLine
 10
101.84306640625
 20
299.6109375
 11
101.86633203125
 21
299.6274140625
  0
LINE
  5
751
330
1F
100
AcDbEntity
  8
0
 67
0
100
AcDbLine
 10
101.86633203125
 20
299.6274140625
 11
101.89019140625
 21
299.64215625
  0
LINE
  5
752
330
1F
100
AcDbEntity
  8
0
 67
0
100
AcDbLine
 10
101.89019140625
 20
299.64215625
 11
101.91464453125
 21
299.6551640625
  0
LINE
  5
753
330
1F
100
AcDbEntity
  8
0
 67
0
100
AcDbLine
 10
101.91464453125
 20
299.6551640625
 11
101.93969140625
 21
299.6664375
  0
LINE
  5
754
330
1F
100
AcDbEntity
  8
0
 67
0
100
AcDbLine
 10
101.93969140625
 20
299.6664375
 11
101.96533203125
 21
299.6759765625
  0
LINE
  5
755
330
1F
100
AcDbEntity
  8
0
 67
0
100
AcDbLine
 10
101.96533203125
 20
299.6759765625
 11
101.99156640625
 21
299.68378125
  0
LINE
  5
756
330
1F
100
AcDbEntity
  8
0
 67
0
100
AcDbLine
 10
101.99156640625
 20
299.68378125
 11
102.01839453125
 21
299.6898515625
  0
LINE
  5
757
330
1F
100
AcDbEntity
  8
0
 67
0
100
AcDbLine
 10
102.01839453125
 20
299.6898515625
 11
102.04581640625
 21
299.6941875
  0
LINE
  5
758
330
1F
100
AcDbEntity
  8
0
 67
0
100
AcDbLine
 10
102.04581640625
 20
299.6941875
 11
102.07383203125
 21
299.6967890625
  0
LINE
  5
759
330
1F
100
AcDbEntity
  8
0
 67
0
100
AcDbLine
 10
102.07383203125
 20
299.6967890625
 11
102.10244140625
 21
299.69765625
  0
LINE
  5
75A
330
1F
100
AcDbEntity
  8
0
 67
0
100
AcDbLine
 10
102.10244140625
 20
299.69765625
 11
102.13462890625
 21
299.696703125
  0
LINE
  5
75B
330
1F
100
AcDbEntity
  8
0
 67
0
100
AcDbLine
 10
102.13462890625
 20
299.696703125
 11
102.16681640625
 21
299.69384375
  0
LINE
  5
75C
330
1F
100
AcDbEntity
  8
0
 67
0
100
AcDbLine
 10
102.16681640625
 20
299.69384375
 11
102.19900390625
 21
299.689078125
  0
LINE
  5
75D
330
1F
100
AcDbEntity
  8
0
 67
0
100
AcDbLine
 10
102.19900390625
 20
299.689078125
 11
102.23119140625
 21
299.68240625
  0
LINE
  5
75E
330
1F
100
AcDbEntity
  8
0
 67
0
100
AcDbLine
 10
102.23119140625
 20
299.68240625
 11
102.26337890625
 21
299.673828125
  0
LINE
  5
75F
330
1F
100
AcDbEntity
  8
0
 67
0
100
AcDbLine
 10
102.26337890625
 20
299.673828125
 11
102.29556640625
 21
299.66334375
  0
LINE
  5
760
330
1F
100
AcDbEntity
  8
0
 67
0
100
AcDbLine
 10
102.29556640625
 20
299.66334375
 11
102.32775390625
 21
299.650953125
  0
LINE
  5
761
330
1F
100
AcDbEntity
  8
0
 67
0
100
AcDbLine
 10
102.32775390625
 20
299.650953125
 11
102.35994140625
 21
299.63665625
  0
LINE
  5
762
330
1F
100
AcDbEntity
  8
0
 67
0
100
AcDbLine
 10
102.35994140625
 20
299.63665625
 11
102.39212890625001
 21
299.620453125
  0
LINE
  5
763
330
1F
100
AcDbEntity
  8
0
 67
0
100
AcDbLine
 10
102.39212890625001
 20
299.620453125
 11
102.42431640625
 21
299.60234375
  0
LINE
  5
764
330
1F
100
AcDbEntity
  8
0
 67
0
100
AcDbLine
 10
102.42431640625
 20
299.60234375
 11
102.57587890625
 21
300.01015625
  0
LINE
  5
765
330
1F
100
AcDbEntity
  8
0
 67
0
100
AcDbLine
 10
102.57587890625
 20
300.01015625
 11
102.53001953125
 21
300.0370234375
  0
LINE
  5
766
330
1F
100
AcDbEntity
  8
0
 67
0
100
AcDbLine
 10
102.53001953125
 20
300.0370234375
 11
102.48431640625
 21
300.0610625
  0
LINE
  5
767
330
1F
100
AcDbEntity
  8
0
 67
0
100
AcDbLine
 10
102.48431640625
 20
300.0610625
 11
102.43876953125
 21
300.0822734375
  0
LINE
  5
768
330
1F
100
AcDbEntity
  8
0
 67
0
100
AcDbLine
 10
102.43876953125
 20
300.0822734375
 11
102.39337890625
 21
300.10065625
  0
LINE
  5
769
330
1F
100
AcDbEntity
  8
0
 67
0
100
AcDbLine
 10
102.39337890625
 20
300.10065625
 11
102.34814453125
 21
300.1162109375
  0
LINE
  5
76A
330
1F
100
AcDbEntity
  8
0
 67
0
100
AcDbLine
 10
102.34814453125
 20
300.1162109375
 11
102.30306640625
 21
300.1289375
  0
LINE
  5
76B
330
1F
100
AcDbEntity
  8
0
 67
0
100
AcDbLine
 10
102.30306640625
 20
300.1289375
 11
102.25814453125
 21
300.1388359375
  0
LINE
  5
76C
330
1F
100
AcDbEntity
  8
0
 67
0
100
AcDbLine
 10
102.25814453125
 20
300.1388359375
 11
102.21337890625
 21
300.14590625
  0
LINE
  5
76D
330
1F
100
AcDbEntity
  8
0
 67
0
100
AcDbLine
 10
102.21337890625
 20
300.14590625
 11
102.16876953125
 21
300.1501484375
  0
LINE
  5
76E
330
1F
100
AcDbEntity
  8
0
 67
0
100
AcDbLine
 10
102.16876953125
 20
300.1501484375
 11
102.12431640625
 21
300.1515625
  0
LINE
  5
76F
330
1F
100
AcDbEntity
  8
0
 67
0
100
AcDbLine
 10
102.12431640625
 20
300.1515625
 11
102.09379296875
 21
300.1506796875
  0
LINE
  5
770
330
1F
100
AcDbEntity
  8
0
 67
0
100
AcDbLine
 10
102.09379296875
 20
300.1506796875
 11
102.06378515625
 21
300.14803125
  0
LINE
  5
771
330
1F
100
AcDbEntity
  8
0
 67
0
100
AcDbLine
 10
102.06378515625
 20
300.14803125
 11
102.03429296875001
 21
300.1436171875
  0
LINE
  5
772
330
1F
100
AcDbEntity
  8
0
 67
0
100
AcDbLine
 10
102.03429296875001
 20
300.1436171875
 11
102.00531640625
 21
300.1374375
  0
LINE
  5
773
330
1F
100
AcDbEntity
  8
0
 67
0
100
AcDbLine
 10
102.00531640625
 20
300.1374375
 11
101.97685546875
 21
300.1294921875
  0
LINE
  5
774
330
1F
100
AcDbEntity
  8
0
 67
0
100
AcDbLine
 10
101.97685546875
 20
300.1294921875
 11
101.94891015625001
 21
300.11978125
  0
LINE
  5
775
330
1F
100
AcDbEntity
  8
0
 67
0
100
AcDbLine
 10
101.94891015625001
 20
300.11978125
 11
101.92148046875
 21
300.1083046875
  0
LINE
  5
776
330
1F
100
AcDbEntity
  8
0
 67
0
100
AcDbLine
 10
101.92148046875
 20
300.1083046875
 11
101.89456640625001
 21
300.0950625
  0
LINE
  5
777
330
1F
100
AcDbEntity
  8
0
 67
0
100
AcDbLine
 10
101.89456640625001
 20
300.0950625
 11
101.86816796875
 21
300.0800546875
  0
LINE
  5
778
330
1F
100
AcDbEntity
  8
0
 67
0
100
AcDbLine
 10
101.86816796875
 20
300.0800546875
 11
101.84228515625
 21
300.06328125
  0
LINE
  5
779
330
1F
100
AcDbEntity
  8
0
 67
0
100
AcDbLine
 10
101.84228515625
 20
300.06328125
 11
101.81642578125
 21
300.0438984375
  0
LINE
  5
77A
330
1F
100
AcDbEntity
  8
0
 67
0
100
AcDbLine
 10
101.81642578125
 20
300.0438984375
 11
101.79009765625
 21
300.02075
  0
LINE
  5
77B
330
1F
100
AcDbEntity
  8
0
 67
0
100
AcDbLine
 10
101.79009765625
 20
300.02075
 11
101.76330078125
 21
299.9938359375
  0
LINE
  5
77C
330
1F
100
AcDbEntity
  8
0
 67
0
100
AcDbLine
 10
101.76330078125
 20
299.9938359375
 11
101.73603515625
 21
299.96315625
  0
LINE
  5
77D
330
1F
100
AcDbEntity
  8
0
 67
0
100
AcDbLine
 10
101.73603515625
 20
299.96315625
 11
101.70830078125
 21
299.9287109375
  0
LINE
  5
77E
330
1F
100
AcDbEntity
  8
0
 67
0
100
AcDbLine
 10
101.70830078125
 20
299.9287109375
 11
101.68009765625
 21
299.8905
  0
LINE
  5
77F
330
1F
100
AcDbEntity
  8
0
 67
0
100
AcDbLine
 10
101.68009765625
 20
299.8905
 11
101.65142578125
 21
299.8485234375
  0
LINE
  5
780
330
1F
100
AcDbEntity
  8
0
 67
0
100
AcDbLine
 10
101.65142578125
 20
299.8485234375
 11
101.62228515625
 21
299.80278125
  0
LINE
  5
781
330
1F
100
AcDbEntity
  8
0
 67
0
100
AcDbLine
 10
101.62228515625
 20
299.80278125
 11
101.59267578125
 21
299.7532734375
  0
LINE
  5
782
330
1F
100
AcDbEntity
  8
0
 67
0
100
AcDbLine
 10
101.59267578125
 20
299.7532734375
 11
101.56259765625
 21
299.7
  0
LINE
  5
783
330
1F
100
AcDbEntity
  8
0
 67
0
100
AcDbLine
 10
101.56259765625
 20
299.7
 11
101.56259765625
 21
300.09296875
  0
LINE
  5
784
330
1F
100
AcDbEntity
  8
0
 67
0
100
AcDbLine
 10
101.56259765625
 20
300.09296875
 11
101.16728515625
 21
300.09296875
  0
LINE
  5
785
330
1F
100
AcDbEntity
  8
0
 67
0
100
AcDbLine
 10
101.16728515625
 20
300.09296875
 11
101.16728515625
 21
297.5
  0
LINE
  5
786
330
1F
100
AcDbEntity
  8
0
 67
0
100
AcDbLine
 10
101.16728515625
 20
297.5
 11
101.16728515625
 21
297.5
  0
LINE
  5
787
330
1F
100
AcDbEntity
  8
0
 67
0
100
AcDbLine
 10
100.1662109375
 20
298.33515625
 11
100.1455
 21
298.2810390625
  0
LINE
  5
788
330
1F
100
AcDbEntity
  8
0
 67
0
100
AcDbLine
 10
100.1455
 20
298.2810390625
 11
100.12336718750001
 21
298.2299375
  0
LINE
  5
789
330
1F
100
AcDbEntity
  8
0
 67
0
100
AcDbLine
 10
100.12336718750001
 20
298.2299375
 11
100.0998125
 21
298.1818515625
  0
LINE
  5
78A
330
1F
100
AcDbEntity
  8
0
 67
0
100
AcDbLine
 10
100.0998125
 20
298.1818515625
 11
100.0748359375
 21
298.13678125
  0
LINE
  5
78B
330
1F
100
AcDbEntity
  8
0
 67
0
100
AcDbLine
 10
100.0748359375
 20
298.13678125
 11
100.0484375
 21
298.0947265625
  0
LINE
  5
78C
330
1F
100
AcDbEntity
  8
0
 67
0
100
AcDbLine
 10
100.0484375
 20
298.0947265625
 11
100.0206171875
 21
298.0556875
  0
LINE
  5
78D
330
1F
100
AcDbEntity
  8
0
 67
0
100
AcDbLine
 10
100.0206171875
 20
298.0556875
 11
99.991375
 21
298.0196640625
  0
LINE
  5
78E
330
1F
100
AcDbEntity
  8
0
 67
0
100
AcDbLine
 10
99.991375
 20
298.0196640625
 11
99.9607109375
 21
297.98665625
  0
LINE
  5
78F
330
1F
100
AcDbEntity
  8
0
 67
0
100
AcDbLine
 10
99.9607109375
 20
297.98665625
 11
99.928625
 21
297.9566640625
  0
LINE
  5
790
330
1F
100
AcDbEntity
  8
0
 67
0
100
AcDbLine
 10
99.928625
 20
297.9566640625
 11
99.8951171875
 21
297.9296875
  0
LINE
  5
791
330
1F
100
AcDbEntity
  8
0
 67
0
100
AcDbLine
 10
99.8951171875
 20
297.9296875
 11
99.8601953125
 21
297.905640625
  0
LINE
  5
792
330
1F
100
AcDbEntity
  8
0
 67
0
100
AcDbLine
 10
99.8601953125
 20
297.905640625
 11
99.8238671875
 21
297.884125
  0
LINE
  5
793
330
1F
100
AcDbEntity
  8
0
 67
0
100
AcDbLine
 10
99.8238671875
 20
297.884125
 11
99.7861328125
 21
297.865140625
  0
LINE
  5
794
330
1F
100
AcDbEntity
  8
0
 67
0
100
AcDbLine
 10
99.7861328125
 20
297.865140625
 11
99.7469921875
 21
297.8486875
  0
LINE
  5
795
330
1F
100
AcDbEntity
  8
0
 67
0
100
AcDbLine
 10
99.7469921875
 20
297.8486875
 11
99.7064453125
 21
297.834765625
  0
LINE
  5
796
330
1F
100
AcDbEntity
  8
0
 67
0
100
AcDbLine
 10
99.7064453125
 20
297.834765625
 11
99.6644921875
 21
297.823375
  0
LINE
  5
797
330
1F
100
AcDbEntity
  8
0
 67
0
100
AcDbLine
 10
99.6644921875
 20
297.823375
 11
99.62113281250001
 21
297.814515625
  0
LINE
  5
798
330
1F
100
AcDbEntity
  8
0
 67
0
100
AcDbLine
 10
99.62113281250001
 20
297.814515625
 11
99.5763671875
 21
297.8081875
  0
LINE
  5
799
330
1F
100
AcDbEntity
  8
0
 67
0
100
AcDbLine
 10
99.5763671875
 20
297.8081875
 11
99.5301953125
 21
297.804390625
  0
LINE
  5
79A
330
1F
100
AcDbEntity
  8
0
 67
0
100
AcDbLine
 10
99.5301953125
 20
297.804390625
 11
99.4826171875
 21
297.803125
  0
LINE
  5
79B
330
1F
100
AcDbEntity
  8
0
 67
0
100
AcDbLine
 10
99.4826171875
 20
297.803125
 11
99.4186953125
 21
297.805390625
  0
LINE
  5
79C
330
1F
100
AcDbEntity
  8
0
 67
0
100
AcDbLine
 10
99.4186953125
 20
297.805390625
 11
99.3569296875
 21
297.8121875
  0
LINE
  5
79D
330
1F
100
AcDbEntity
  8
0
 67
0
100
AcDbLine
 10
99.3569296875
 20
297.8121875
 11
99.2973203125
 21
297.823515625
  0
LINE
  5
79E
330
1F
100
AcDbEntity
  8
0
 67
0
100
AcDbLine
 10
99.2973203125
 20
297.823515625
 11
99.2398671875
 21
297.839375
  0
LINE
  5
79F
330
1F
100
AcDbEntity
  8
0
 67
0
100
AcDbLine
 10
99.2398671875
 20
297.839375
 11
99.1845703125
 21
297.859765625
  0
LINE
  5
7A0
330
1F
100
AcDbEntity
  8
0
 67
0
100
AcDbLine
 10
99.1845703125
 20
297.859765625
 11
99.1314296875
 21
297.8846875
  0
LINE
  5
7A1
330
1F
100
AcDbEntity
  8
0
 67
0
100
AcDbLine
 10
99.1314296875
 20
297.8846875
 11
99.0804453125
 21
297.914140625
  0
LINE
  5
7A2
330
1F
100
AcDbEntity
  8
0
 67
0
100
AcDbLine
 10
99.0804453125
 20
297.914140625
 11
99.0316171875
 21
297.948125
  0
LINE
  5
7A3
330
1F
100
AcDbEntity
  8
0
 67
0
100
AcDbLine
 10
99.0316171875
 20
297.948125
 11
98.9849453125
 21
297.986640625
  0
LINE
  5
7A4
330
1F
100
AcDbEntity
  8
0
 67
0
100
AcDbLine
 10
98.9849453125
 20
297.986640625
 11
98.9404296875
 21
298.0296875
  0
LINE
  5
7A5
330
1F
100
AcDbEntity
  8
0
 67
0
100
AcDbLine
 10
98.9404296875
 20
298.0296875
 11
98.898921875
 21
298.07715625
  0
LINE
  5
7A6
330
1F
100
AcDbEntity
  8
0
 67
0
100
AcDbLine
 10
98.898921875
 20
298.07715625
 11
98.8612734375
 21
298.128625
  0
LINE
  5
7A7
330
1F
100
AcDbEntity
  8
0
 67
0
100
AcDbLine
 10
98.8612734375
 20
298.128625
 11
98.827484375
 21
298.18409375
  0
LINE
  5
7A8
330
1F
100
AcDbEntity
  8
0
 67
0
100
AcDbLine
 10
98.827484375
 20
298.18409375
 11
98.7975546875
 21
298.2435625
  0
LINE
  5
7A9
330
1F
100
AcDbEntity
  8
0
 67
0
100
AcDbLine
 10
98.7975546875
 20
298.2435625
 11
98.771484375
 21
298.30703125
  0
LINE
  5
7AA
330
1F
100
AcDbEntity
  8
0
 67
0
100
AcDbLine
 10
98.771484375
 20
298.30703125
 11
98.7492734375
 21
298.3745
  0
LINE
  5
7AB
330
1F
100
AcDbEntity
  8
0
 67
0
100
AcDbLine
 10
98.7492734375
 20
298.3745
 11
98.730921875
 21
298.44596875
  0
LINE
  5
7AC
330
1F
100
AcDbEntity
  8
0
 67
0
100
AcDbLine
 10
98.730921875
 20
298.44596875
 11
98.71642968750001
 21
298.5214375
  0
LINE
  5
7AD
330
1F
100
AcDbEntity
  8
0
 67
0
100
AcDbLine
 10
98.71642968750001
 20
298.5214375
 11
98.705796875
 21
298.60090625
  0
LINE
  5
7AE
330
1F
100
AcDbEntity
  8
0
 67
0
100
AcDbLine
 10
98.705796875
 20
298.60090625
 11
98.6990234375
 21
298.684375
  0
LINE
  5
7AF
330
1F
100
AcDbEntity
  8
0
 67
0
100
AcDbLine
 10
98.6990234375
 20
298.684375
 11
100.6326171875
 21
298.684375
  0
LINE
  5
7B0
330
1F
100
AcDbEntity
  8
0
 67
0
100
AcDbLine
 10
100.6326171875
 20
298.684375
 11
100.6330625
 21
298.699609375
  0
LINE
  5
7B1
330
1F
100
AcDbEntity
  8
0
 67
0
100
AcDbLine
 10
100.6330625
 20
298.699609375
 11
100.6334609375
 21
298.7140625
  0
LINE
  5
7B2
330
1F
100
AcDbEntity
  8
0
 67
0
100
AcDbLine
 10
100.6334609375
 20
298.7140625
 11
100.6338125
 21
298.727734375
  0
LINE
  5
7B3
330
1F
100
AcDbEntity
  8
0
 67
0
100
AcDbLine
 10
100.6338125
 20
298.727734375
 11
100.6341171875
 21
298.740625
  0
LINE
  5
7B4
330
1F
100
AcDbEntity
  8
0
 67
0
100
AcDbLine
 10
100.6341171875
 20
298.740625
 11
100.634375
 21
298.752734375
  0
LINE
  5
7B5
330
1F
100
AcDbEntity
  8
0
 67
0
100
AcDbLine
 10
100.634375
 20
298.752734375
 11
100.6345859375
 21
298.7640625
  0
LINE
  5
7B6
330
1F
100
AcDbEntity
  8
0
 67
0
100
AcDbLine
 10
100.6345859375
 20
298.7640625
 11
100.63475
 21
298.774609375
  0
LINE
  5
7B7
330
1F
100
AcDbEntity
  8
0
 67
0
100
AcDbLine
 10
100.63475
 20
298.774609375
 11
100.6348671875
 21
298.784375
  0
LINE
  5
7B8
330
1F
100
AcDbEntity
  8
0
 67
0
100
AcDbLine
 10
100.6348671875
 20
298.784375
 11
100.6349375
 21
298.793359375
  0
LINE
  5
7B9
330
1F
100
AcDbEntity
  8
0
 67
0
100
AcDbLine
 10
100.6349375
 20
298.793359375
 11
100.6349609375
 21
298.8015625
  0
LINE
  5
7BA
330
1F
100
AcDbEntity
  8
0
 67
0
100
AcDbLine
 10
100.6349609375
 20
298.8015625
 11
100.6316640625
 21
298.9271171875
  0
LINE
  5
7BB
330
1F
100
AcDbEntity
  8
0
 67
0
100
AcDbLine
 10
100.6316640625
 20
298.9271171875
 11
100.6217734375
 21
299.04690625
  0
LINE
  5
7BC
330
1F
100
AcDbEntity
  8
0
 67
0
100
AcDbLine
 10
100.6217734375
 20
299.04690625
 11
100.6052890625
 21
299.1609296875
  0
LINE
  5
7BD
330
1F
100
AcDbEntity
  8
0
 67
0
100
AcDbLine
 10
100.6052890625
 20
299.1609296875
 11
100.58221093750001
 21
299.2691875
  0
LINE
  5
7BE
330
1F
100
AcDbEntity
  8
0
 67
0
100
AcDbLine
 10
100.58221093750001
 20
299.2691875
 11
100.5525390625
 21
299.3716796875
  0
LINE
  5
7BF
330
1F
100
AcDbEntity
  8
0
 67
0
100
AcDbLine
 10
100.5525390625
 20
299.3716796875
 11
100.5162734375
 21
299.46840625
  0
LINE
  5
7C0
330
1F
100
AcDbEntity
  8
0
 67
0
100
AcDbLine
 10
100.5162734375
 20
299.46840625
 11
100.4734140625
 21
299.5593671875
  0
LINE
  5
7C1
330
1F
100
AcDbEntity
  8
0
 67
0
100
AcDbLine
 10
100.4734140625
 20
299.5593671875
 11
100.4239609375
 21
299.6445625
  0
LINE
  5
7C2
330
1F
100
AcDbEntity
  8
0
 67
0
100
AcDbLine
 10
100.4239609375
 20
299.6445625
 11
100.3679140625
 21
299.7239921875
  0
LINE
  5
7C3
330
1F
100
AcDbEntity
  8
0
 67
0
100
AcDbLine
 10
100.3679140625
 20
299.7239921875
 11
100.3052734375
 21
299.79765625
  0
LINE
  5
7C4
330
1F
100
AcDbEntity
  8
0
 67
0
100
AcDbLine
 10
100.3052734375
 20
299.79765625
 11
100.2374296875
 21
299.8648984375
  0
LINE
  5
7C5
330
1F
100
AcDbEntity
  8
0
 67
0
100
AcDbLine
 10
100.2374296875
 20
299.8648984375
 11
100.16577343750001
 21
299.9250625
  0
LINE
  5
7C6
330
1F
100
AcDbEntity
  8
0
 67
0
100
AcDbLine
 10
100.16577343750001
 20
299.9250625
 11
100.0903046875
 21
299.9781484375
  0
LINE
  5
7C7
330
1F
100
AcDbEntity
  8
0
 67
0
100
AcDbLine
 10
100.0903046875
 20
299.9781484375
 11
100.0110234375
 21
300.02415625
  0
LINE
  5
7C8
330
1F
100
AcDbEntity
  8
0
 67
0
100
AcDbLine
 10
100.0110234375
 20
300.02415625
 11
99.9279296875
 21
300.0630859375
  0
LINE
  5
7C9
330
1F
100
AcDbEntity
  8
0
 67
0
100
AcDbLine
 10
99.9279296875
 20
300.0630859375
 11
99.8410234375
 21
300.0949375
  0
LINE
  5
7CA
330
1F
100
AcDbEntity
  8
0
 67
0
100
AcDbLine
 10
99.8410234375
 20
300.0949375
 11
99.7503046875
 21
300.1197109375
  0
LINE
  5
7CB
330
1F
100
AcDbEntity
  8
0
 67
0
100
AcDbLine
 10
99.7503046875
 20
300.1197109375
 11
99.6557734375
 21
300.13740625
  0
LINE
  5
7CC
330
1F
100
AcDbEntity
  8
0
 67
0
100
AcDbLine
 10
99.6557734375
 20
300.13740625
 11
99.5574296875
 21
300.1480234375
  0
LINE
  5
7CD
330
1F
100
AcDbEntity
  8
0
 67
0
100
AcDbLine
 10
99.5574296875
 20
300.1480234375
 11
99.4552734375
 21
300.1515625
  0
LINE
  5
7CE
330
1F
100
AcDbEntity
  8
0
 67
0
100
AcDbLine
 10
99.4552734375
 20
300.1515625
 11
99.349921875
 21
300.1479453125
  0
LINE
  5
7CF
330
1F
100
AcDbEntity
  8
0
 67
0
100
AcDbLine
 10
99.349921875
 20
300.1479453125
 11
99.2485546875
 21
300.13709375
  0
LINE
  5
7D0
330
1F
100
AcDbEntity
  8
0
 67
0
100
AcDbLine
 10
99.2485546875
 20
300.13709375
 11
99.151171875
 21
300.1190078125
  0
LINE
  5
7D1
330
1F
100
AcDbEntity
  8
0
 67
0
100
AcDbLine
 10
99.151171875
 20
300.1190078125
 11
99.0577734375
 21
300.0936875
  0
LINE
  5
7D2
330
1F
100
AcDbEntity
  8
0
 67
0
100
AcDbLine
 10
99.0577734375
 20
300.0936875
 11
98.968359375
 21
300.0611328125
  0
LINE
  5
7D3
330
1F
100
AcDbEntity
  8
0
 67
0
100
AcDbLine
 10
98.968359375
 20
300.0611328125
 11
98.8829296875
 21
300.02134375
  0
LINE
  5
7D4
330
1F
100
AcDbEntity
  8
0
 67
0
100
AcDbLine
 10
98.8829296875
 20
300.02134375
 11
98.801484375
 21
299.9743203125
  0
LINE
  5
7D5
330
1F
100
AcDbEntity
  8
0
 67
0
100
AcDbLine
 10
98.801484375
 20
299.9743203125
 11
98.7240234375
 21
299.92006250000003
  0
LINE
  5
7D6
330
1F
100
AcDbEntity
  8
0
 67
0
100
AcDbLine
 10
98.7240234375
 20
299.92006250000003
 11
98.650546875
 21
299.8585703125
  0
LINE
  5
7D7
330
1F
100
AcDbEntity
  8
0
 67
0
100
AcDbLine
 10
98.650546875
 20
299.8585703125
 11
98.5810546875
 21
299.78984375
  0
LINE
  5
7D8
330
1F
100
AcDbEntity
  8
0
 67
0
100
AcDbLine
 10
98.5810546875
 20
299.78984375
 11
98.517078125
 21
299.71471875
  0
LINE
  5
7D9
330
1F
100
AcDbEntity
  8
0
 67
0
100
AcDbLine
 10
98.517078125
 20
299.71471875
 11
98.4598359375
 21
299.63371875
  0
LINE
  5
7DA
330
1F
100
AcDbEntity
  8
0
 67
0
100
AcDbLine
 10
98.4598359375
 20
299.63371875
 11
98.409328125
 21
299.54684375
  0
LINE
  5
7DB
330
1F
100
AcDbEntity
  8
0
 67
0
100
AcDbLine
 10
98.409328125
 20
299.54684375
 11
98.36555468750001
 21
299.45409375
  0
LINE
  5
7DC
330
1F
100
AcDbEntity
  8
0
 67
0
100
AcDbLine
 10
98.36555468750001
 20
299.45409375
 11
98.328515625
 21
299.35546875
  0
LINE
  5
7DD
330
1F
100
AcDbEntity
  8
0
 67
0
100
AcDbLine
 10
98.328515625
 20
299.35546875
 11
98.2982109375
 21
299.25096875
  0
LINE
  5
7DE
330
1F
100
AcDbEntity
  8
0
 67
0
100
AcDbLine
 10
98.2982109375
 20
299.25096875
 11
98.274640625
 21
299.14059375
  0
LINE
  5
7DF
330
1F
100
AcDbEntity
  8
0
 67
0
100
AcDbLine
 10
98.274640625
 20
299.14059375
 11
98.2578046875
 21
299.02434375
  0
LINE
  5
7E0
330
1F
100
AcDbEntity
  8
0
 67
0
100
AcDbLine
 10
98.2578046875
 20
299.02434375
 11
98.247703125
 21
298.90221875
  0
LINE
  5
7E1
330
1F
100
AcDbEntity
  8
0
 67
0
100
AcDbLine
 10
98.247703125
 20
298.90221875
 11
98.2443359375
 21
298.77421875
  0
LINE
  5
7E2
330
1F
100
AcDbEntity
  8
0
 67
0
100
AcDbLine
 10
98.2443359375
 20
298.77421875
 11
98.247671875
 21
298.650625
  0
LINE
  5
7E3
330
1F
100
AcDbEntity
  8
0
 67
0
100
AcDbLine
 10
98.247671875
 20
298.650625
 11
98.2576796875
 21
298.53265625
  0
LINE
  5
7E4
330
1F
100
AcDbEntity
  8
0
 67
0
100
AcDbLine
 10
98.2576796875
 20
298.53265625
 11
98.274359375
 21
298.4203125
  0
LINE
  5
7E5
330
1F
100
AcDbEntity
  8
0
 67
0
100
AcDbLine
 10
98.274359375
 20
298.4203125
 11
98.2977109375
 21
298.31359375
  0
LINE
  5
7E6
330
1F
100
AcDbEntity
  8
0
 67
0
100
AcDbLine
 10
98.2977109375
 20
298.31359375
 11
98.327734375
 21
298.2125
  0
LINE
  5
7E7
330
1F
100
AcDbEntity
  8
0
 67
0
100
AcDbLine
 10
98.327734375
 20
298.2125
 11
98.3644296875
 21
298.11703125
  0
LINE
  5
7E8
330
1F
100
AcDbEntity
  8
0
 67
0
100
AcDbLine
 10
98.3644296875
 20
298.11703125
 11
98.407796875
 21
298.0271875
  0
LINE
  5
7E9
330
1F
100
AcDbEntity
  8
0
 67
0
100
AcDbLine
 10
98.407796875
 20
298.0271875
 11
98.45783593750001
 21
297.94296875
  0
LINE
  5
7EA
330
1F
100
AcDbEntity
  8
0
 67
0
100
AcDbLine
 10
98.45783593750001
 20
297.94296875
 11
98.51454687500001
 21
297.864375
  0
LINE
  5
7EB
330
1F
100
AcDbEntity
  8
0
 67
0
100
AcDbLine
 10
98.51454687500001
 20
297.864375
 11
98.5779296875
 21
297.79140625
  0
LINE
  5
7EC
330
1F
100
AcDbEntity
  8
0
 67
0
100
AcDbLine
 10
98.5779296875
 20
297.79140625
 11
98.647
 21
297.72490625
  0
LINE
  5
7ED
330
1F
100
AcDbEntity
  8
0
 67
0
100
AcDbLine
 10
98.647
 20
297.72490625
 11
98.7207734375
 21
297.66540625
  0
LINE
  5
7EE
330
1F
100
AcDbEntity
  8
0
 67
0
100
AcDbLine
 10
98.7207734375
 20
297.66540625
 11
98.79925
 21
297.61290625
  0
LINE
  5
7EF
330
1F
100
AcDbEntity
  8
0
 67
0
100
AcDbLine
 10
98.79925
 20
297.61290625
 11
98.88242968750001
 21
297.56740625
  0
LINE
  5
7F0
330
1F
100
AcDbEntity
  8
0
 67
0
100
AcDbLine
 10
98.88242968750001
 20
297.56740625
 11
98.9703125
 21
297.52890625
  0
LINE
  5
7F1
330
1F
100
AcDbEntity
  8
0
 67
0
100
AcDbLine
 10
98.9703125
 20
297.52890625
 11
99.0628984375
 21
297.49740625
  0
LINE
  5
7F2
330
1F
100
AcDbEntity
  8
0
 67
0
100
AcDbLine
 10
99.0628984375
 20
297.49740625
 11
99.1601875
 21
297.47290625
  0
LINE
  5
7F3
330
1F
100
AcDbEntity
  8
0
 67
0
100
AcDbLine
 10
99.1601875
 20
297.47290625
 11
99.26217968750001
 21
297.45540625
  0
LINE
  5
7F4
330
1F
100
AcDbEntity
  8
0
 67
0
100
AcDbLine
 10
99.26217968750001
 20
297.45540625
 11
99.368875
 21
297.44490625
  0
LINE
  5
7F5
330
1F
100
AcDbEntity
  8
0
 67
0
100
AcDbLine
 10
99.368875
 20
297.44490625
 11
99.4802734375
 21
297.44140625
  0
LINE
  5
7F6
330
1F
100
AcDbEntity
  8
0
 67
0
100
AcDbLine
 10
99.4802734375
 20
297.44140625
 11
99.5689765625
 21
297.4436015625
  0
LINE
  5
7F7
330
1F
100
AcDbEntity
  8
0
 67
0
100
AcDbLine
 10
99.5689765625
 20
297.4436015625
 11
99.6544609375
 21
297.4501875
  0
LINE
  5
7F8
330
1F
100
AcDbEntity
  8
0
 67
0
100
AcDbLine
 10
99.6544609375
 20
297.4501875
 11
99.7367265625
 21
297.4611640625
  0
LINE
  5
7F9
330
1F
100
AcDbEntity
  8
0
 67
0
100
AcDbLine
 10
99.7367265625
 20
297.4611640625
 11
99.8157734375
 21
297.47653125
  0
LINE
  5
7FA
330
1F
100
AcDbEntity
  8
0
 67
0
100
AcDbLine
 10
99.8157734375
 20
297.47653125
 11
99.8916015625
 21
297.4962890625
  0
LINE
  5
7FB
330
1F
100
AcDbEntity
  8
0
 67
0
100
AcDbLine
 10
99.8916015625
 20
297.4962890625
 11
99.9642109375
 21
297.5204375
  0
LINE
  5
7FC
330
1F
100
AcDbEntity
  8
0
 67
0
100
AcDbLine
 10
99.9642109375
 20
297.5204375
 11
100.0336015625
 21
297.5489765625
  0
LINE
  5
7FD
330
1F
100
AcDbEntity
  8
0
 67
0
100
AcDbLine
 10
100.0336015625
 20
297.5489765625
 11
100.0997734375
 21
297.58190625
  0
LINE
  5
7FE
330
1F
100
AcDbEntity
  8
0
 67
0
100
AcDbLine
 10
100.0997734375
 20
297.58190625
 11
100.1627265625
 21
297.6192265625
  0
LINE
  5
7FF
330
1F
100
AcDbEntity
  8
0
 67
0
100
AcDbLine
 10
100.1627265625
 20
297.6192265625
 11
100.2224609375
 21
297.6609375
  0
LINE
  5
800
330
1F
100
AcDbEntity
  8
0
 67
0
100
AcDbLine
 10
100.2224609375
 20
297.6609375
 11
100.27875
 21
297.7067734375
  0
LINE
  5
801
330
1F
100
AcDbEntity
  8
0
 67
0
100
AcDbLine
 10
100.27875
 20
297.7067734375
 11
100.3313671875
 21
297.75615625
  0
LINE
  5
802
330
1F
100
AcDbEntity
  8
0
 67
0
100
AcDbLine
 10
100.3313671875
 20
297.75615625
 11
100.3803125
 21
297.8090859375
  0
LINE
  5
803
330
1F
100
AcDbEntity
  8
0
 67
0
100
AcDbLine
 10
100.3803125
 20
297.8090859375
 11
100.4255859375
 21
297.8655625
  0
LINE
  5
804
330
1F
100
AcDbEntity
  8
0
 67
0
100
AcDbLine
 10
100.4255859375
 20
297.8655625
 11
100.4671875
 21
297.9255859375
  0
LINE
  5
805
330
1F
100
AcDbEntity
  8
0
 67
0
100
AcDbLine
 10
100.4671875
 20
297.9255859375
 11
100.5051171875
 21
297.98915625
  0
LINE
  5
806
330
1F
100
AcDbEntity
  8
0
 67
0
100
AcDbLine
 10
100.5051171875
 20
297.98915625
 11
100.539375
 21
298.0562734375
  0
LINE
  5
807
330
1F
100
AcDbEntity
  8
0
 67
0
100
AcDbLine
 10
100.539375
 20
298.0562734375
 11
100.5699609375
 21
298.1269375
  0
LINE
  5
808
330
1F
100
AcDbEntity
  8
0
 67
0
100
AcDbLine
 10
100.5699609375
 20
298.1269375
 11
100.596875
 21
298.2011484375
  0
LINE
  5
809
330
1F
100
AcDbEntity
  8
0
 67
0
100
AcDbLine
 10
100.596875
 20
298.2011484375
 11
100.6201171875
 21
298.27890625
  0
LINE
  5
80A
330
1F
100
AcDbEntity
  8
0
 67
0
100
AcDbLine
 10
100.6201171875
 20
298.27890625
 11
100.1662109375
 21
298.33515625
  0
LINE
  5
80B
330
1F
100
AcDbEntity
  8
0
 67
0
100
AcDbLine
 10
100.1662109375
 20
298.33515625
 11
100.1662109375
 21
298.33515625
  0
LINE
  5
80C
330
1F
100
AcDbEntity
  8
0
 67
0
100
AcDbLine
 10
94.80263671875
 20
297.81953125
 11
94.80702734375001
 21
297.7834296875
  0
LINE
  5
80D
330
1F
100
AcDbEntity
  8
0
 67
0
100
AcDbLine
 10
94.80702734375001
 20
297.7834296875
 11
94.81238671875
 21
297.74825
  0
LINE
  5
80E
330
1F
100
AcDbEntity
  8
0
 67
0
100
AcDbLine
 10
94.81238671875
 20
297.74825
 11
94.81871484375
 21
297.7139921875
  0
LINE
  5
80F
330
1F
100
AcDbEntity
  8
0
 67
0
100
AcDbLine
 10
94.81871484375
 20
297.7139921875
 11
94.82601171875
 21
297.68065625
  0
LINE
  5
810
330
1F
100
AcDbEntity
  8
0
 67
0
100
AcDbLine
 10
94.82601171875
 20
297.68065625
 11
94.83427734375
 21
297.6482421875
  0
LINE
  5
811
330
1F
100
AcDbEntity
  8
0
 67
0
100
AcDbLine
 10
94.83427734375
 20
297.6482421875
 11
94.84351171875
 21
297.61675
  0
LINE
  5
812
330
1F
100
AcDbEntity
  8
0
 67
0
100
AcDbLine
 10
94.84351171875
 20
297.61675
 11
94.85371484375
 21
297.5861796875
  0
LINE
  5
813
330
1F
100
AcDbEntity
  8
0
 67
0
100
AcDbLine
 10
94.85371484375
 20
297.5861796875
 11
94.86488671875
 21
297.55653125
  0
LINE
  5
814
330
1F
100
AcDbEntity
  8
0
 67
0
100
AcDbLine
 10
94.86488671875
 20
297.55653125
 11
94.87702734375
 21
297.5278046875
  0
LINE
  5
815
330
1F
100
AcDbEntity
  8
0
 67
0
100
AcDbLine
 10
94.87702734375
 20
297.5278046875
 11
94.89013671875
 21
297.5
  0
LINE
  5
816
330
1F
100
AcDbEntity
  8
0
 67
0
100
AcDbLine
 10
94.89013671875
 20
297.5
 11
95.34951171875
 21
297.5
  0
LINE
  5
817
330
1F
100
AcDbEntity
  8
0
 67
0
100
AcDbLine
 10
95.34951171875
 20
297.5
 11
95.33334765625
 21
297.52996875
  0
LINE
  5
818
330
1F
100
AcDbEntity
  8
0
 67
0
100
AcDbLine
 10
95.33334765625
 20
297.52996875
 11
95.31829296875
 21
297.5601875
  0
LINE
  5
819
330
1F
100
AcDbEntity
  8
0
 67
0
100
AcDbLine
 10
95.31829296875
 20
297.5601875
 11
95.30434765625
 21
297.59065625
  0
LINE
  5
81A
330
1F
100
AcDbEntity
  8
0
 67
0
100
AcDbLine
 10
95.30434765625
 20
297.59065625
 11
95.29151171875
 21
297.621375
  0
LINE
  5
81B
330
1F
100
AcDbEntity
  8
0
 67
0
100
AcDbLine
 10
95.29151171875
 20
297.621375
 11
95.27978515625
 21
297.65234375
  0
LINE
  5
81C
330
1F
100
AcDbEntity
  8
0
 67
0
100
AcDbLine
 10
95.27978515625
 20
297.65234375
 11
95.26916796875
 21
297.6835625
  0
LINE
  5
81D
330
1F
100
AcDbEntity
  8
0
 67
0
100
AcDbLine
 10
95.26916796875
 20
297.6835625
 11
95.25966015624999
 21
297.71503125
  0
LINE
  5
81E
330
1F
100
AcDbEntity
  8
0
 67
0
100
AcDbLine
 10
95.25966015624999
 20
297.71503125
 11
95.25126171875
 21
297.74675
  0
LINE
  5
81F
330
1F
100
AcDbEntity
  8
0
 67
0
100
AcDbLine
 10
95.25126171875
 20
297.74675
 11
95.24397265625001
 21
297.77871875
  0
LINE
  5
820
330
1F
100
AcDbEntity
  8
0
 67
0
100
AcDbLine
 10
95.24397265625001
 20
297.77871875
 11
95.23779296875
 21
297.8109375
  0
LINE
  5
821
330
1F
100
AcDbEntity
  8
0
 67
0
100
AcDbLine
 10
95.23779296875
 20
297.8109375
 11
95.23244921875
 21
297.8479453125
  0
LINE
  5
822
330
1F
100
AcDbEntity
  8
0
 67
0
100
AcDbLine
 10
95.23244921875
 20
297.8479453125
 11
95.22766796875
 21
297.89396875
  0
LINE
  5
823
330
1F
100
AcDbEntity
  8
0
 67
0
100
AcDbLine
 10
95.22766796875
 20
297.89396875
 11
95.22344921875
 21
297.9490078125
  0
LINE
  5
824
330
1F
100
AcDbEntity
  8
0
 67
0
100
AcDbLine
 10
95.22344921875
 20
297.9490078125
 11
95.21979296875
 21
298.0130625
  0
LINE
  5
825
330
1F
100
AcDbEntity
  8
0
 67
0
100
AcDbLine
 10
95.21979296875
 20
298.0130625
 11
95.21669921875
 21
298.0861328125
  0
LINE
  5
826
330
1F
100
AcDbEntity
  8
0
 67
0
100
AcDbLine
 10
95.21669921875
 20
298.0861328125
 11
95.21416796875
 21
298.16821875
  0
LINE
  5
827
330
1F
100
AcDbEntity
  8
0
 67
0
100
AcDbLine
 10
95.21416796875
 20
298.16821875
 11
95.21219921875
 21
298.2593203125
  0
LINE
  5
828
330
1F
100
AcDbEntity
  8
0
 67
0
100
AcDbLine
 10
95.21219921875
 20
298.2593203125
 11
95.21079296875
 21
298.3594375
  0
LINE
  5
829
330
1F
100
AcDbEntity
  8
0
 67
0
100
AcDbLine
 10
95.21079296875
 20
298.3594375
 11
95.20994921875
 21
298.4685703125
  0
LINE
  5
82A
330
1F
100
AcDbEntity
  8
0
 67
0
100
AcDbLine
 10
95.20994921875
 20
298.4685703125
 11
95.20966796875
 21
298.58671875
  0
LINE
  5
82B
330
1F
100
AcDbEntity
  8
0
 67
0
100
AcDbLine
 10
95.20966796875
 20
298.58671875
 11
95.20966796875
 21
299.17265625
  0
LINE
  5
82C
330
1F
100
AcDbEntity
  8
0
 67
0
100
AcDbLine
 10
95.20966796875
 20
299.17265625
 11
95.20944921875
 21
299.2294375
  0
LINE
  5
82D
330
1F
100
AcDbEntity
  8
0
 67
0
100
AcDbLine
 10
95.20944921875
 20
299.2294375
 11
95.20879296875
 21
299.28259375
  0
LINE
  5
82E
330
1F
100
AcDbEntity
  8
0
 67
0
100
AcDbLine
 10
95.20879296875
 20
299.28259375
 11
95.20769921875001
 21
299.332125
  0
LINE
  5
82F
330
1F
100
AcDbEntity
  8
0
 67
0
100
AcDbLine
 10
95.20769921875001
 20
299.332125
 11
95.20616796875
 21
299.37803125
  0
LINE
  5
830
330
1F
100
AcDbEntity
  8
0
 67
0
100
AcDbLine
 10
95.20616796875
 20
299.37803125
 11
95.20419921875
 21
299.4203125
  0
LINE
  5
831
330
1F
100
AcDbEntity
  8
0
 67
0
100
AcDbLine
 10
95.20419921875
 20
299.4203125
 11
95.20179296875
 21
299.45896875
  0
LINE
  5
832
330
1F
100
AcDbEntity
  8
0
 67
0
100
AcDbLine
 10
95.20179296875
 20
299.45896875
 11
95.19894921875
 21
299.494
  0
LINE
  5
833
330
1F
100
AcDbEntity
  8
0
 67
0
100
AcDbLine
 10
95.19894921875
 20
299.494
 11
95.19566796875
 21
299.52540625
  0
LINE
  5
834
330
1F
100
AcDbEntity
  8
0
 67
0
100
AcDbLine
 10
95.19566796875
 20
299.52540625
 11
95.19194921875
 21
299.5531875
  0
LINE
  5
835
330
1F
100
AcDbEntity
  8
0
 67
0
100
AcDbLine
 10
95.19194921875
 20
299.5531875
 11
95.18779296875
 21
299.57734375
  0
LINE
  5
836
330
1F
100
AcDbEntity
  8
0
 67
0
100
AcDbLine
 10
95.18779296875
 20
299.57734375
 11
95.17939453125
 21
299.6129609375
  0
LINE
  5
837
330
1F
100
AcDbEntity
  8
0
 67
0
100
AcDbLine
 10
95.17939453125
 20
299.6129609375
 11
95.16982421875
 21
299.6473125
  0
LINE
  5
838
330
1F
100
AcDbEntity
  8
0
 67
0
100
AcDbLine
 10
95.16982421875
 20
299.6473125
 11
95.15908203125
 21
299.6803984375
  0
LINE
  5
839
330
1F
100
AcDbEntity
  8
0
 67
0
100
AcDbLine
 10
95.15908203125
 20
299.6803984375
 11
95.14716796875
 21
299.71221875
  0
LINE
  5
83A
330
1F
100
AcDbEntity
  8
0
 67
0
100
AcDbLine
 10
95.14716796875
 20
299.71221875
 11
95.13408203125
 21
299.7427734375
  0
LINE
  5
83B
330
1F
100
AcDbEntity
  8
0
 67
0
100
AcDbLine
 10
95.13408203125
 20
299.7427734375
 11
95.11982421875
 21
299.7720625
  0
LINE
  5
83C
330
1F
100
AcDbEntity
  8
0
 67
0
100
AcDbLine
 10
95.11982421875
 20
299.7720625
 11
95.10439453125
 21
299.8000859375
  0
LINE
  5
83D
330
1F
100
AcDbEntity
  8
0
 67
0
100
AcDbLine
 10
95.10439453125
 20
299.8000859375
 11
95.08779296875
 21
299.82684375
  0
LINE
  5
83E
330
1F
100
AcDbEntity
  8
0
 67
0
100
AcDbLine
 10
95.08779296875
 20
299.82684375
 11
95.07001953125
 21
299.8523359375
  0
LINE
  5
83F
330
1F
100
AcDbEntity
  8
0
 67
0
100
AcDbLine
 10
95.07001953125
 20
299.8523359375
 11
95.05107421875
 21
299.8765625
  0
LINE
  5
840
330
1F
100
AcDbEntity
  8
0
 67
0
100
AcDbLine
 10
95.05107421875
 20
299.8765625
 11
95.03044140625
 21
299.89990625
  0
LINE
  5
841
330
1F
100
AcDbEntity
  8
0
 67
0
100
AcDbLine
 10
95.03044140625
 20
299.89990625
 11
95.00760546875
 21
299.9224375
  0
LINE
  5
842
330
1F
100
AcDbEntity
  8
0
 67
0
100
AcDbLine
 10
95.00760546875
 20
299.9224375
 11
94.98256640625
 21
299.94415625
  0
LINE
  5
843
330
1F
100
AcDbEntity
  8
0
 67
0
100
AcDbLine
 10
94.98256640625
 20
299.94415625
 11
94.95532421875001
 21
299.9650625
  0
LINE
  5
844
330
1F
100
AcDbEntity
  8
0
 67
0
100
AcDbLine
 10
94.95532421875001
 20
299.9650625
 11
94.92587890625
 21
299.98515625
  0
LINE
  5
845
330
1F
100
AcDbEntity
  8
0
 67
0
100
AcDbLine
 10
94.92587890625
 20
299.98515625
 11
94.89423046875
 21
300.0044375
  0
LINE
  5
846
330
1F
100
AcDbEntity
  8
0
 67
0
100
AcDbLine
 10
94.89423046875
 20
300.0044375
 11
94.86037890625
 21
300.02290625
  0
LINE
  5
847
330
1F
100
AcDbEntity
  8
0
 67
0
100
AcDbLine
 10
94.86037890625
 20
300.02290625
 11
94.82432421875001
 21
300.0405625
  0
LINE
  5
848
330
1F
100
AcDbEntity
  8
0
 67
0
100
AcDbLine
 10
94.82432421875001
 20
300.0405625
 11
94.78606640625
 21
300.05740625
  0
LINE
  5
849
330
1F
100
AcDbEntity
  8
0
 67
0
100
AcDbLine
 10
94.78606640625
 20
300.05740625
 11
94.74560546875
 21
300.0734375
  0
LINE
  5
84A
330
1F
100
AcDbEntity
  8
0
 67
0
100
AcDbLine
 10
94.74560546875
 20
300.0734375
 11
94.70294921875
 21
300.08828125
  0
LINE
  5
84B
330
1F
100
AcDbEntity
  8
0
 67
0
100
AcDbLine
 10
94.70294921875
 20
300.08828125
 11
94.65779296875
 21
300.1015625
  0
LINE
  5
84C
330
1F
100
AcDbEntity
  8
0
 67
0
100
AcDbLine
 10
94.65779296875
 20
300.1015625
 11
94.61013671875
 21
300.11328125
  0
LINE
  5
84D
330
1F
100
AcDbEntity
  8
0
 67
0
100
AcDbLine
 10
94.61013671875
 20
300.11328125
 11
94.55998046875
 21
300.1234375
  0
LINE
  5
84E
330
1F
100
AcDbEntity
  8
0
 67
0
100
AcDbLine
 10
94.55998046875
 20
300.1234375
 11
94.50732421875
 21
300.13203125
  0
LINE
  5
84F
330
1F
100
AcDbEntity
  8
0
 67
0
100
AcDbLine
 10
94.50732421875
 20
300.13203125
 11
94.45216796875
 21
300.1390625
  0
LINE
  5
850
330
1F
100
AcDbEntity
  8
0
 67
0
100
AcDbLine
 10
94.45216796875
 20
300.1390625
 11
94.39451171875
 21
300.14453125
  0
LINE
  5
851
330
1F
100
AcDbEntity
  8
0
 67
0
100
AcDbLine
 10
94.39451171875
 20
300.14453125
 11
94.33435546875
 21
300.1484375
  0
LINE
  5
852
330
1F
100
AcDbEntity
  8
0
 67
0
100
AcDbLine
 10
94.33435546875
 20
300.1484375
 11
94.27169921875
 21
300.15078125
  0
LINE
  5
853
330
1F
100
AcDbEntity
  8
0
 67
0
100
AcDbLine
 10
94.27169921875
 20
300.15078125
 11
94.20654296875
 21
300.1515625
  0
LINE
  5
854
330
1F
100
AcDbEntity
  8
0
 67
0
100
AcDbLine
 10
94.20654296875
 20
300.1515625
 11
94.14047265625
 21
300.150640625
  0
LINE
  5
855
330
1F
100
AcDbEntity
  8
0
 67
0
100
AcDbLine
 10
94.14047265625
 20
300.150640625
 11
94.07601171875
 21
300.147875
  0
LINE
  5
856
330
1F
100
AcDbEntity
  8
0
 67
0
100
AcDbLine
 10
94.07601171875
 20
300.147875
 11
94.01316015625
 21
300.143265625
  0
LINE
  5
857
330
1F
100
AcDbEntity
  8
0
 67
0
100
AcDbLine
 10
94.01316015625
 20
300.143265625
 11
93.95191796875
 21
300.1368125
  0
LINE
  5
858
330
1F
100
AcDbEntity
  8
0
 67
0
100
AcDbLine
 10
93.95191796875
 20
300.1368125
 11
93.89228515625
 21
300.128515625
  0
LINE
  5
859
330
1F
100
AcDbEntity
  8
0
 67
0
100
AcDbLine
 10
93.89228515625
 20
300.128515625
 11
93.83426171875
 21
300.118375
  0
LINE
  5
85A
330
1F
100
AcDbEntity
  8
0
 67
0
100
AcDbLine
 10
93.83426171875
 20
300.118375
 11
93.77784765625
 21
300.106390625
  0
LINE
  5
85B
330
1F
100
AcDbEntity
  8
0
 67
0
100
AcDbLine
 10
93.77784765625
 20
300.106390625
 11
93.72304296875001
 21
300.0925625
  0
LINE
  5
85C
330
1F
100
AcDbEntity
  8
0
 67
0
100
AcDbLine
 10
93.72304296875001
 20
300.0925625
 11
93.66984765625
 21
300.076890625
  0
LINE
  5
85D
330
1F
100
AcDbEntity
  8
0
 67
0
100
AcDbLine
 10
93.66984765625
 20
300.076890625
 11
93.61826171875
 21
300.059375
  0
LINE
  5
85E
330
1F
100
AcDbEntity
  8
0
 67
0
100
AcDbLine
 10
93.61826171875
 20
300.059375
 11
93.56867578125
 21
300.0403125
  0
LINE
  5
85F
330
1F
100
AcDbEntity
  8
0
 67
0
100
AcDbLine
 10
93.56867578125
 20
300.0403125
 11
93.52148046875
 21
300.0196875
  0
LINE
  5
860
330
1F
100
AcDbEntity
  8
0
 67
0
100
AcDbLine
 10
93.52148046875
 20
300.0196875
 11
93.47667578125
 21
299.9975
  0
LINE
  5
861
330
1F
100
AcDbEntity
  8
0
 67
0
100
AcDbLine
 10
93.47667578125
 20
299.9975
 11
93.43426171875
 21
299.97375
  0
LINE
  5
862
330
1F
100
AcDbEntity
  8
0
 67
0
100
AcDbLine
 10
93.43426171875
 20
299.97375
 11
93.39423828125
 21
299.9484375
  0
LINE
  5
863
330
1F
100
AcDbEntity
  8
0
 67
0
100
AcDbLine
 10
93.39423828125
 20
299.9484375
 11
93.35660546875
 21
299.9215625
  0
LINE
  5
864
330
1F
100
AcDbEntity
  8
0
 67
0
100
AcDbLine
 10
93.35660546875
 20
299.9215625
 11
93.32136328125
 21
299.893125
  0
LINE
  5
865
330
1F
100
AcDbEntity
  8
0
 67
0
100
AcDbLine
 10
93.32136328125
 20
299.893125
 11
93.28851171875
 21
299.863125
  0
LINE
  5
866
330
1F
100
AcDbEntity
  8
0
 67
0
100
AcDbLine
 10
93.28851171875
 20
299.863125
 11
93.25805078125
 21
299.8315625
  0
LINE
  5
867
330
1F
100
AcDbEntity
  8
0
 67
0
100
AcDbLine
 10
93.25805078125
 20
299.8315625
 11
93.22998046875
 21
299.7984375
  0
LINE
  5
868
330
1F
100
AcDbEntity
  8
0
 67
0
100
AcDbLine
 10
93.22998046875
 20
299.7984375
 11
93.20386328125
 21
299.76346875
  0
LINE
  5
869
330
1F
100
AcDbEntity
  8
0
 67
0
100
AcDbLine
 10
93.20386328125
 20
299.76346875
 11
93.17926171875
 21
299.726375
  0
LINE
  5
86A
330
1F
100
AcDbEntity
  8
0
 67
0
100
AcDbLine
 10
93.17926171875
 20
299.726375
 11
93.15617578125
 21
299.68715625
  0
LINE
  5
86B
330
1F
100
AcDbEntity
  8
0
 67
0
100
AcDbLine
 10
93.15617578125
 20
299.68715625
 11
93.13460546875
 21
299.6458125
  0
LINE
  5
86C
330
1F
100
AcDbEntity
  8
0
 67
0
100
AcDbLine
 10
93.13460546875
 20
299.6458125
 11
93.11455078125
 21
299.60234375
  0
LINE
  5
86D
330
1F
100
AcDbEntity
  8
0
 67
0
100
AcDbLine
 10
93.11455078125
 20
299.60234375
 11
93.09601171875
 21
299.55675
  0
LINE
  5
86E
330
1F
100
AcDbEntity
  8
0
 67
0
100
AcDbLine
 10
93.09601171875
 20
299.55675
 11
93.07898828125
 21
299.50903125
  0
LINE
  5
86F
330
1F
100
AcDbEntity
  8
0
 67
0
100
AcDbLine
 10
93.07898828125
 20
299.50903125
 11
93.06348046875
 21
299.4591875
  0
LINE
  5
870
330
1F
100
AcDbEntity
  8
0
 67
0
100
AcDbLine
 10
93.06348046875
 20
299.4591875
 11
93.04948828125
 21
299.40721875
  0
LINE
  5
871
330
1F
100
AcDbEntity
  8
0
 67
0
100
AcDbLine
 10
93.04948828125
 20
299.40721875
 11
93.03701171875
 21
299.353125
  0
LINE
  5
872
330
1F
100
AcDbEntity
  8
0
 67
0
100
AcDbLine
 10
93.03701171875
 20
299.353125
 11
93.46669921875
 21
299.29453125
  0
LINE
  5
873
330
1F
100
AcDbEntity
  8
0
 67
0
100
AcDbLine
 10
93.46669921875
 20
299.29453125
 11
93.48168359375
 21
299.348015625
  0
LINE
  5
874
330
1F
100
AcDbEntity
  8
0
 67
0
100
AcDbLine
 10
93.48168359375
 20
299.348015625
 11
93.49819921875
 21
299.39815625
  0
LINE
  5
875
330
1F
100
AcDbEntity
  8
0
 67
0
100
AcDbLine
 10
93.49819921875
 20
299.39815625
 11
93.51624609375
 21
299.444953125
  0
LINE
  5
876
330
1F
100
AcDbEntity
  8
0
 67
0
100
AcDbLine
 10
93.51624609375
 20
299.444953125
 11
93.53582421875
 21
299.48840625
  0
LINE
  5
877
330
1F
100
AcDbEntity
  8
0
 67
0
100
AcDbLine
 10
93.53582421875
 20
299.48840625
 11
93.55693359375
 21
299.528515625
  0
LINE
  5
878
330
1F
100
AcDbEntity
  8
0
 67
0
100
AcDbLine
 10
93.55693359375
 20
299.528515625
 11
93.57957421875
 21
299.56528125
  0
LINE
  5
879
330
1F
100
AcDbEntity
  8
0
 67
0
100
AcDbLine
 10
93.57957421875
 20
299.56528125
 11
93.60374609375
 21
299.598703125
  0
LINE
  5
87A
330
1F
100
AcDbEntity
  8
0
 67
0
100
AcDbLine
 10
93.60374609375
 20
299.598703125
 11
93.62944921875
 21
299.62878125
  0
LINE
  5
87B
330
1F
100
AcDbEntity
  8
0
 67
0
100
AcDbLine
 10
93.62944921875
 20
299.62878125
 11
93.65668359375
 21
299.655515625
  0
LINE
  5
87C
330
1F
100
AcDbEntity
  8
0
 67
0
100
AcDbLine
 10
93.65668359375
 20
299.655515625
 11
93.68544921875
 21
299.67890625
  0
LINE
  5
87D
330
1F
100
AcDbEntity
  8
0
 67
0
100
AcDbLine
 10
93.68544921875
 20
299.67890625
 11
93.71660546875
 21
299.6995390625
  0
LINE
  5
87E
330
1F
100
AcDbEntity
  8
0
 67
0
100
AcDbLine
 10
93.71660546875
 20
299.6995390625
 11
93.75101171875001
 21
299.718
  0
LINE
  5
87F
330
1F
100
AcDbEntity
  8
0
 67
0
100
AcDbLine
 10
93.75101171875001
 20
299.718
 11
93.78866796875
 21
299.7342890625
  0
LINE
  5
880
330
1F
100
AcDbEntity
  8
0
 67
0
100
AcDbLine
 10
93.78866796875
 20
299.7342890625
 11
93.82957421875
 21
299.74840625
  0
LINE
  5
881
330
1F
100
AcDbEntity
  8
0
 67
0
100
AcDbLine
 10
93.82957421875
 20
299.74840625
 11
93.87373046875
 21
299.7603515625
  0
LINE
  5
882
330
1F
100
AcDbEntity
  8
0
 67
0
100
AcDbLine
 10
93.87373046875
 20
299.7603515625
 11
93.92113671875
 21
299.770125
  0
LINE
  5
883
330
1F
100
AcDbEntity
  8
0
 67
0
100
AcDbLine
 10
93.92113671875
 20
299.770125
 11
93.97179296875
 21
299.7777265625
  0
LINE
  5
884
330
1F
100
AcDbEntity
  8
0
 67
0
100
AcDbLine
 10
93.97179296875
 20
299.7777265625
 11
94.02569921875
 21
299.78315625
  0
LINE
  5
885
330
1F
100
AcDbEntity
  8
0
 67
0
100
AcDbLine
 10
94.02569921875
 20
299.78315625
 11
94.08285546875
 21
299.7864140625
  0
LINE
  5
886
330
1F
100
AcDbEntity
  8
0
 67
0
100
AcDbLine
 10
94.08285546875
 20
299.7864140625
 11
94.14326171875
 21
299.7875
  0
LINE
  5
887
330
1F
100
AcDbEntity
  8
0
 67
0
100
AcDbLine
 10
94.14326171875
 20
299.7875
 11
94.20802734375
 21
299.786015625
  0
LINE
  5
888
330
1F
100
AcDbEntity
  8
0
 67
0
100
AcDbLine
 10
94.20802734375
 20
299.786015625
 11
94.26951171875
 21
299.7815625
  0
LINE
  5
889
330
1F
100
AcDbEntity
  8
0
 67
0
100
AcDbLine
 10
94.26951171875
 20
299.7815625
 11
94.32771484375
 21
299.774140625
  0
LINE
  5
88A
330
1F
100
AcDbEntity
  8
0
 67
0
100
AcDbLine
 10
94.32771484375
 20
299.774140625
 11
94.38263671875
 21
299.76375
  0
LINE
  5
88B
330
1F
100
AcDbEntity
  8
0
 67
0
100
AcDbLine
 10
94.38263671875
 20
299.76375
 11
94.43427734375
 21
299.750390625
  0
LINE
  5
88C
330
1F
100
AcDbEntity
  8
0
 67
0
100
AcDbLine
 10
94.43427734375
 20
299.750390625
 11
94.48263671875
 21
299.7340625
  0
LINE
  5
88D
330
1F
100
AcDbEntity
  8
0
 67
0
100
AcDbLine
 10
94.48263671875
 20
299.7340625
 11
94.52771484375
 21
299.714765625
  0
LINE
  5
88E
330
1F
100
AcDbEntity
  8
0
 67
0
100
AcDbLine
 10
94.52771484375
 20
299.714765625
 11
94.56951171875
 21
299.6925
  0
LINE
  5
88F
330
1F
100
AcDbEntity
  8
0
 67
0
100
AcDbLine
 10
94.56951171875
 20
299.6925
 11
94.60802734375
 21
299.667265625
  0
LINE
  5
890
330
1F
100
AcDbEntity
  8
0
 67
0
100
AcDbLine
 10
94.60802734375
 20
299.667265625
 11
94.64326171875
 21
299.6390625
  0
LINE
  5
891
330
1F
100
AcDbEntity
  8
0
 67
0
100
AcDbLine
 10
94.64326171875
 20
299.6390625
 11
94.66701171875
 21
299.6154453125
  0
LINE
  5
892
330
1F
100
AcDbEntity
  8
0
 67
0
100
AcDbLine
 10
94.66701171875
 20
299.6154453125
 11
94.68826171875
 21
299.58865625
  0
LINE
  5
893
330
1F
100
AcDbEntity
  8
0
 67
0
100
AcDbLine
 10
94.68826171875
 20
299.58865625
 11
94.70701171875
 21
299.5586953125
  0
LINE
  5
894
330
1F
100
AcDbEntity
  8
0
 67
0
100
AcDbLine
 10
94.70701171875
 20
299.5586953125
 11
94.72326171875
 21
299.5255625
  0
LINE
  5
895
330
1F
100
AcDbEntity
  8
0
 67
0
100
AcDbLine
 10
94.72326171875
 20
299.5255625
 11
94.73701171875
 21
299.4892578125
  0
LINE
  5
896
330
1F
100
AcDbEntity
  8
0
 67
0
100
AcDbLine
 10
94.73701171875
 20
299.4892578125
 11
94.74826171875
 21
299.44978125
  0
LINE
  5
897
330
1F
100
AcDbEntity
  8
0
 67
0
100
AcDbLine
 10
94.74826171875
 20
299.44978125
 11
94.75701171875
 21
299.4071328125
  0
LINE
  5
898
330
1F
100
AcDbEntity
  8
0
 67
0
100
AcDbLine
 10
94.75701171875
 20
299.4071328125
 11
94.76326171875
 21
299.3613125
  0
LINE
  5
899
330
1F
100
AcDbEntity
  8
0
 67
0
100
AcDbLine
 10
94.76326171875
 20
299.3613125
 11
94.76701171875
 21
299.3123203125
  0
LINE
  5
89A
330
1F
100
AcDbEntity
  8
0
 67
0
100
AcDbLine
 10
94.76701171875
 20
299.3123203125
 11
94.76826171875
 21
299.26015625
  0
LINE
  5
89B
330
1F
100
AcDbEntity
  8
0
 67
0
100
AcDbLine
 10
94.76826171875
 20
299.26015625
 11
94.76823828125
 21
299.2546484375
  0
LINE
  5
89C
330
1F
100
AcDbEntity
  8
0
 67
0
100
AcDbLine
 10
94.76823828125
 20
299.2546484375
 11
94.76816796874999
 21
299.2478125
  0
LINE
  5
89D
330
1F
100
AcDbEntity
  8
0
 67
0
100
AcDbLine
 10
94.76816796874999
 20
299.2478125
 11
94.76805078125
 21
299.2396484375
  0
LINE
  5
89E
330
1F
100
AcDbEntity
  8
0
 67
0
100
AcDbLine
 10
94.76805078125
 20
299.2396484375
 11
94.76788671875
 21
299.23015625
  0
LINE
  5
89F
330
1F
100
AcDbEntity
  8
0
 67
0
100
AcDbLine
 10
94.76788671875
 20
299.23015625
 11
94.76767578125
 21
299.2193359375
  0
LINE
  5
8A0
330
1F
100
AcDbEntity
  8
0
 67
0
100
AcDbLine
 10
94.76767578125
 20
299.2193359375
 11
94.76741796875
 21
299.2071875
  0
LINE
  5
8A1
330
1F
100
AcDbEntity
  8
0
 67
0
100
AcDbLine
 10
94.76741796875
 20
299.2071875
 11
94.76711328125
 21
299.1937109375
  0
LINE
  5
8A2
330
1F
100
AcDbEntity
  8
0
 67
0
100
AcDbLine
 10
94.76711328125
 20
299.1937109375
 11
94.76676171875
 21
299.17890625
  0
LINE
  5
8A3
330
1F
100
AcDbEntity
  8
0
 67
0
100
AcDbLine
 10
94.76676171875
 20
299.17890625
 11
94.76636328125
 21
299.1627734375
  0
LINE
  5
8A4
330
1F
100
AcDbEntity
  8
0
 67
0
100
AcDbLine
 10
94.76636328125
 20
299.1627734375
 11
94.76591796875
 21
299.1453125
  0
LINE
  5
8A5
330
1F
100
AcDbEntity
  8
0
 67
0
100
AcDbLine
 10
94.76591796875
 20
299.1453125
 11
94.71280078125
 21
299.1280546875
  0
LINE
  5
8A6
330
1F
100
AcDbEntity
  8
0
 67
0
100
AcDbLine
 10
94.71280078125
 20
299.1280546875
 11
94.65407421875
 21
299.11128125
  0
LINE
  5
8A7
330
1F
100
AcDbEntity
  8
0
 67
0
100
AcDbLine
 10
94.65407421875
 20
299.11128125
 11
94.58973828124999
 21
299.0949921875
  0
LINE
  5
8A8
330
1F
100
AcDbEntity
  8
0
 67
0
100
AcDbLine
 10
94.58973828124999
 20
299.0949921875
 11
94.51979296875
 21
299.0791875
  0
LINE
  5
8A9
330
1F
100
AcDbEntity
  8
0
 67
0
100
AcDbLine
 10
94.51979296875
 20
299.0791875
 11
94.44423828125
 21
299.0638671875
  0
LINE
  5
8AA
330
1F
100
AcDbEntity
  8
0
 67
0
100
AcDbLine
 10
94.44423828125
 20
299.0638671875
 11
94.36307421875
 21
299.04903125
  0
LINE
  5
8AB
330
1F
100
AcDbEntity
  8
0
 67
0
100
AcDbLine
 10
94.36307421875
 20
299.04903125
 11
94.27630078125
 21
299.0346796875
  0
LINE
  5
8AC
330
1F
100
AcDbEntity
  8
0
 67
0
100
AcDbLine
 10
94.27630078125
 20
299.0346796875
 11
94.18391796875
 21
299.0208125
  0
LINE
  5
8AD
330
1F
100
AcDbEntity
  8
0
 67
0
100
AcDbLine
 10
94.18391796875
 20
299.0208125
 11
94.08592578125
 21
299.0074296875
  0
LINE
  5
8AE
330
1F
100
AcDbEntity
  8
0
 67
0
100
AcDbLine
 10
94.08592578125
 20
299.0074296875
 11
93.98232421875
 21
298.99453125
  0
LINE
  5
8AF
330
1F
100
AcDbEntity
  8
0
 67
0
100
AcDbLine
 10
93.98232421875
 20
298.99453125
 11
93.93130859375
 21
298.9881015625
  0
LINE
  5
8B0
330
1F
100
AcDbEntity
  8
0
 67
0
100
AcDbLine
 10
93.93130859375
 20
298.9881015625
 11
93.88294921875
 21
298.981625
  0
LINE
  5
8B1
330
1F
100
AcDbEntity
  8
0
 67
0
100
AcDbLine
 10
93.88294921875
 20
298.981625
 11
93.83724609375
 21
298.9751015625
  0
LINE
  5
8B2
330
1F
100
AcDbEntity
  8
0
 67
0
100
AcDbLine
 10
93.83724609375
 20
298.9751015625
 11
93.79419921875
 21
298.96853125
  0
LINE
  5
8B3
330
1F
100
AcDbEntity
  8
0
 67
0
100
AcDbLine
 10
93.79419921875
 20
298.96853125
 11
93.75380859375
 21
298.9619140625
  0
LINE
  5
8B4
330
1F
100
AcDbEntity
  8
0
 67
0
100
AcDbLine
 10
93.75380859375
 20
298.9619140625
 11
93.71607421875
 21
298.95525
  0
LINE
  5
8B5
330
1F
100
AcDbEntity
  8
0
 67
0
100
AcDbLine
 10
93.71607421875
 20
298.95525
 11
93.68099609375
 21
298.9485390625
  0
LINE
  5
8B6
330
1F
100
AcDbEntity
  8
0
 67
0
100
AcDbLine
 10
93.68099609375
 20
298.9485390625
 11
93.64857421875
 21
298.94178125
  0
LINE
  5
8B7
330
1F
100
AcDbEntity
  8
0
 67
0
100
AcDbLine
 10
93.64857421875
 20
298.94178125
 11
93.61880859375
 21
298.9349765625
  0
LINE
  5
8B8
330
1F
100
AcDbEntity
  8
0
 67
0
100
AcDbLine
 10
93.61880859375
 20
298.9349765625
 11
93.59169921875
 21
298.928125
  0
LINE
  5
8B9
330
1F
100
AcDbEntity
  8
0
 67
0
100
AcDbLine
 10
93.59169921875
 20
298.928125
 11
93.55689453125
 21
298.91796875
  0
LINE
  5
8BA
330
1F
100
AcDbEntity
  8
0
 67
0
100
AcDbLine
 10
93.55689453125
 20
298.91796875
 11
93.52279296875
 21
298.906875
  0
LINE
  5
8BB
330
1F
100
AcDbEntity
  8
0
 67
0
100
AcDbLine
 10
93.52279296875
 20
298.906875
 11
93.48939453125
 21
298.89484375
  0
LINE
  5
8BC
330
1F
100
AcDbEntity
  8
0
 67
0
100
AcDbLine
 10
93.48939453125
 20
298.89484375
 11
93.45669921875
 21
298.881875
  0
LINE
  5
8BD
330
1F
100
AcDbEntity
  8
0
 67
0
100
AcDbLine
 10
93.45669921875
 20
298.881875
 11
93.42470703125
 21
298.86796875
  0
LINE
  5
8BE
330
1F
100
AcDbEntity
  8
0
 67
0
100
AcDbLine
 10
93.42470703125
 20
298.86796875
 11
93.39341796875
 21
298.853125
  0
LINE
  5
8BF
330
1F
100
AcDbEntity
  8
0
 67
0
100
AcDbLine
 10
93.39341796875
 20
298.853125
 11
93.36283203125
 21
298.83734375
  0
LINE
  5
8C0
330
1F
100
AcDbEntity
  8
0
 67
0
100
AcDbLine
 10
93.36283203125
 20
298.83734375
 11
93.33294921875
 21
298.820625
  0
LINE
  5
8C1
330
1F
100
AcDbEntity
  8
0
 67
0
100
AcDbLine
 10
93.33294921875
 20
298.820625
 11
93.30376953125
 21
298.80296875
  0
LINE
  5
8C2
330
1F
100
AcDbEntity
  8
0
 67
0
100
AcDbLine
 10
93.30376953125
 20
298.80296875
 11
93.27529296875
 21
298.784375
  0
LINE
  5
8C3
330
1F
100
AcDbEntity
  8
0
 67
0
100
AcDbLine
 10
93.27529296875
 20
298.784375
 11
93.24770703125
 21
298.7646875
  0
LINE
  5
8C4
330
1F
100
AcDbEntity
  8
0
 67
0
100
AcDbLine
 10
93.24770703125
 20
298.7646875
 11
93.22119921875
 21
298.74375
  0
LINE
  5
8C5
330
1F
100
AcDbEntity
  8
0
 67
0
100
AcDbLine
 10
93.22119921875
 20
298.74375
 11
93.19576953125
 21
298.7215625
  0
LINE
  5
8C6
330
1F
100
AcDbEntity
  8
0
 67
0
100
AcDbLine
 10
93.19576953125
 20
298.7215625
 11
93.17141796875
 21
298.698125
  0
LINE
  5
8C7
330
1F
100
AcDbEntity
  8
0
 67
0
100
AcDbLine
 10
93.17141796875
 20
298.698125
 11
93.14814453125
 21
298.6734375
  0
LINE
  5
8C8
330
1F
100
AcDbEntity
  8
0
 67
0
100
AcDbLine
 10
93.14814453125
 20
298.6734375
 11
93.12594921875
 21
298.6475
  0
LINE
  5
8C9
330
1F
100
AcDbEntity
  8
0
 67
0
100
AcDbLine
 10
93.12594921875
 20
298.6475
 11
93.10483203125
 21
298.6203125
  0
LINE
  5
8CA
330
1F
100
AcDbEntity
  8
0
 67
0
100
AcDbLine
 10
93.10483203125
 20
298.6203125
 11
93.08479296875
 21
298.591875
  0
LINE
  5
8CB
330
1F
100
AcDbEntity
  8
0
 67
0
100
AcDbLine
 10
93.08479296875
 20
298.591875
 11
93.06583203125
 21
298.5621875
  0
LINE
  5
8CC
330
1F
100
AcDbEntity
  8
0
 67
0
100
AcDbLine
 10
93.06583203125
 20
298.5621875
 11
93.04794921875
 21
298.53125
  0
LINE
  5
8CD
330
1F
100
AcDbEntity
  8
0
 67
0
100
AcDbLine
 10
93.04794921875
 20
298.53125
 11
93.03147265625
 21
298.4995078125
  0
LINE
  5
8CE
330
1F
100
AcDbEntity
  8
0
 67
0
100
AcDbLine
 10
93.03147265625
 20
298.4995078125
 11
93.01673046875
 21
298.46709375
  0
LINE
  5
8CF
330
1F
100
AcDbEntity
  8
0
 67
0
100
AcDbLine
 10
93.01673046875
 20
298.46709375
 11
93.00372265625
 21
298.4340078125
  0
LINE
  5
8D0
330
1F
100
AcDbEntity
  8
0
 67
0
100
AcDbLine
 10
93.00372265625
 20
298.4340078125
 11
92.99244921875
 21
298.40025
  0
LINE
  5
8D1
330
1F
100
AcDbEntity
  8
0
 67
0
100
AcDbLine
 10
92.99244921875
 20
298.40025
 11
92.98291015625
 21
298.3658203125
  0
LINE
  5
8D2
330
1F
100
AcDbEntity
  8
0
 67
0
100
AcDbLine
 10
92.98291015625
 20
298.3658203125
 11
92.97510546875
 21
298.33071875
  0
LINE
  5
8D3
330
1F
100
AcDbEntity
  8
0
 67
0
100
AcDbLine
 10
92.97510546875
 20
298.33071875
 11
92.96903515625
 21
298.2949453125
  0
LINE
  5
8D4
330
1F
100
AcDbEntity
  8
0
 67
0
100
AcDbLine
 10
92.96903515625
 20
298.2949453125
 11
92.96469921875
 21
298.2585
  0
LINE
  5
8D5
330
1F
100
AcDbEntity
  8
0
 67
0
100
AcDbLine
 10
92.96469921875
 20
298.2585
 11
92.96209765625
 21
298.2213828125
  0
LINE
  5
8D6
330
1F
100
AcDbEntity
  8
0
 67
0
100
AcDbLine
 10
92.96209765625
 20
298.2213828125
 11
92.96123046875
 21
298.18359375
  0
LINE
  5
8D7
330
1F
100
AcDbEntity
  8
0
 67
0
100
AcDbLine
 10
92.96123046875
 20
298.18359375
 11
92.96352734375
 21
298.1197578125
  0
LINE
  5
8D8
330
1F
100
AcDbEntity
  8
0
 67
0
100
AcDbLine
 10
92.96352734375
 20
298.1197578125
 11
92.97041796875
 21
298.05825
  0
LINE
  5
8D9
330
1F
100
AcDbEntity
  8
0
 67
0
100
AcDbLine
 10
92.97041796875
 20
298.05825
 11
92.98190234375
 21
297.9990703125
  0
LINE
  5
8DA
330
1F
100
AcDbEntity
  8
0
 67
0
100
AcDbLine
 10
92.98190234375
 20
297.9990703125
 11
92.99798046875
 21
297.94221875
  0
LINE
  5
8DB
330
1F
100
AcDbEntity
  8
0
 67
0
100
AcDbLine
 10
92.99798046875
 20
297.94221875
 11
93.01865234375
 21
297.8876953125
  0
LINE
  5
8DC
330
1F
100
AcDbEntity
  8
0
 67
0
100
AcDbLine
 10
93.01865234375
 20
297.8876953125
 11
93.04391796875
 21
297.8355
  0
LINE
  5
8DD
330
1F
100
AcDbEntity
  8
0
 67
0
100
AcDbLine
 10
93.04391796875
 20
297.8355
 11
93.07377734375
 21
297.7856328125
  0
LINE
  5
8DE
330
1F
100
AcDbEntity
  8
0
 67
0
100
AcDbLine
 10
93.07377734375
 20
297.7856328125
 11
93.10823046875
 21
297.73809375
  0
LINE
  5
8DF
330
1F
100
AcDbEntity
  8
0
 67
0
100
AcDbLine
 10
93.10823046875
 20
297.73809375
 11
93.14727734375
 21
297.6928828125
  0
LINE
  5
8E0
330
1F
100
AcDbEntity
  8
0
 67
0
100
AcDbLine
 10
93.14727734375
 20
297.6928828125
 11
93.19091796875
 21
297.65
  0
LINE
  5
8E1
330
1F
100
AcDbEntity
  8
0
 67
0
100
AcDbLine
 10
93.19091796875
 20
297.65
 11
93.23883203125
 21
297.6103671875
  0
LINE
  5
8E2
330
1F
100
AcDbEntity
  8
0
 67
0
100
AcDbLine
 10
93.23883203125
 20
297.6103671875
 11
93.29069921875
 21
297.57490625
  0
LINE
  5
8E3
330
1F
100
AcDbEntity
  8
0
 67
0
100
AcDbLine
 10
93.29069921875
 20
297.57490625
 11
93.34651953125
 21
297.5436171875
  0
LINE
  5
8E4
330
1F
100
AcDbEntity
  8
0
 67
0
100
AcDbLine
 10
93.34651953125
 20
297.5436171875
 11
93.40629296875
 21
297.5165
  0
LINE
  5
8E5
330
1F
100
AcDbEntity
  8
0
 67
0
100
AcDbLine
 10
93.40629296875
 20
297.5165
 11
93.47001953125
 21
297.4935546875
  0
LINE
  5
8E6
330
1F
100
AcDbEntity
  8
0
 67
0
100
AcDbLine
 10
93.47001953125
 20
297.4935546875
 11
93.53769921875
 21
297.47478125
  0
LINE
  5
8E7
330
1F
100
AcDbEntity
  8
0
 67
0
100
AcDbLine
 10
93.53769921875
 20
297.47478125
 11
93.60933203125
 21
297.4601796875
  0
LINE
  5
8E8
330
1F
100
AcDbEntity
  8
0
 67
0
100
AcDbLine
 10
93.60933203125
 20
297.4601796875
 11
93.68491796875
 21
297.44975
  0
LINE
  5
8E9
330
1F
100
AcDbEntity
  8
0
 67
0
100
AcDbLine
 10
93.68491796875
 20
297.44975
 11
93.76445703125
 21
297.4434921875
  0
LINE
  5
8EA
330
1F
100
AcDbEntity
  8
0
 67
0
100
AcDbLine
 10
93.76445703125
 20
297.4434921875
 11
93.84794921875
 21
297.44140625
  0
LINE
  5
8EB
330
1F
100
AcDbEntity
  8
0
 67
0
100
AcDbLine
 10
93.84794921875
 20
297.44140625
 11
93.89933984375
 21
297.4422578125
  0
LINE
  5
8EC
330
1F
100
AcDbEntity
  8
0
 67
0
100
AcDbLine
 10
93.89933984375
 20
297.4422578125
 11
93.95007421875
 21
297.4448125
  0
LINE
  5
8ED
330
1F
100
AcDbEntity
  8
0
 67
0
100
AcDbLine
 10
93.95007421875
 20
297.4448125
 11
94.00015234375
 21
297.4490703125
  0
LINE
  5
8EE
330
1F
100
AcDbEntity
  8
0
 67
0
100
AcDbLine
 10
94.00015234375
 20
297.4490703125
 11
94.04957421875
 21
297.45503125
  0
LINE
  5
8EF
330
1F
100
AcDbEntity
  8
0
 67
0
100
AcDbLine
 10
94.04957421875
 20
297.45503125
 11
94.09833984375
 21
297.4626953125
  0
LINE
  5
8F0
330
1F
100
AcDbEntity
  8
0
 67
0
100
AcDbLine
 10
94.09833984375
 20
297.4626953125
 11
94.14644921875
 21
297.4720625
  0
LINE
  5
8F1
330
1F
100
AcDbEntity
  8
0
 67
0
100
AcDbLine
 10
94.14644921875
 20
297.4720625
 11
94.19390234375
 21
297.4831328125
  0
LINE
  5
8F2
330
1F
100
AcDbEntity
  8
0
 67
0
100
AcDbLine
 10
94.19390234375
 20
297.4831328125
 11
94.24069921875
 21
297.49590625
  0
LINE
  5
8F3
330
1F
100
AcDbEntity
  8
0
 67
0
100
AcDbLine
 10
94.24069921875
 20
297.49590625
 11
94.28683984375
 21
297.5103828125
  0
LINE
  5
8F4
330
1F
100
AcDbEntity
  8
0
 67
0
100
AcDbLine
 10
94.28683984375
 20
297.5103828125
 11
94.33232421875
 21
297.5265625
  0
LINE
  5
8F5
330
1F
100
AcDbEntity
  8
0
 67
0
100
AcDbLine
 10
94.33232421875
 20
297.5265625
 11
94.37766796875
 21
297.5449609375
  0
LINE
  5
8F6
330
1F
100
AcDbEntity
  8
0
 67
0
100
AcDbLine
 10
94.37766796875
 20
297.5449609375
 11
94.42338671875
 21
297.56578125
  0
LINE
  5
8F7
330
1F
100
AcDbEntity
  8
0
 67
0
100
AcDbLine
 10
94.42338671875
 20
297.56578125
 11
94.46948046875
 21
297.5890234375
  0
LINE
  5
8F8
330
1F
100
AcDbEntity
  8
0
 67
0
100
AcDbLine
 10
94.46948046875
 20
297.5890234375
 11
94.51594921875
 21
297.6146875
  0
LINE
  5
8F9
330
1F
100
AcDbEntity
  8
0
 67
0
100
AcDbLine
 10
94.51594921875
 20
297.6146875
 11
94.56279296875
 21
297.6427734375
  0
LINE
  5
8FA
330
1F
100
AcDbEntity
  8
0
 67
0
100
AcDbLine
 10
94.56279296875
 20
297.6427734375
 11
94.61001171875
 21
297.67328125
  0
LINE
  5
8FB
330
1F
100
AcDbEntity
  8
0
 67
0
100
AcDbLine
 10
94.61001171875
 20
297.67328125
 11
94.65760546875
 21
297.7062109375
  0
LINE
  5
8FC
330
1F
100
AcDbEntity
  8
0
 67
0
100
AcDbLine
 10
94.65760546875
 20
297.7062109375
 11
94.70557421875
 21
297.7415625
  0
LINE
  5
8FD
330
1F
100
AcDbEntity
  8
0
 67
0
100
AcDbLine
 10
94.70557421875
 20
297.7415625
 11
94.75391796875
 21
297.7793359375
  0
LINE
  5
8FE
330
1F
100
AcDbEntity
  8
0
 67
0
100
AcDbLine
 10
94.75391796875
 20
297.7793359375
 11
94.80263671875
 21
297.81953125
  0
LINE
  5
8FF
330
1F
100
AcDbEntity
  8
0
 67
0
100
AcDbLine
 10
94.80263671875
 20
297.81953125
 11
94.80263671875
 21
297.81953125
  0
LINE
  5
900
330
1F
100
AcDbEntity
  8
0
 67
0
100
AcDbLine
 10
95.8716796875
 20
296.5015625
 11
95.9026328125
 21
296.4913203125
  0
LINE
  5
901
330
1F
100
AcDbEntity
  8
0
 67
0
100
AcDbLine
 10
95.9026328125
 20
296.4913203125
 11
95.9329921875
 21
296.48215625
  0
LINE
  5
902
330
1F
100
AcDbEntity
  8
0
 67
0
100
AcDbLine
 10
95.9329921875
 20
296.48215625
 11
95.9627578125
 21
296.4740703125
  0
LINE
  5
903
330
1F
100
AcDbEntity
  8
0
 67
0
100
AcDbLine
 10
95.9627578125
 20
296.4740703125
 11
95.9919296875
 21
296.4670625
  0
LINE
  5
904
330
1F
100
AcDbEntity
  8
0
 67
0
100
AcDbLine
 10
95.9919296875
 20
296.4670625
 11
96.0205078125
 21
296.4611328125
  0
LINE
  5
905
330
1F
100
AcDbEntity
  8
0
 67
0
100
AcDbLine
 10
96.0205078125
 20
296.4611328125
 11
96.0484921875
 21
296.45628125
  0
LINE
  5
906
330
1F
100
AcDbEntity
  8
0
 67
0
100
AcDbLine
 10
96.0484921875
 20
296.45628125
 11
96.0758828125
 21
296.4525078125
  0
LINE
  5
907
330
1F
100
AcDbEntity
  8
0
 67
0
100
AcDbLine
 10
96.0758828125
 20
296.4525078125
 11
96.1026796875
 21
296.4498125
  0
LINE
  5
908
330
1F
100
AcDbEntity
  8
0
 67
0
100
AcDbLine
 10
96.1026796875
 20
296.4498125
 11
96.1288828125
 21
296.4481953125
  0
LINE
  5
909
330
1F
100
AcDbEntity
  8
0
 67
0
100
AcDbLine
 10
96.1288828125
 20
296.4481953125
 11
96.1544921875
 21
296.44765625
  0
LINE
  5
90A
330
1F
100
AcDbEntity
  8
0
 67
0
100
AcDbLine
 10
96.1544921875
 20
296.44765625
 11
96.1959375
 21
296.448671875
  0
LINE
  5
90B
330
1F
100
AcDbEntity
  8
0
 67
0
100
AcDbLine
 10
96.1959375
 20
296.448671875
 11
96.2362109375
 21
296.45171875
  0
LINE
  5
90C
330
1F
100
AcDbEntity
  8
0
 67
0
100
AcDbLine
 10
96.2362109375
 20
296.45171875
 11
96.2753125
 21
296.456796875
  0
LINE
  5
90D
330
1F
100
AcDbEntity
  8
0
 67
0
100
AcDbLine
 10
96.2753125
 20
296.456796875
 11
96.3132421875
 21
296.46390625
  0
LINE
  5
90E
330
1F
100
AcDbEntity
  8
0
 67
0
100
AcDbLine
 10
96.3132421875
 20
296.46390625
 11
96.35
 21
296.473046875
  0
LINE
  5
90F
330
1F
100
AcDbEntity
  8
0
 67
0
100
AcDbLine
 10
96.35
 20
296.473046875
 11
96.3855859375
 21
296.48421875
  0
LINE
  5
910
330
1F
100
AcDbEntity
  8
0
 67
0
100
AcDbLine
 10
96.3855859375
 20
296.48421875
 11
96.42
 21
296.497421875
  0
LINE
  5
911
330
1F
100
AcDbEntity
  8
0
 67
0
100
AcDbLine
 10
96.42
 20
296.497421875
 11
96.4532421875
 21
296.51265625
  0
LINE
  5
912
330
1F
100
AcDbEntity
  8
0
 67
0
100
AcDbLine
 10
96.4532421875
 20
296.51265625
 11
96.4853125
 21
296.529921875
  0
LINE
  5
913
330
1F
100
AcDbEntity
  8
0
 67
0
100
AcDbLine
 10
96.4853125
 20
296.529921875
 11
96.5162109375
 21
296.54921875
  0
LINE
  5
914
330
1F
100
AcDbEntity
  8
0
 67
0
100
AcDbLine
 10
96.5162109375
 20
296.54921875
 11
96.5461796875
 21
296.570546875
  0
LINE
  5
915
330
1F
100
AcDbEntity
  8
0
 67
0
100
AcDbLine
 10
96.5461796875
 20
296.570546875
 11
96.5754609375
 21
296.59421875
  0
LINE
  5
916
330
1F
100
AcDbEntity
  8
0
 67
0
100
AcDbLine
 10
96.5754609375
 20
296.59421875
 11
96.6040546875
 21
296.620234375
  0
LINE
  5
917
330
1F
100
AcDbEntity
  8
0
 67
0
100
AcDbLine
 10
96.6040546875
 20
296.620234375
 11
96.6319609375
 21
296.64859375
  0
LINE
  5
918
330
1F
100
AcDbEntity
  8
0
 67
0
100
AcDbLine
 10
96.6319609375
 20
296.64859375
 11
96.6591796875
 21
296.679296875
  0
LINE
  5
919
330
1F
100
AcDbEntity
  8
0
 67
0
100
AcDbLine
 10
96.6591796875
 20
296.679296875
 11
96.6857109375
 21
296.71234375
  0
LINE
  5
91A
330
1F
100
AcDbEntity
  8
0
 67
0
100
AcDbLine
 10
96.6857109375
 20
296.71234375
 11
96.7115546875
 21
296.747734375
  0
LINE
  5
91B
330
1F
100
AcDbEntity
  8
0
 67
0
100
AcDbLine
 10
96.7115546875
 20
296.747734375
 11
96.7367109375
 21
296.78546875
  0
LINE
  5
91C
330
1F
100
AcDbEntity
  8
0
 67
0
100
AcDbLine
 10
96.7367109375
 20
296.78546875
 11
96.7611796875
 21
296.825546875
  0
LINE
  5
91D
330
1F
100
AcDbEntity
  8
0
 67
0
100
AcDbLine
 10
96.7611796875
 20
296.825546875
 11
96.7849609375
 21
296.86796875
  0
LINE
  5
91E
330
1F
100
AcDbEntity
  8
0
 67
0
100
AcDbLine
 10
96.7849609375
 20
296.86796875
 11
96.803171875
 21
296.9028203125
  0
LINE
  5
91F
330
1F
100
AcDbEntity
  8
0
 67
0
100
AcDbLine
 10
96.803171875
 20
296.9028203125
 11
96.8228046875
 21
296.943
  0
LINE
  5
920
330
1F
100
AcDbEntity
  8
0
 67
0
100
AcDbLine
 10
96.8228046875
 20
296.943
 11
96.843859375
 21
296.9885078125
  0
LINE
  5
921
330
1F
100
AcDbEntity
  8
0
 67
0
100
AcDbLine
 10
96.843859375
 20
296.9885078125
 11
96.8663359375
 21
297.03934375
  0
LINE
  5
922
330
1F
100
AcDbEntity
  8
0
 67
0
100
AcDbLine
 10
96.8663359375
 20
297.03934375
 11
96.890234375
 21
297.0955078125
  0
LINE
  5
923
330
1F
100
AcDbEntity
  8
0
 67
0
100
AcDbLine
 10
96.890234375
 20
297.0955078125
 11
96.9155546875
 21
297.157
  0
LINE
  5
924
330
1F
100
AcDbEntity
  8
0
 67
0
100
AcDbLine
 10
96.9155546875
 20
297.157
 11
96.942296875
 21
297.2238203125
  0
LINE
  5
925
330
1F
100
AcDbEntity
  8
0
 67
0
100
AcDbLine
 10
96.942296875
 20
297.2238203125
 11
96.97046093750001
 21
297.29596875
  0
LINE
  5
926
330
1F
100
AcDbEntity
  8
0
 67
0
100
AcDbLine
 10
96.97046093750001
 20
297.29596875
 11
97.000046875
 21
297.3734453125
  0
LINE
  5
927
330
1F
100
AcDbEntity
  8
0
 67
0
100
AcDbLine
 10
97.000046875
 20
297.3734453125
 11
97.0310546875
 21
297.45625
  0
LINE
  5
928
330
1F
100
AcDbEntity
  8
0
 67
0
100
AcDbLine
 10
97.0310546875
 20
297.45625
 11
98.0177734375
 21
300.09296875
  0
LINE
  5
929
330
1F
100
AcDbEntity
  8
0
 67
0
100
AcDbLine
 10
98.0177734375
 20
300.09296875
 11
97.5779296875
 21
300.09296875
  0
LINE
  5
92A
330
1F
100
AcDbEntity
  8
0
 67
0
100
AcDbLine
 10
97.5779296875
 20
300.09296875
 11
97.0240234375
 21
298.58125
  0
LINE
  5
92B
330
1F
100
AcDbEntity
  8
0
 67
0
100
AcDbLine
 10
97.0240234375
 20
298.58125
 11
97.003375
 21
298.52359375
  0
LINE
  5
92C
330
1F
100
AcDbEntity
  8
0
 67
0
100
AcDbLine
 10
97.003375
 20
298.52359375
 11
96.9833046875
 21
298.465625
  0
LINE
  5
92D
330
1F
100
AcDbEntity
  8
0
 67
0
100
AcDbLine
 10
96.9833046875
 20
298.465625
 11
96.9638125
 21
298.40734375
  0
LINE
  5
92E
330
1F
100
AcDbEntity
  8
0
 67
0
100
AcDbLine
 10
96.9638125
 20
298.40734375
 11
96.9448984375
 21
298.34875
  0
LINE
  5
92F
330
1F
100
AcDbEntity
  8
0
 67
0
100
AcDbLine
 10
96.9448984375
 20
298.34875
 11
96.9265625
 21
298.28984375
  0
LINE
  5
930
330
1F
100
AcDbEntity
  8
0
 67
0
100
AcDbLine
 10
96.9265625
 20
298.28984375
 11
96.9088046875
 21
298.230625
  0
LINE
  5
931
330
1F
100
AcDbEntity
  8
0
 67
0
100
AcDbLine
 10
96.9088046875
 20
298.230625
 11
96.891625
 21
298.17109375
  0
LINE
  5
932
330
1F
100
AcDbEntity
  8
0
 67
0
100
AcDbLine
 10
96.891625
 20
298.17109375
 11
96.8750234375
 21
298.11125
  0
LINE
  5
933
330
1F
100
AcDbEntity
  8
0
 67
0
100
AcDbLine
 10
96.8750234375
 20
298.11125
 11
96.859
 21
298.05109375
  0
LINE
  5
934
330
1F
100
AcDbEntity
  8
0
 67
0
100
AcDbLine
 10
96.859
 20
298.05109375
 11
96.8435546875
 21
297.990625
  0
LINE
  5
935
330
1F
100
AcDbEntity
  8
0
 67
0
100
AcDbLine
 10
96.8435546875
 20
297.990625
 11
96.826625
 21
298.0533046875
  0
LINE
  5
936
330
1F
100
AcDbEntity
  8
0
 67
0
100
AcDbLine
 10
96.826625
 20
298.0533046875
 11
96.8092734375
 21
298.11540625
  0
LINE
  5
937
330
1F
100
AcDbEntity
  8
0
 67
0
100
AcDbLine
 10
96.8092734375
 20
298.11540625
 11
96.7915
 21
298.1769296875
  0
LINE
  5
938
330
1F
100
AcDbEntity
  8
0
 67
0
100
AcDbLine
 10
96.7915
 20
298.1769296875
 11
96.7733046875
 21
298.237875
  0
LINE
  5
939
330
1F
100
AcDbEntity
  8
0
 67
0
100
AcDbLine
 10
96.7733046875
 20
298.237875
 11
96.7546875
 21
298.2982421875
  0
LINE
  5
93A
330
1F
100
AcDbEntity
  8
0
 67
0
100
AcDbLine
 10
96.7546875
 20
298.2982421875
 11
96.7356484375
 21
298.35803125
  0
LINE
  5
93B
330
1F
100
AcDbEntity
  8
0
 67
0
100
AcDbLine
 10
96.7356484375
 20
298.35803125
 11
96.7161875
 21
298.4172421875
  0
LINE
  5
93C
330
1F
100
AcDbEntity
  8
0
 67
0
100
AcDbLine
 10
96.7161875
 20
298.4172421875
 11
96.6963046875
 21
298.475875
  0
LINE
  5
93D
330
1F
100
AcDbEntity
  8
0
 67
0
100
AcDbLine
 10
96.6963046875
 20
298.475875
 11
96.676
 21
298.5339296875
  0
LINE
  5
93E
330
1F
100
AcDbEntity
  8
0
 67
0
100
AcDbLine
 10
96.676
 20
298.5339296875
 11
96.6552734375
 21
298.59140625
  0
LINE
  5
93F
330
1F
100
AcDbEntity
  8
0
 67
0
100
AcDbLine
 10
96.6552734375
 20
298.59140625
 11
96.1154296875
 21
300.09296875
  0
LINE
  5
940
330
1F
100
AcDbEntity
  8
0
 67
0
100
AcDbLine
 10
96.1154296875
 20
300.09296875
 11
95.6419921875
 21
300.09296875
  0
LINE
  5
941
330
1F
100
AcDbEntity
  8
0
 67
0
100
AcDbLine
 10
95.6419921875
 20
300.09296875
 11
96.6263671875
 21
297.4953125
  0
LINE
  5
942
330
1F
100
AcDbEntity
  8
0
 67
0
100
AcDbLine
 10
96.6263671875
 20
297.4953125
 11
96.6210546875
 21
297.4814375
  0
LINE
  5
943
330
1F
100
AcDbEntity
  8
0
 67
0
100
AcDbLine
 10
96.6210546875
 20
297.4814375
 11
96.6160546875
 21
297.46825
  0
LINE
  5
944
330
1F
100
AcDbEntity
  8
0
 67
0
100
AcDbLine
 10
96.6160546875
 20
297.46825
 11
96.61136718750001
 21
297.45575
  0
LINE
  5
945
330
1F
100
AcDbEntity
  8
0
 67
0
100
AcDbLine
 10
96.61136718750001
 20
297.45575
 11
96.6069921875
 21
297.4439375
  0
LINE
  5
946
330
1F
100
AcDbEntity
  8
0
 67
0
100
AcDbLine
 10
96.6069921875
 20
297.4439375
 11
96.6029296875
 21
297.4328125
  0
LINE
  5
947
330
1F
100
AcDbEntity
  8
0
 67
0
100
AcDbLine
 10
96.6029296875
 20
297.4328125
 11
96.5991796875
 21
297.422375
  0
LINE
  5
948
330
1F
100
AcDbEntity
  8
0
 67
0
100
AcDbLine
 10
96.5991796875
 20
297.422375
 11
96.59574218750001
 21
297.412625
  0
LINE
  5
949
330
1F
100
AcDbEntity
  8
0
 67
0
100
AcDbLine
 10
96.59574218750001
 20
297.412625
 11
96.5926171875
 21
297.4035625
  0
LINE
  5
94A
330
1F
100
AcDbEntity
  8
0
 67
0
100
AcDbLine
 10
96.5926171875
 20
297.4035625
 11
96.5898046875
 21
297.3951875
  0
LINE
  5
94B
330
1F
100
AcDbEntity
  8
0
 67
0
100
AcDbLine
 10
96.5898046875
 20
297.3951875
 11
96.5873046875
 21
297.3875
  0
LINE
  5
94C
330
1F
100
AcDbEntity
  8
0
 67
0
100
AcDbLine
 10
96.5873046875
 20
297.3875
 11
96.5692265625
 21
297.3372578125
  0
LINE
  5
94D
330
1F
100
AcDbEntity
  8
0
 67
0
100
AcDbLine
 10
96.5692265625
 20
297.3372578125
 11
96.5521796875
 21
297.29090625
  0
LINE
  5
94E
330
1F
100
AcDbEntity
  8
0
 67
0
100
AcDbLine
 10
96.5521796875
 20
297.29090625
 11
96.5361640625
 21
297.2484453125
  0
LINE
  5
94F
330
1F
100
AcDbEntity
  8
0
 67
0
100
AcDbLine
 10
96.5361640625
 20
297.2484453125
 11
96.5211796875
 21
297.209875
  0
LINE
  5
950
330
1F
100
AcDbEntity
  8
0
 67
0
100
AcDbLine
 10
96.5211796875
 20
297.209875
 11
96.5072265625
 21
297.1751953125
  0
LINE
  5
951
330
1F
100
AcDbEntity
  8
0
 67
0
100
AcDbLine
 10
96.5072265625
 20
297.1751953125
 11
96.4943046875
 21
297.14440625
  0
LINE
  5
952
330
1F
100
AcDbEntity
  8
0
 67
0
100
AcDbLine
 10
96.4943046875
 20
297.14440625
 11
96.4824140625
 21
297.1175078125
  0
LINE
  5
953
330
1F
100
AcDbEntity
  8
0
 67
0
100
AcDbLine
 10
96.4824140625
 20
297.1175078125
 11
96.4715546875
 21
297.0945
  0
LINE
  5
954
330
1F
100
AcDbEntity
  8
0
 67
0
100
AcDbLine
 10
96.4715546875
 20
297.0945
 11
96.4617265625
 21
297.0753828125
  0
LINE
  5
955
330
1F
100
AcDbEntity
  8
0
 67
0
100
AcDbLine
 10
96.4617265625
 20
297.0753828125
 11
96.4529296875
 21
297.06015625
  0
LINE
  5
956
330
1F
100
AcDbEntity
  8
0
 67
0
100
AcDbLine
 10
96.4529296875
 20
297.06015625
 11
96.441359375
 21
297.043046875
  0
LINE
  5
957
330
1F
100
AcDbEntity
  8
0
 67
0
100
AcDbLine
 10
96.441359375
 20
297.043046875
 11
96.4291484375
 21
297.02671875
  0
LINE
  5
958
330
1F
100
AcDbEntity
  8
0
 67
0
100
AcDbLine
 10
96.4291484375
 20
297.02671875
 11
96.416296875
 21
297.011171875
  0
LINE
  5
959
330
1F
100
AcDbEntity
  8
0
 67
0
100
AcDbLine
 10
96.416296875
 20
297.011171875
 11
96.4028046875
 21
296.99640625
  0
LINE
  5
95A
330
1F
100
AcDbEntity
  8
0
 67
0
100
AcDbLine
 10
96.4028046875
 20
296.99640625
 11
96.388671875
 21
296.982421875
  0
LINE
  5
95B
330
1F
100
AcDbEntity
  8
0
 67
0
100
AcDbLine
 10
96.388671875
 20
296.982421875
 11
96.3738984375
 21
296.96921875
  0
LINE
  5
95C
330
1F
100
AcDbEntity
  8
0
 67
0
100
AcDbLine
 10
96.3738984375
 20
296.96921875
 11
96.358484375
 21
296.956796875
  0
LINE
  5
95D
330
1F
100
AcDbEntity
  8
0
 67
0
100
AcDbLine
 10
96.358484375
 20
296.956796875
 11
96.3424296875
 21
296.94515625
  0
LINE
  5
95E
330
1F
100
AcDbEntity
  8
0
 67
0
100
AcDbLine
 10
96.3424296875
 20
296.94515625
 11
96.325734375
 21
296.934296875
  0
LINE
  5
95F
330
1F
100
AcDbEntity
  8
0
 67
0
100
AcDbLine
 10
96.325734375
 20
296.934296875
 11
96.3083984375
 21
296.92421875
  0
LINE
  5
960
330
1F
100
AcDbEntity
  8
0
 67
0
100
AcDbLine
 10
96.3083984375
 20
296.92421875
 11
96.2903046875
 21
296.9148671875
  0
LINE
  5
961
330
1F
100
AcDbEntity
  8
0
 67
0
100
AcDbLine
 10
96.2903046875
 20
296.9148671875
 11
96.2710234375
 21
296.9065
  0
LINE
  5
962
330
1F
100
AcDbEntity
  8
0
 67
0
100
AcDbLine
 10
96.2710234375
 20
296.9065
 11
96.2505546875
 21
296.8991171875
  0
LINE
  5
963
330
1F
100
AcDbEntity
  8
0
 67
0
100
AcDbLine
 10
96.2505546875
 20
296.8991171875
 11
96.22889843749999
 21
296.89271875
  0
LINE
  5
964
330
1F
100
AcDbEntity
  8
0
 67
0
100
AcDbLine
 10
96.22889843749999
 20
296.89271875
 11
96.2060546875
 21
296.8873046875
  0
LINE
  5
965
330
1F
100
AcDbEntity
  8
0
 67
0
100
AcDbLine
 10
96.2060546875
 20
296.8873046875
 11
96.1820234375
 21
296.882875
  0
LINE
  5
966
330
1F
100
AcDbEntity
  8
0
 67
0
100
AcDbLine
 10
96.1820234375
 20
296.882875
 11
96.1568046875
 21
296.8794296875
  0
LINE
  5
967
330
1F
100
AcDbEntity
  8
0
 67
0
100
AcDbLine
 10
96.1568046875
 20
296.8794296875
 11
96.1303984375
 21
296.87696875
  0
LINE
  5
968
330
1F
100
AcDbEntity
  8
0
 67
0
100
AcDbLine
 10
96.1303984375
 20
296.87696875
 11
96.1028046875
 21
296.8754921875
  0
LINE
  5
969
330
1F
100
AcDbEntity
  8
0
 67
0
100
AcDbLine
 10
96.1028046875
 20
296.8754921875
 11
96.0740234375
 21
296.875
  0
LINE
  5
96A
330
1F
100
AcDbEntity
  8
0
 67
0
100
AcDbLine
 10
96.0740234375
 20
296.875
 11
96.0522421875
 21
296.875390625
  0
LINE
  5
96B
330
1F
100
AcDbEntity
  8
0
 67
0
100
AcDbLine
 10
96.0522421875
 20
296.875390625
 11
96.0297109375
 21
296.8765625
  0
LINE
  5
96C
330
1F
100
AcDbEntity
  8
0
 67
0
100
AcDbLine
 10
96.0297109375
 20
296.8765625
 11
96.0064296875
 21
296.878515625
  0
LINE
  5
96D
330
1F
100
AcDbEntity
  8
0
 67
0
100
AcDbLine
 10
96.0064296875
 20
296.878515625
 11
95.9823984375
 21
296.88125
  0
LINE
  5
96E
330
1F
100
AcDbEntity
  8
0
 67
0
100
AcDbLine
 10
95.9823984375
 20
296.88125
 11
95.9576171875
 21
296.884765625
  0
LINE
  5
96F
330
1F
100
AcDbEntity
  8
0
 67
0
100
AcDbLine
 10
95.9576171875
 20
296.884765625
 11
95.9320859375
 21
296.8890625
  0
LINE
  5
970
330
1F
100
AcDbEntity
  8
0
 67
0
100
AcDbLine
 10
95.9320859375
 20
296.8890625
 11
95.9058046875
 21
296.894140625
  0
LINE
  5
971
330
1F
100
AcDbEntity
  8
0
 67
0
100
AcDbLine
 10
95.9058046875
 20
296.894140625
 11
95.8787734375
 21
296.9
  0
LINE
  5
972
330
1F
100
AcDbEntity
  8
0
 67
0
100
AcDbLine
 10
95.8787734375
 20
296.9
 11
95.8509921875
 21
296.906640625
  0
LINE
  5
973
330
1F
100
AcDbEntity
  8
0
 67
0
100
AcDbLine
 10
95.8509921875
 20
296.906640625
 11
95.8224609375
 21
296.9140625
  0
LINE
  5
974
330
1F
100
AcDbEntity
  8
0
 67
0
100
AcDbLine
 10
95.8224609375
 20
296.9140625
 11
95.8716796875
 21
296.5015625
  0
LINE
  5
975
330
1F
100
AcDbEntity
  8
0
 67
0
100
AcDbLine
 10
95.8716796875
 20
296.5015625
 11
95.8716796875
 21
296.5015625
  0
ENDSEC
  0
SECTION
  2
OBJECTS
  0
DICTIONARY
  5
C
330
0
100
AcDbDictionary
281
1
  3
ACAD_COLOR
350
4E1
  3
ACAD_GROUP
350
4E2
  3
ACAD_LAYOUT
350
4E3
  3
ACAD_MATERIAL
350
4E4
  3
ACAD_MLEADERSTYLE
350
4E5
  3
ACAD_MLINESTYLE
350
4E6
  3
ACAD_PLOTSETTINGS
350
4E7
  3
ACAD_PLOTSTYLENAME
350
4E9
  3
ACAD_SCALELIST
350
4EA
  3
ACAD_TABLESTYLE
350
4EB
  3
ACAD_VISUALSTYLE
350
4EC
  0
DICTIONARY
  5
4E1
330
C
100
AcDbDictionary
281
1
  0
DICTIONARY
  5
4E2
330
C
100
AcDbDictionary
281
1
  0
DICTIONARY
  5
4E3
330
C
100
AcDbDictionary
281
1
  3
Model
350
4ED
  3
Layout1
350
4EE
  0
DICTIONARY
  5
4E4
330
C
100
AcDbDictionary
281
1
  0
DICTIONARY
  5
4E5
330
C
100
AcDbDictionary
281
1
  0
DICTIONARY
  5
4E6
330
C
100
AcDbDictionary
281
1
  0
DICTIONARY
  5
4E7
330
C
100
AcDbDictionary
281
1
  0
ACDBPLACEHOLDER
  5
4E8
330
4E9
  0
ACDBDICTIONARYWDFLT
  5
4E9
330
C
100
AcDbDictionary
281
1
  3
Normal
350
4E8
100
AcDbDictionaryWithDefault
340
4E8
  0
DICTIONARY
  5
4EA
330
C
100
AcDbDictionary
281
1
  0
DICTIONARY
  5
4EB
330
C
100
AcDbDictionary
281
1
  0
DICTIONARY
  5
4EC
330
C
100
AcDbDictionary
281
1
  0
LAYOUT
  5
4ED
330
4E3
100
AcDbPlotSettings
  1

  2
DWFx ePlot (XPS Compatible).pc3
  4
ANSI_A_(8.50_x_11.00_Inches)
  6

 40
5.8
 41
17.8
 42
5.8
 43
17.8
 44
215.9
 45
279.4
 46
0.0
 47
0.0
 48
0.0
 49
0.0
140
0.0
141
0.0
142
1.0
143
14.53
 70
11952
 72
0
 73
1
 74
0
  7

 75
0
147
0.069
148
114.98
149
300.29
100
AcDbLayout
  1
Model
 70
1
 71
0
 10
0.0
 20
0.0
 11
12.0
 21
9.0
 12
0.0
 22
0.0
 32
0.0
 14
0.0
 24
0.0
 34
0.0
 15
0.0
 25
0.0
 35
0.0
146
0.0
 13
0.0
 23
0.0
 33
0.0
 16
1.0
 26
0.0
 36
0.0
 17
0.0
 27
1.0
 37
0.0
 76
0
330
1F
  0
LAYOUT
  5
4EE
330
4E3
100
AcDbPlotSettings
  1

  2
DWFx ePlot (XPS Compatible).pc3
  4
ANSI_A_(8.50_x_11.00_Inches)
  6

 40
5.8
 41
17.8
 42
5.8
 43
17.8
 44
215.9
 45
279.4
 46
0.0
 47
0.0
 48
0.0
 49
0.0
140
0.0
141
0.0
142
1.0
143
1.0
 70
688
 72
0
 73
1
 74
5
  7
acad.ctb
 75
16
147
1.0
148
0.0
149
0.0
100
AcDbLayout
  1
Layout1
 70
1
 71
1
 10
-0.7
 20
-0.23
 11
10.3
 21
8.27
 12
0.0
 22
0.0
 32
0.0
 14
0.63
 24
0.8
 34
0.0
 15
9.0
 25
7.2
 35
0.0
146
0.0
 13
0.0
 23
0.0
 33
0.0
 16
1.0
 26
0.0
 36
0.0
 17
0.0
 27
1.0
 37
0.0
 76
0
330
58
  0
ENDSEC
  0
EOF
